<?xml version="1.0" standalone="no"?>
<!DOCTYPE svg PUBLIC "-//W3C//DTD SVG 1.1//EN" "http://www.w3.org/Graphics/SVG/1.1/DTD/svg11.dtd" >
<svg xmlns="http://www.w3.org/2000/svg" xmlns:xlink="http://www.w3.org/1999/xlink" version="1.1">
<metadata>
Created by FontForge 20170731 at Sun Sep 24 07:55:20 2006
 By Aleksey,,,
Copyright (c) S. John Ross, 2006. All rights reserved.
</metadata>
<defs>
<font id="MerchantCopyDoublesize" horiz-adv-x="708" >
  <font-face 
    font-family="Merchant Copy Doublesize"
    font-weight="400"
    font-style="italic"
    font-stretch="normal"
    units-per-em="1000"
    panose-1="2 11 5 9 0 0 0 9 0 4"
    ascent="800"
    descent="-200"
    x-height="674.5"
    cap-height="1012"
    bbox="17 -190 690 1066.64"
    underline-thickness="50"
    underline-position="-275"
    slope="-11"
    unicode-range="U+0020-201D"
  />
<missing-glyph 
 />
    <glyph glyph-name=".notdef" 
 />
    <glyph glyph-name=".null" 
 />
    <glyph glyph-name="nonmarkingreturn" 
 />
    <glyph glyph-name="space" unicode=" " 
 />
    <glyph glyph-name="space" unicode="&#xa0;" 
 />
    <glyph glyph-name="exclam" unicode="!" 
d="M474 493v122h-5q-4 4 0 13h5v189h-5q-5 27 0 54h5q-2 6 -5 7t-3 9h-15v5q-6 -2 -18.5 1.5t-17.5 3.5q-5 12 -5 38h-3v51q-10 0 -8 3q-7 0 -7 -3l-3 3q-31 -2 -53 -2.5t-36 -0.5q2 -2 0 -3.5t-8 -1.5v-18h5q-2 -10 -3.5 -25.5t-1.5 -38.5q-20 -2 -33 -3.5t-23 -3.5
q3 -5 -3 -5v-131h3q2 -2 2 -8q0 -2 -2 -5h-3v-20h3q2 -3 2 -8t-2 -7h-3q2 -5 2.5 -12.5t0.5 -21.5q2 2 3.5 0.5t1.5 -5.5q-4 -6 -6 -9.5l-2 -3.5v-7h3q2 -6 2 -12v-11v-12t-2 -11h-3q-2 -2 -0.5 -2.5t3.5 -2.5q3 -68 0 -103q10 -5 17.5 -9t12.5 -6q12 0 18 -1.5t8 -3.5v-18
h5q2 -21 2.5 -52t0.5 -76h2q4 -7 0 -18h-2v-5q5 -6 12.5 -8t15.5 -2q0 -2 5.5 -3.5t7.5 -7.5h33v6q6 -2 13 3.5t12 3.5l3 -2h8q2 2 5 2q-6 6 -3 31h3v18q-5 0 -5 2q2 3 5 0l2 118q8 16 23 13v2q23 4 34 11zM476 55v18q-2 -2 -5 3t-5 5q10 0 10 5v8q-5 0 -2 2q-16 0 -16 3v2
q-15 0 -26.5 0.5t-16.5 2.5v36q-4 0 -8 7l-25 3v2h-31v-2q-2 -2 -5 -2.5t-5 -0.5q-4 0 -7.5 0.5t-5.5 2.5v2h-10q-11 3 -13 -2t-1.5 -12.5t1.5 -15t-5 -10.5q-29 -11 -49 -11q0 2 -2 -1t-8 -11v-36q14 -2 21.5 -3.5t11.5 -1.5v-6q17 0 21.5 -3.5t4.5 -11.5h2v-23
q-3 -3 13 -8q17 -4 33.5 -5.5t33.5 0.5q17 6 25 8.5l8 2.5q0 11 7 7v26q32 3 26 7v6q2 2 4.5 3.5t8.5 1.5q13 0 15 2z" />
    <glyph glyph-name="quotedbl" unicode="&#x22;" 
d="M629 751q0 5 -5 5v21h5v38h-5v18h5v15q-6 2 -6.5 2.5t1.5 2.5q2 3 5 3v13h-5v56h-3q-2 2 -2.5 7t-0.5 11h-5q-3 10 0 20h5h-5q-3 10 0 13h11v13q-16 2 -27.5 2.5t-19.5 2.5q0 3 -1.5 3.5t-3.5 1t-3.5 2t-1.5 6.5v13h-5v15h-5q-2 2 -2.5 5t-0.5 5q-9 -2 -23 -2h-30h-51
q0 -11 -3 -13h-3v-31h-10v-5q-15 -2 -26.5 -2.5t-19.5 -2.5v-41q2 2 4 -1.5t6 -8.5q21 0 21 -5l25 -3v-23h3q2 -6 5 -8.5t3 -4.5l25 -2v-5q7 7 21 -6q2 -9 3.5 -17t1.5 -13h5v-28h-5q-3 -3 5 -3v-64q-37 -8 -48 -12.5t-13 -10.5v-15h2q3 -3 3 -18q2 2 5 -3t5 -5
q21 0 30.5 0.5t5.5 2.5q0 -3 5 -8h25v-5h8v5q17 5 23 5q0 2 2.5 10.5t2.5 10.5h5v23h21q10 0 15 2v5h16q2 2 2.5 4t2.5 4zM324 777v7q-5 0 -5 3v197q-34 15 -56 10q-5 13 -5 38h-5v11h-26v2q-8 -2 -11.5 -3t-3.5 1h-44v-6q-8 4 -28 -7v-41h-56v-26h-5v-13h5v-5q17 -5 29 -9
t22 -6v-10h5v-23q10 -8 19 -11.5t17 -1.5q-3 3 15 3q6 0 9.5 -2t1.5 -4v-79h5q3 -11 0 -20h-5q0 -5 5 -5q3 -8 0 -18q-11 -4 -13 -11q-14 -2 -23.5 -3t-15.5 1l-10 -10v-41q6 -4 12 -7.5t11 -5.5h13v5h54v-5h13v5q8 0 9 9.5t3 11.5h3v23q23 11 31 7v5h15q0 8 10 8l3 26h2z
M462 925h-2v5h2v-5z" />
    <glyph glyph-name="numbersign" unicode="#" 
d="M657 306v97h-3q-4 5 -7 0q-10 2 -23.5 2.5t-30.5 0.5h-31q-13 0 -23 2v8h-5q-5 20 0 41h5v13h-5v189h5v20q38 19 62 16v-3h40q6 6 13 3v13h3v25h-3v64q-35 4 -59.5 5.5t-40.5 -0.5v5h-25q-2 2 -0.5 5t5.5 5h-3q-2 2 -3.5 5.5t-1.5 5.5q0 4 1.5 6t3.5 4h3q-1 0 -2 0.5
t-1.5 6t-1 19t-0.5 40.5q-11 0 -5 6h5v71h-5v13q-5 -5 -5 5h-31q2 -2 1.5 -3.5t-6.5 -1.5q-4 0 -5.5 1.5t0.5 3.5h-46q2 -2 -1.5 -3.5t-9.5 -1.5q-20 -13 -10 -13v-125h3q3 -8 0 -15h-3l3 -3q3 -8 0 -15h-3v-11h3q3 -11 0 -23h-3v-7h3q3 -8 0 -21h-3v-5q-54 0 -83 0.5
t-34 2.5v10h-8v135h-5q-4 12 0 31h5q-3 3 -5 3v10q-8 0 -5 2h-29t-17 -2q-27 -8 -41 2q-6 -2 -11 -2h-7v-67h2q-4 -48 -5.5 -91.5t0.5 -81.5q-17 -5 -43.5 -6.5t-58.5 -1.5q5 -5 -5 -5v5q-5 3 -5 0q-2 -2 -2.5 -3.5t-2.5 -1.5v-34q2 5 3.5 3t1.5 -8q0 -4 -2 -4q-1 0 -3 2
v-31q2 4 3.5 2.5t1.5 -7.5q0 -4 -1.5 -4.5t-3.5 1.5v-12q-3 -3 10 -8q24 -8 36 -8v-2h10v2q11 4 20 0v-2h36v-13h5q2 -10 2.5 -24.5t0.5 -34.5q2 0 3 -1.5t-1 -3.5h-2v-2q0 -1 2 -3v-189q-65 -9 -97 -6q-2 -4 -2.5 -6t-2.5 -4q6 -2 3 -2h-13v-49h-5l5 -5q2 -2 2 -5
q0 -2 -2 -8h-5v-18q2 2 3.5 0t1.5 -7q23 -4 40.5 -6t30.5 -2v-5q34 0 36 -3q4 -16 6 -23.5t3 -9.5l1 -2v-1v-143q8 0 17 -2.5t17 -2.5q-2 -4 -1 -6t3 -2q21 2 36.5 4t25.5 2v2q9 6 13.5 8t6.5 2v36h-2v23h2v13q-5 0 -2 3q0 2 2 2v54q-2 0 -2 5t2 5l3 74q2 3 2 5q15 12 26 8
q14 7 18 0q36 -5 51 0q6 -6 10 -8.5t8 -4.5q2 -5 2 -9v-6h5q5 -13 0 -26h-5v-15h5v-38h6q3 -17 0 -29h-6v-46q16 0 16 -7h82q0 2 15 2q0 5 5 5v34h-5q0 7 3 10l2 176q5 -3 5 0q0 5 8 5q5 0 17.5 2.5t28 5t30.5 4.5t26 1q-8 8 3 8zM421 360h-48v-5h-28v5h-46q0 5 -1.5 5.5
t-3.5 -3.5v82h-6v10h6v69h-6v57h6v48q0 2 6 4t6 4q24 -4 44 8h28q0 -2 5 -4t5 -4h16q-2 -2 0 -2.5t7 -2.5q0 -23 3 -26v-169q2 -2 7 -2v-41q-4 4 -7 -5q3 -11 7 -5v-23z" />
    <glyph glyph-name="dollar" unicode="$" 
d="M659 242v69q-7 0 -5 3q0 2 5 2v10h-5v121q-8 0 -5 5l-25 2l-31 3v38h-5v8l-46 2q0 6 -2.5 7t-8.5 16q-3 13 0 21q-5 2 -6 2.5t1 2.5l-112 3v10h-5q-4 7 0 18h5v38h-5q-5 8 0 13h5l-5 5q-4 7 0 18h5v8h-5q-5 7 0 15h5v10h-5q-4 7 0 16h5v17q-12 0 -8 6h8v51q2 0 2 5
q10 2 18 3t16 -1v5q-2 -2 1.5 -3.5t13.5 -1.5q5 -12 5 -33h5v-8q28 -8 46 -5q0 -14 1.5 -16t3.5 4h5q2 -5 2.5 -10t0.5 -13q3 0 3 -8h23v-5q25 0 28 -3q8 -20 5 -38q2 2 6 -3l4 -5q6 -2 16.5 -0.5l24.5 3.5q0 10 10 10v10h-2q-4 11 0 18h2v13h-2q-2 6 -2 8q0 3 2 5h2v7h-2
q-4 18 0 36h2q0 17 -1.5 29t-3.5 22q-19 0 -32.5 0.5t-23.5 2.5q-5 12 -5 38q-20 6 -33 9t-21 1v3q-8 8 -8 38q-2 -2 -3.5 -0.5t-1.5 5.5q-8 0 -22.5 1t-31 2t-32.5 2t-26 1q-2 13 -2.5 32.5t-0.5 46.5h-2q-3 2 -3 10q-6 0 -6.5 0.5t3.5 2.5h-69q-8 0 -13.5 -0.5t-9.5 -2.5
v-5l-15 -3l-3 -81q-5 -2 -10.5 -4t-9.5 -2v6q-64 -9 -95 -6q0 -10 -2 -12h-5v-36q-6 2 -20.5 0.5t-36.5 -3.5q-2 -4 -2.5 -6t-2.5 -4h3q3 -39 0 -74v-6q0 -2 -2.5 -3.5t-9.5 -2.5t-21 -1v-5q-12 -6 -18 -9.5t-8 -5.5v-5l5 -6h-5v-115h5v-7q5 3 5 -5h16q9 -6 17 -8.5t13 -4.5
v-16h3q2 -5 2 -9q0 -3 8 -3q9 -3 9 -6q0 -2 1.5 -4.5t9 -5t29.5 -5.5v-13h5q2 -9 2 -23v-30q3 -3 3 -16q12 0 15 -5v-5q4 2 10 2.5t16 0.5l15.5 -2t48.5 -4v-5q8 0 11.5 -8t1.5 -10q0 -2 -3 -2v-10q3 2 3 -3v-189l-14 -3.5t-12 -1.5q5 -5 -3 -5q-12 0 -7 5h-64q-13 8 -23 5
v84q-5 0 -5 5t5 5v16h-5q-4 11 0 18h5q-2 5 -3.5 7.5l-1.5 2.5q-6 0 -11 0.5t-7 2.5v5h-54v-5q-8 -2 -11.5 -4l-3.5 -2q2 3 -26 3v-141q-3 -1 1.5 -3.5t12.5 -5t18 -4.5t19 -2q5 -13 5 -33h6v-46q5 -6 12 -11t13 -7h26q-2 2 -1.5 3.5t6.5 1.5q2 -2 3.5 -2.5t1.5 -2.5h31v2
q26 -2 47 -3.5t34 -3.5q2 -2 4 -8.5t2 -20.5q4 6 7 -5q0 -5 -7 -5q7 -21 7 -38q11 0 16 -8q5 2 10 -1.5t5 -5.5h23v2h28v-2h8v2q9 10 23 10q0 8 2 8l3 56h5v16q2 2 8 3.5t18 1.5v2q2 2 5 2.5t5 0.5t5 -0.5t5 -2.5v-2h36q13 8 25 5q0 5 3 8l3 25h5q-2 6 -2 8q0 3 2 5
q10 0 10 5q3 -5 8 -5h23v2q9 6 12.5 12t5.5 11h2v13q13 0 15 3v5q3 3 16 3q-2 3 0.5 5.5t6.5 4.5t8 3.5t5 1.5v28h5zM294 574q0 -13 -8 -14t-10 -3l-3 2q-2 0 -5 -2q-11 -2 -20.5 -1t-15.5 3v10h-5q-2 10 -2.5 19t-2.5 15q-5 0 -5 2l-44 3q0 5 -2 7h-5v18h-5v8h5q3 14 0 33
q-2 2 -2.5 3.5t-2.5 1.5h5v34q0 9 2 17t8 13q16 -3 20 3q2 -4 7.5 -4.5t10.5 1.5q2 2 2.5 10t8.5 8h2v16h5v12q10 2 16 2.5t10 2.5v-5h15q6 -4 8 -5.5l2 -1.5v-23h5q0 -17 0.5 -30t2.5 -21h3v-16h-3q-5 -28 0 -51h3v-18h-3q-4 -22 0 -49h3zM542 298h-5l-3 -30l-3.5 -0.5
t-9.5 -2.5v-5q-17 2 -27 1t-14 -6q-8 -24 -5 -41h-51q-2 4 -3 4l-2 -2q0 13 -3 13h-2v26h2q4 9 0 13h-2v15h2q4 7 0 15q-2 0 -2 5h2q4 24 0 46h-2v26h2q4 11 0 18h-2v15h2l3 21q11 7 15 7v5h31h3q0 -10 2 -12h5q0 -17 3.5 -25t10.5 -12t16 -4h21q0 -13 8 -13v-13
q0 -28 8 -41h-8q0 -12 8 -7v-16z" />
    <glyph glyph-name="percent" unicode="%" 
d="M690 155v5h-3q-2 8 -2 31v61q-5 0 -5 3q0 5 5 5v13h-5q-5 3 0 12h5v77q-5 5 -5 33q-10 4 -10 8q-6 0 -16.5 0.5t-24.5 2.5v10h-3q-2 14 -2 33v46q-22 4 -37.5 5.5t-26.5 -0.5q-8 17 -3 41q-4 0 -7.5 1.5t-7.5 3.5q-3 0 0 3h-21q2 -2 1.5 -2.5t-6.5 -0.5q-19 -26 -15 -41
h-59v6h-3v71h3v5h-3q0 16 3 16l2 30h31q14 14 18 8q4 62 6 107.5t2 76.5q2 3 5 3q4 5 11 6.5t14.5 2.5t14.5 2.5t11 6.5v135h-5v8q-8 4 -13.5 6t-7.5 4h-20v-5h-18v5h-13v-5h-23v5q-9 -9 -13 -5q0 -10 -2 -13h-3v-43h3q3 -8 0 -16h-3v-15h3q3 -8 0 -15h-3v-31q-3 0 -4 0.5
t-4 -0.5t-9 -3.5t-18 -9.5v-2q-3 -3 -21 -3v-15h5q-2 -2 -2 -6v-5l-5 -156q-8 -2 -13.5 -7t-27.5 -5q-11 7 -21 7v11h-2q-2 9 -2.5 23t-0.5 35q-4 0 -5.5 2t0.5 4q0 3 5 0v5q-23 15 -61 15v38q-5 0 -5 5q0 2 1.5 3t3.5 3v41q-8 0 -5 2q-12 6 -26 8.5t-31 4.5v13
q-2 -2 -3.5 -0.5t-1.5 5.5q0 2 5 2v16q-8 0 -5 5h-38q-5 -5 -8 -5v-26h-5q-10 -10 -5 -10q-21 -8 -36 -8v-2q0 -3 -15 -3v-15h2q-2 -10 -2 -26v-41h-5q0 -10 -3 -13h-23q-11 0 -16.5 -3.5t-8 -8.5t-3 -10t-0.5 -8h-3v-103q3 0 3 -28h-3v-15q2 4 2.5 2t2.5 -7q2 -2 0.5 -2.5
t-5.5 -2.5v-11h3q3 -10 0 -17h-3v-29h3q3 -12 8 -12q9 -2 17 -4t13 -4q0 -3 2 -3q3 0 6 -1t5.5 -5t2.5 -14h5v-56h2q3 -3 3 -13q-13 -5 25 -5v-3q11 0 17 -1t9 -4.5t4 -10.5t1 -20q0 3 10 -7h8q3 0 3 -5q18 0 30 5v5q8 0 8 2v11q-5 0 -3 2q3 3 3 0q0 5 -3 5q-2 0 -2 1
q0 2 2 4q5 13 11 13q7 -7 7 -5q39 0 44 -5v-20h5q3 -24 0 -44q-20 -4 -33.5 -6t-22.5 -2q2 -2 1 -3.5t-6 -1.5v-82q2 5 3.5 4.5t1.5 -6.5q3 -5 -5 -5l-3 -51q-16 -2 -27.5 -4t-21.5 -2q2 -5 1 -7.5t-3 -4.5v-75q2 -2 2.5 -3.5t2.5 -3.5q0 -2 -1.5 -4t-3.5 -4v-10q2 2 2 1v-6
q2 -2 1 -3.5t-3 -1.5v-13q-3 -3 7 -3v-10h21v-2q17 0 24 -4.5t7 -6.5q17 4 29 6.5t22 4.5q0 2 5 2v69h-5v18h5l2 44q2 -2 4 1.5t4 3.5q-2 -3 15 -3v3q10 2 16 3.5t10 3.5q0 16 10 16v7h-5v41h5v11q-5 0 -5 7h5v10h-5v29q10 0 10 5q0 8 2 12t4 6q7 3 17 0v-6q8 2 13.5 1
t7.5 -3q6 -21 8 -31l2 -10h5q0 -6 -5 -3v-10h5v-79q-2 0 0 -2t10 -6q-12 5 16 5v-5q18 -7 28 -7q2 -3 2 -18h6v-52h5v-12q5 5 5 -5h20q0 5 3 5q0 -2 4 -3.5t4 -7.5q12 0 15 -2q2 -17 3.5 -25.5t1.5 -10.5q14 -6 24.5 -8.5t16.5 -4.5q8 13 15 13v13h5q0 8 0.5 13.5t2.5 9.5
q-5 3 8 8h35q0 7 11 7v82q5 0 5 3q15 4 26.5 5.5t19.5 1.5q0 12 10 8zM442 421q3 -11 -3 -15h-46q0 5 -5 5v18h10h34q2 0 5 -4t5 -4zM572 188h-5v-25q-7 0 -7 -3h-49q0 3 -3 3v161q-4 3 -7 0v25h5l2 23q3 -2 3 6q6 2 8 3.5l2 1.5h39q2 -3 2 -8h5v-13q-7 4 -7 -2q3 -13 7 -8
v-118h5v-20h-5v-23q5 3 5 -3zM199 595l-3 -90q-28 0 -41 -5q0 5 -15 5v8h-5v207h5q2 2 2 4q0 3 -2 9q10 4 10 3h31q4 3 10 -3v-8h5q0 -19 0.5 -30.5t2.5 -15.5v-12q-4 -10 0 -13v-59z" />
    <glyph glyph-name="ampersand" unicode="&#x26;" 
d="M629 35q-4 10 -5.5 19.5t0.5 21.5h-3q-5 7 0 15h3v5q-2 0 -5.5 5t-5.5 5q-26 9 -41 6q0 2 -1.5 3t-3.5 -1q0 6 -5 23q-3 12 0 21q-5 -1 -12.5 0t-15 2.5t-14 3t-9.5 1.5v21q10 5 17 6t11 -1v5q17 5 23 5v15h5v36q-5 0 -5 3q-2 2 -0.5 3.5t5.5 1.5v8q-8 0 -5 5q0 2 1 2
q2 0 4 -2v20q3 -2 5 0t2.5 3.5t2.5 1.5q2 -2 5 -2h6q2 2 25 2v5q4 0 6.5 1.5t4.5 3.5v54h-3q-5 12 0 23h3v10h-3q-2 10 -2.5 22.5t-0.5 29.5q-5 2 -7.5 3.5l-2.5 1.5h-33q-5 -3 -6 -9.5t-1.5 -13.5t-1 -12t-4.5 -6q-11 -4 -19 -6t-14 -2v-5q-18 -4 -18 -8q0 -5 -1.5 -9
t-3.5 -6q2 0 5 -3q0 -2 -2 -2q-1 0 -3 2v-12q5 5 5 -5q-3 -3 -5 -3q0 -15 -0.5 -24.5t-2.5 -13.5q-17 0 -29 -2t-22 -4q0 6 -8 6v23h-5q-2 17 -2 43v61q-4 2 -4.5 3t1.5 3q-25 7 -38 7t-15 3v33h-3q-5 7 0 15h3v21q2 0 8 5t12 3v2q10 6 19 8t14 2v13h3l2 23q3 3 36 3v2
q0 3 10 3q0 8 11 8v23q2 0 11.5 7.5t18.5 17.5q2 -2 2.5 -3.5l0.5 -1.5h18v3q7 0 7 5v174q-2 0 -3 1.5t1 3.5h2v15q-2 2 -3 4t1 6q-20 2 -33.5 2.5t-22.5 0.5v13h-5q-5 18 0 38h5v15h-5l1.5 3.5t3.5 9.5h-5q-3 3 -3 8q-8 0 -13 5v2q-14 2 -24.5 3t-16.5 3v5q-13 0 -13 10
q0 5 3 5h3q0 6 -4 5.5t-2 4.5q-2 0 -5 0.5t-7 2.5q-9 4 -13 0q-6 6 -11 8.5t-10 4.5h-38l-2 -3h-47v-5q-5 0 -12.5 -1.5t-15.5 -3.5q0 -13 -2 -15h-5q0 -13 -5 -18q-17 -2 -29.5 -4t-22.5 -4q0 -36 -2 -38q-15 -9 -26 -6q0 -5 -7 -5q-2 0 -2 1q0 2 2 4h-11v-5h-10
q0 -12 -5 -7v-8h5q4 -8 0 -15h-5v-41h5q5 -5 0 -13h-5v-15q2 2 3.5 1t1.5 -7h-5v-17h5q4 -9 0 -16h-5q0 2 1 2q2 0 4 -2q4 -11 0 -18h-5v-64q4 -9 5.5 -17t-0.5 -13q14 -10 23 -10q10 0 18 -6q0 3 5 3q15 -22 10 -51q6 4 6 -5q2 -2 0.5 -3t-6.5 -3v-23q-3 -3 11 -7
q29 -8 46 -8v-10q7 0 7 -3q-2 -2 -7 -2q2 -6 2 -9q0 -2 -2 -4h-26v-3q-6 0 -14.5 -2t-18.5 -8q0 6 -6.5 4t-6.5 4q-15 2 -27 -5t-14 -13v-77q-11 -2 -23 -3.5t-23 -1.5v-5q-2 0 -5 -4t-5 -4v-25h-5v-49h5v-10q5 5 5 -8h-5v-25h-5v-18h5q0 -2 -1.5 -3.5t-3.5 0.5v-38h5v-92h5
v-10h3q2 -6 3.5 -8.5t3.5 -4.5l26 -3l6.5 -4t8.5 -6v-18h3q2 0 3 -2t-1 -6q10 -5 17.5 -7.5l13.5 -4.5q7 0 10 5q0 -5 2 -5q3 0 6 -2t5.5 -9.5t2.5 -27.5q6 0 17 -13q20 2 34.5 2.5t24.5 0.5q27 2 47.5 0.5t34.5 -3.5q0 6 2.5 7t7.5 -1v2q11 0 11 5v72h5v11t2 7
q4 1 11.5 -0.5t16 -3.5t16 -4t12.5 -2v-11h3q2 -4 2.5 -9.5t0.5 -13.5q0 -2 7 -2t13 -5v-6h22q8 0 11 -2t3 -8v-15h5v-8q4 0 18 -7q21 -2 36.5 -3t27.5 -3q0 6 5 6v-6q7 0 11 2.5t6.5 5t4 4.5t4.5 1v26h5zM444 661q-7 4 -7 -7q-48 0 -56 -8q-4 -12 0 -23h5v-15
q-6 0 -6.5 -1.5t1.5 -3.5h-8v2q-20 5 -38 0v-2h-21q4 7 0 7h-3v13h3v18h-13v8q-5 0 -15.5 2.5t-12.5 2.5v-5q-8 8 -13 5q-3 9 -7 5v156h5q2 2 2 15q4 2 4.5 2.5t-1.5 2.5q14 5 24.5 7t16.5 4q0 2 1.5 3t3.5 -1q2 4 2 9v12h3v18q6 4 10.5 5.5t10.5 -0.5v-5h33l7 -8
q0 -8 3 -10h3v-11q-6 0 -6 -2q0 -12 6 -8v-5q8 0 23 -4t23 -4q0 -7 10 -7v-50t2 -35h5v-7q-5 0 -7 -3q-3 -2 7 -2v-26h-7q-5 -5 7 -5v-39zM386 165q-6 0 -18 -5v3q-14 -2 -24.5 -4t-16.5 -4q-2 -6 -2.5 -15t-0.5 -23h-61q0 5 -3 5v10q3 0 3 3q2 2 -3 2q0 8 0.5 12.5t-4 7
t-16.5 3t-38 0.5v5h-6v197h6v13q10 21 10 13q21 0 30 1.5t12 4t2.5 5t1.5 4.5l2 26q11 0 11 5h38q2 4 3.5 5.5l1.5 1.5v-12h5q0 -48 0.5 -78t2.5 -40h2v-13q16 -2 27 -3.5t19 -3.5q0 -13 8 -13h3v-39h5v-10h-5q-5 -8 0 -15h5v-49z" />
    <glyph glyph-name="quotesingle" unicode="'" 
d="M475 756v13h-5q-3 7 0 18h5v15q-7 -3 -7 5q0 9 7 5v16q-10 0 -7 2q2 3 7 3v33q-7 -3 -7 5q0 9 7 5v34h-5q-3 18 0 38h5v15h-5q-3 11 0 18h5q0 8 -4 8q-3 0 -3 10q-20 0 -33.5 0.5t-23.5 2.5q-8 29 -5 41h-15q-6 2 -10 2h-6v3q-69 0 -71 -3q-3 -2 -10 -2v-26h-6
q2 -8 -6.5 -12.5t-8.5 -10.5q-2 10 -3.5 11.5t-1.5 -3.5h-20l-16 -8v-31h3q2 -2 3 -5.5t-1 -9.5h23q2 4 2.5 1.5t0.5 -11.5q12 0 18 -0.5t9 -4.5t3.5 -11.5t0.5 -22.5q8 -4 13.5 -7t11.5 -5v5q7 3 18 0v-5q0 4 13 -6q2 -2 2 -5v-5h3q4 -8 0 -15h-3v-13h3q4 -41 0 -82
q-8 -5 -17 -6t-19 1v3q-10 -6 -16.5 -10t-8.5 -6v-7h5q3 -11 0 -18h-5l3.5 -5.5t3.5 -7.5h3q2 -4 0 -10q7 7 7 -3q10 2 19 2.5t15 0.5q17 0 30 -0.5t21 -2.5q0 8 15 8l3 31q26 14 48 7q0 6 3 9t5 9h5z" />
    <glyph glyph-name="parenleft" unicode="(" 
d="M539 -88q-2 3 -5 3q-2 5 -2.5 14.5t-0.5 23.5q-8 5 -28 5q-9 0 -15.5 0.5t-12.5 2.5v51h-2v38q-6 0 -8 1.5t0 3.5q-18 0 -18 -5v5h-18v5h-15v46h-5v29h5v17h-5v23q-8 0 -5 3q0 5 5 0v26q-21 0 -30.5 -0.5t-5.5 -2.5q0 -1 -4.5 1.5t-9.5 5.5t-9 5.5t-3 2.5q-4 0 0 6
q-4 4 5 7v26h-2q-2 5 -2.5 26t-0.5 56q-7 0 -5 2q-13 0 -15 3v5h-16q-2 2 -2.5 3.5t-2.5 1.5q-12 0 -15 3v7q-8 0 -5 3q0 2 5 2v16h-5q-4 37 0 79h5q-3 0 -5 3v58q5 0 5 3q19 11 41 8v2q2 0 6 5t9 5v41h-5v23h5q-2 2 -3.5 11t-1.5 23q6 9 8 17t2 13h11q2 6 5 8.5t5 4.5h15
q2 0 8 9t8 9v31h-3q-2 2 -2.5 5t-0.5 5q0 8 3 10h3v11t2 7h3v8h-3q-3 9 0 20h3v31h38v2q6 0 9 8.5t9 12.5h-5q-5 7 0 15h5v26q-8 0 -5 2q2 3 5 0l3 23q3 11 38 11q0 5 10 5q0 10 3 12h5v93h-51q-13 -28 -8 -44h-18q2 -2 0.5 -3.5t-5.5 -1.5q-3 3 -3 5q-2 2 -3.5 0.5
t-1.5 -5.5h-13q-5 -6 -9 -10t-6 -8l-2 -26q-6 -2 -11.5 -2.5t-9.5 -2.5q-2 -2 -6 -1.5t-9 4.5q0 3 -13 -5l-1.5 -2t-3.5 -6l-3 -82q-17 -2 -28.5 -3.5t-19.5 -1.5q0 -2 -5.5 -6.5t-7.5 -6.5v-58q8 0 5 -3q0 -3 -5 -3v-23q-20 2 -33.5 1t-22.5 -3v-46h-5v-31q2 0 5 -2
q0 -2 -2 -2q-1 0 -3 2v-8h5q3 -21 0 -41h-5l-3 -15q-13 -5 -38 -5q-5 -5 -8.5 -7t-7.5 -4v-30h3q3 -11 0 -21h-3v-10h3q3 -24 0 -44h-3v-7q4 0 5.5 -1.5t-0.5 -3.5h-5v-13q3 2 5 -3q5 -3 -5 -7v-11h3q2 -2 0.5 -7t12.5 -11q-3 -2 -6 -2v-13h-5v-105l10.5 -3.5t10.5 -1.5v-8
q25 0 29 -2t2 -10h5v-74q5 5 5 -8h-5q0 -28 5 -41q5 0 5 -3q15 -2 25 -3.5t16 -3.5q0 -3 5 -3v-13h5q2 -25 4 -42.5t4 -28.5q13 0 15.5 1t2.5 -12l33 -2v-10h2q3 -3 3 -16q3 3 3 -5q2 -2 0.5 -3.5t-3.5 -1.5q-4 -11 0 -25l3.5 -14t-0.5 -12q6 0 17 -13q5 2 8 2.5t5 2.5
q4 3 8.5 0t9 -9t7.5 -14t3 -15h5q-3 -4 0 -8q6 0 6 -5q13 0 24.5 -1.5t21.5 -6.5q2 -9 3.5 -17t1.5 -13q-6 0 15 -13q5 5 31 5q4 -4 7 8l3 56h5z" />
    <glyph glyph-name="parenright" unicode=")" 
d="M537 293v154q-8 3 -6 5q0 2 6 2q0 20 -2 33t-4 21h6v20h-6v52q-8 2 -13 2.5t-7 2.5q-10 0 -10 -3q-2 -2 -11 1.5t-15 3.5v74h-2q-5 13 0 26h2v8h-2q-2 2 -3.5 4.5t0.5 8.5q-2 2 -3.5 2.5t-1.5 2.5q0 5 5 0v18q-36 0 -49 5q0 -10 -7 7v13h-5q-2 10 -2.5 28t-0.5 44
q-5 0 -2 2l-26 3v2q-10 2 -15.5 3t-10.5 3v12h-5q-2 14 -2 33v44q-14 4 -24 6t-20 2q-4 5 -5.5 16.5t-1.5 26.5q-6 0 -6 5q-17 2 -29 2.5t-22 0.5q0 38 3 38q-2 4 -5 7.5t-5 8.5h-52q-2 -2 -3.5 -5.5t-3.5 -5.5q3 0 0 -7h5q2 -4 2 -16v-28q3 0 3 -5h-3v-8h3v-43
q17 0 29 -1.5t22 -3.5v-23h5q2 -10 2.5 -24t0.5 -35h2q3 -3 3 -10q25 -5 36 -5v-3h5q5 0 5 -5q4 -6 5.5 -13t-0.5 -13h5v-15q2 2 2.5 1.5t2.5 -6.5q0 -8 -5 -8v-69h3q2 -2 2 -7v-11h26v-5l5 5q7 4 15 0v-7h3q5 -12 0 -23h-3q0 -3 3 -3q2 -17 2.5 -42t0.5 -60h5v-8
q15 0 15 -5q-6 2 -2.5 3.5t17.5 1.5v-5q10 2 14.5 0.5t6.5 -3.5v-15h5q2 -3 2 -15q4 -11 0 -21q-1 0 0.5 -0.5t3 -2.5t1 -6t-4.5 -11v-63q0 -25 -2 -42q-5 0 -5 -5q-17 -5 -46 -5q0 -3 -5 -3v-87h5q0 -13 -5 -13v-38q-5 0 -5 -5q-5 1 -12.5 -0.5t-15.5 -3t-14.5 -3
t-9.5 -1.5l-2 -133q-4 2 -7.5 -1t-5.5 -9q-3 2 -3 8q-13 -5 -24 -7t-16 -4v-89q-12 -2 -20 -4t-14 -4q-2 3 -2 5q-12 0 -18 -10v-97q2 2 5 -3t5 -5q14 0 23.5 1.5t14.5 3.5q3 3 6 3v31h5q-5 3 7 12h13v3q4 2 9 2h12q0 8 10 8l2 31q3 0 23 5q6 2 12 3t11 -1v3q5 0 7 1.5
t4 3.5v31q-8 0 -8 2q3 3 8 3v46q3 8 30 8v5h11q13 5 17 9t-2 4v38h-5q0 20 7 31q0 2 8 10q26 15 46 10v13h5v10h-5q-3 7 0 15h5v34h-5q-3 7 0 15h5v44q6 0 13 3.5t13 1.5v5q12 0 20 5q0 10 11 10z" />
    <glyph glyph-name="asterisk" unicode="*" 
d="M657 137v10h-5v11h-7l2 2q4 2 6 2.5t4 2.5v39q-5 0 -5 5q-2 2 -0.5 3.5t5.5 1.5v8h-5v61q-16 3 -21 8l-25 2q0 6 -6.5 8.5t-6.5 12.5q-3 2 -3 20h-36q0 5 -12 5q-12 15 -8 26h-5q-2 4 -2.5 8t-0.5 10l-28 2v3h-23l3 30q15 2 26.5 3t19.5 3v5q7 0 10 2v23h5q-3 9 3 13
q29 8 43 8q0 12 8 7l2 31q2 6 7.5 8.5t13.5 4.5l2 -3q10 0 16.5 2t12.5 6q0 8 5 8v135q-4 0 -5.5 1.5t0.5 3.5q-15 -3 -21 3q-17 -8 -21 -13t-4 -15h-6q0 -18 -2 -18q-17 -4 -29.5 -5.5t-21.5 0.5l-3 -16h-5q0 -12 8 -12q0 -5 -8 0v-18q-10 2 -25.5 -2.5t-25.5 -2.5
q0 -18 -10 -18v-23h-59q-2 2 -3.5 10.5t-1.5 22.5q-3 0 -3 2q-3 8 3 8v46q-3 0 -3 3q0 2 3 2v21h-3q-3 19 0 38h3v8h-3v128h-5q-4 7 0 18h5v41h-5q-4 17 0 35h5q-6 2 -11.5 3.5t-11.5 -0.5v5q-41 0 -55 1.5t-4 3.5q0 -5 -7 -5v5q-8 0 -8 -5v-5h-18v-28q6 3 10 -10
q4 -8 -10 -8v-15q2 2 4 1t4 -7q-3 -2 -5 -2l-3 -59h-3v-33h3v-105q2 2 4 1t4 -6q-4 -4 -8 0v-90h5q4 -11 0 -18h-5v-12h-20v2q-16 2 -27 3.5t-19 1.5v13h-6q-4 6 0 10q6 6 6 8q-2 -2 -5.5 3t-5.5 5q-15 2 -25 2.5t-16 2.5q0 2 -5 2q-8 21 -5 36q-6 0 -8 1.5t0 3.5
q-17 4 -31.5 7.5t-24.5 5.5v33q-4 0 -4 1q0 2 2 4q-49 0 -46 3q0 -41 2 -38h-2v-72h2q5 -5 0 -13h-2v-25q2 2 2.5 0.5t2.5 -3.5q26 -11 43 -8q2 -4 2.5 -6t0.5 -4h2q3 -2 3 -20h5q-2 -8 1.5 -9.5t3.5 -3.5q16 -4 27 -6t19 -4q2 -8 3.5 -16t1.5 -18q6 -4 11.5 -7t9.5 -5
q14 0 22.5 -2t13.5 -4q3 0 0 -7h5q3 -12 0 -16q-17 -5 -29 -7.5t-20 -4.5q0 -13 -8 -8v-36q-5 -2 -16 -2h-25q-4 -4 -7.5 -6.5t-7.5 -4.5l-2 -28q-2 0 -2.5 -1t-15.5 -6v-6h-41q2 -2 -5 -2v-10h2q4 -20 0 -39h-2v-20h2q0 -13 -2 -15h2q2 -6 2.5 -21.5t0.5 -40.5q2 2 5 -3
t5 -5q6 0 13 2t13.5 4.5t12 4.5t7.5 2v18h3q0 10 2 13q14 4 25 5.5t21 -0.5q-2 4 1.5 7.5t8.5 5.5q0 10 -5 5q-3 11 0 18q3 0 5 2q35 17 52 13v5q5 0 10 8v26h5q5 5 36 5q0 -2 7.5 -4.5t7.5 -8.5v-56q4 3 8 0v-187q-3 -3 10 -8q5 -5 -8 -5v-8q1 -3 5 -3t8 0.5t8 0t5 -4.5
v-10q6 2 11 2.5t9 2.5q3 -3 3 -5h18q3 10 25 10v2h13q-4 6 3 13q-2 0 -6 4t-10 4q8 -5 8 5q0 2 1 2q2 0 4 -2t3.5 -2.5t-0.5 -0.5v34h-3q-3 9 0 20h3l2 23h3v44q-5 0 -5 5q2 2 2.5 3t2.5 -1v10q-5 5 -5 8q-3 3 5 3v41q-5 0 -5 5q-2 2 -0.5 3.5t5.5 1.5l2 41h3q2 -6 3.5 -3.5
t1.5 16.5q2 2 6 3.5t9 1.5v5q17 3 29 0v-10h5v-21h2q2 -2 3.5 -3t9.5 -15q2 2 4 2q3 0 9 -2q2 -2 2 -5l26 -2q-2 -2 -0.5 -4t5.5 -2q4 -12 5 -18.5t1.5 -10t2 -6t6.5 -6.5q14 -2 24 -3.5t20 -1.5q-3 -2 0 -5q2 -2 2 -15h6q2 -2 2 -5q0 -2 -2 -8l7.5 -3t2.5 1h41q-3 2 5 2z
M393 907h-2v5h2v-5z" />
    <glyph glyph-name="plus" unicode="+" 
d="M654 380v92q-10 2 -17.5 4t-12.5 4v2q-3 0 -3 -2l-10.5 -3.5t-9.5 -1.5q-10 0 -18 5v2h-26q2 -2 2 -3l-5 -2q-5 0 -7 1.5t0 3.5h-67v-2q-5 -2 -9.5 -3.5t-10.5 -1.5t-10.5 1.5l-10.5 3.5v2q-5 0 -12.5 6.5t-12.5 6.5v64h-5q-4 11 0 23h5v21q-4 -4 -8 2q3 3 8 3v87h-5
q-5 11 0 23h5v7q-8 -3 -8 6q0 5 8 5q0 12 -8 12l3 90h5v5h-5q-2 10 -2.5 23.5t-0.5 30.5h-2v13h2v12q-14 0 -24.5 0.5t-18.5 2.5v5h-31q0 -5 -21 -5q0 -2 -7.5 -4.5t-7.5 -8.5q5 8 5 -8q0 -8 -5 -5v-41q2 2 2.5 1.5t2.5 -6.5q0 -5 -5 -5v-10h5q4 -18 0 -36h-5v-120q3 2 5 -3
q0 -5 -5 -5v-13q2 2 2.5 1.5t2.5 -6.5q-2 -2 -5 -2q0 -8 2.5 -23t2.5 -23q2 2 2.5 1t2.5 -6h-5v-57h-5v-7h5q5 -20 0 -36h-5q0 -15 -2 -18q-16 -2 -27 -2.5t-19 -0.5v-2q-10 -5 -18 -5q-10 0 -18 5v2h-31v-2q-2 -2 -4 -2.5t-4 -2.5q-2 2 -3.5 2.5t-3.5 2.5v2h-11v-2
q3 2 -15 2q2 -2 2 -3l-4 -2q-2 2 -3.5 2.5t0.5 2.5q-6 0 -8 -3.5t-7 -3.5q-6 0 -11 5v2h-23v-2q-2 -3 -23 -3q0 -10 -2 -7v-8q-2 -14 -2.5 -25t-0.5 -21h-5q0 -23 8 -36q6 0 8.5 -1.5t4.5 -6.5q12 5 12 3q16 0 16 -3q7 8 7 3q2 0 5.5 -0.5t5.5 -2.5q48 2 82.5 2.5t57.5 0.5
h13q6 -2 11 -2.5t7 -0.5q2 -5 3.5 -8.5l1.5 -3.5h5v-67h3v-66h-3v-13q2 2 2.5 1t2.5 -6q0 -10 -5 -5v-16h3q3 -21 0 -41h-3v-35q2 2 2.5 1t2.5 -7q0 -5 -5 -5v-10h3q3 -8 0 -15h-3v-11h3q2 -13 2 -33v-48q-12 -5 26 -5v-3q3 0 5 3q17 2 32 3.5t24 1.5q2 -2 5.5 -2.5
t5.5 -2.5q2 0 7.5 2.5t7.5 2.5v76q-6 0 -6.5 0.5t1.5 2.5q0 2 5 2v36h-5q-5 8 0 16h5v5h-5q0 2 1.5 4.5t3.5 8.5q-13 0 -13 12q0 3 8 3v13h5v7h-5q-4 38 0 72h5v31h-5q-5 3 0 12h5v23q-6 0 -6.5 0.5t1.5 2.5q0 5 5 0v13q-5 0 -5 5t5 5l2 26q2 0 3.5 6t9.5 6v-5h13v5h18v-5
h20v5q17 0 30.5 0.5t23.5 2.5q17 -6 35 -6.5t39 3.5q14 2 25 4t16 4zM329 654h-7v7h5q0 -7 2 -7z" />
    <glyph glyph-name="comma" unicode="," 
d="M473 -111v69q-3 0 -3 3q0 5 3 5v13q-3 0 -3 5q-1 1 3 5v7q-5 0 -3 3q0 3 3 3v23h-3q-3 19 0 35h3v34h-3q-3 12 0 28h3l-3 2q-2 0 0 3q-24 8 -33 8h-13h-13q-2 8 -3 13.5t1 11.5h-5v18q-6 0 -10 2.5t-6 2.5q2 -2 0.5 -3.5t-5.5 -1.5q-2 0 -2 5h-54q5 -5 -5 -5q-3 0 -3 5
q-6 2 -10 0.5t-8 -5.5v-31h-5q0 -10 -2 -12h-31q-17 -8 -28 -8v-36q2 3 2 -5h18v-5q14 3 18 -3q-2 3 5 3q0 -2 5 -4t5 -4v-13h6q2 -2 2 -7v-11h5q-2 -2 0 -5q5 -3 5 -7q18 0 21 -3l3.5 0.5t9.5 2.5q12 -5 12 -8v-13h3q0 -5 -0.5 -10.5t-2.5 -7.5h3q2 -9 2.5 -26t0.5 -40h2
q2 -6 2.5 -10t0.5 -8q0 -6 -0.5 -10t-2.5 -8h-49q0 -2 -5 -4t-5 -4v-46q13 0 13 -5q28 0 31 3q19 2 34 0.5t25 -3.5q0 8 7 8l3 25h5v18h25q-8 5 3 5q8 -3 8 -5h7v3q11 0 11 5z" />
    <glyph glyph-name="hyphen" unicode="-" 
d="M657 413v44q-5 0 -5 2q2 2 2.5 4t2.5 2v12q-4 0 -5.5 1.5t0.5 3.5q0 5 5 0v21q-6 0 -8 4l-2 4l-3 -3q-52 0 -90 1.5t-63 3.5v3q-3 0 -3 -3q-38 -3 -79 0v3q-4 0 -6.5 -1.5t-4.5 -3.5l-199 2v3q-27 -4 -47.5 -6t-34.5 -2q-21 0 -36 0.5t-25 2.5q0 -8 -5 -8v-15h2
q3 -3 3 -8t-3 -8h-2v-7h2q8 -10 -2 -13h2q2 -2 2.5 -13t0.5 -28q20 -5 20 -10q33 0 36 -3q0 3 3 3q2 0 2 -3q6 2 25.5 2.5t56.5 0.5v5h33t3 2q2 4 3.5 2.5t1.5 -9.5q15 0 18 -3q21 0 36.5 0.5t27.5 2.5v5q2 -2 9.5 -4t18.5 -4q4 -2 11.5 -0.5t19.5 3.5q28 8 46 -3
q5 2 21 2.5t43 0.5q-2 2 0 3.5t7 1.5v-5q21 0 21 -3q11 0 14.5 1t4 2.5t0.5 2.5q0 2 4 2q2 0 3 -1.5t-1 -3.5h97v5h11q2 2 2.5 3.5t2.5 3.5z" />
    <glyph glyph-name="period" unicode="." 
d="M473 19v13q-5 -3 -5 5q2 2 3.5 2.5l1.5 0.5v23q-5 -5 -5 8q2 2 5 2v8h-3q-2 11 -2 28v43q-2 0 -9.5 2t-21.5 4v5h-26v12h-5v75q-6 2 -9.5 5t-5.5 5q-2 -2 -5 -2.5t-5 -0.5h-41v-5q-11 -3 -21 0v5h-18q5 -4 -7 -7v-49h-6v-13q6 6 6 -5q-3 -2 -6 -2q0 -2 3 -3.5t3 -7.5
q0 -5 -2.5 -6t-23.5 -1q2 -2 1.5 -4t-6.5 -4q-10 0 -5 8h-21q4 -4 -2 -8v-31q2 0 2 -2q0 -5 -2 -3v-112q0 2 7 -5q14 -2 23.5 -3t17.5 -3q4 -11 5.5 -20.5t-0.5 -17.5h6v-51q9 -4 14.5 -6l5.5 -2h15q0 3 6 3q2 0 2 -3h13q0 3 5 3q3 0 0 -3q15 -2 26.5 -0.5t19.5 3.5
q0 10 10 10q0 5 -5 5l3 3l5 64h2q-2 2 6.5 10t29.5 8q0 12 16 5q0 12 5 12z" />
    <glyph glyph-name="slash" unicode="/" 
d="M654 917v123q-8 13 -5 26q-36 0 -58.5 -0.5t-30.5 -2.5v3q-16 3 -23 -8l-3 -77q0 -13 -3 -15q-19 -2 -32.5 -2.5t-23.5 -0.5v-89q-5 -1 -7.5 -3t-6.5 -4.5t-12.5 -4t-24.5 -1.5q0 -4 -10 -8v-133q-10 -2 -16 -3.5t-10 -1.5v-2l-7 -1.5t-21 -3.5v-8q8 0 8 -3q-2 0 -5 -3.5
t-5 -3.5v-23q2 2 2 1v-7q0 -2 -2 -2l-3 -46h-54q-2 -3 -7 -3v-64h5q-4 -21 -5.5 -39t0.5 -35q-3 0 -3 -2q-17 -6 -30 -8.5t-19 -2.5q0 -2 -2 -5t-8 -5v-84q-19 -2 -32.5 -2.5t-23.5 -0.5q-7 -7 -3 -7v-39q5 -3 5 -15q0 -6 -5 -16v-15q2 -2 3.5 -5t1.5 -5q0 -7 -5 -10v-11
q5 -3 5 -7q0 -3 -5 -8v-5q-19 -6 -34 -8.5t-24 -4.5v-133q-2 0 -6.5 -2t-14.5 -8v-3h-36v-14q0 -5 -2 -9h-3v-92q2 2 2.5 1.5t2.5 -6.5q0 -5 -5 -5v-36h3q3 -10 0 -20h-3v-16q2 2 3.5 1t1.5 -3h16v-5q23 -2 39.5 -4t26.5 -6q4 5 9.5 8.5t11.5 1.5v5q4 -2 6 -1t4 3l2 26v38
q-3 11 0 18l3 46q13 8 15 8q8 0 11 -3q14 0 20 6v5h10v115h5l3 25q2 0 6 1.5t12 3.5q12 5 20 0q8 10 12 14l4 4v87q-6 -4 -6 3q0 5 6 5v18q2 2 3 2h2q3 11 30 11v2q2 0 4 1.5t4 3.5q6 6 10 0q0 8 3 11q0 35 2 38h3l-2.5 3t-2.5 5q0 5 2 7h3l3 26l7.5 5t9.5 3v5q12 3 23 0v-5
q4 10 16 10v46h2q0 5 -2 2v62h2q0 17 8 20q14 6 23.5 8t17.5 2q-5 10 8 13l2 69h5v13h11v3q13 4 22.5 6t17.5 4q0 10 3 13v5q-5 20 0 41l3 74q8 2 11.5 3.5l3.5 1.5v5q8 2 19.5 6t21.5 2v38h5l3 44q7 3 7 7q10 4 17.5 5.5t13.5 -0.5v6q2 0 6 4.5t9 2.5z" />
    <glyph glyph-name="zero" unicode="0" 
d="M659 257v85q-5 0 -5 5q2 2 2.5 3.5t2.5 1.5v41q-5 2 -6 2.5t1 2.5h5v8h-5q-3 11 0 23h5v15h-5q-3 10 0 21h5v23h-5q-3 7 0 15h5v10q-5 0 -5 3v199q-2 -2 -3.5 -1.5t-1.5 4.5q0 5 5 5v20q-5 0 -6 0.5t1 2.5t3 2h2v36q4 0 -15 10l-46 3v15q-5 -3 -5 5q0 9 5 6v15h-33
q-35 5 -29 8v38h-5v49q-5 5 -10.5 7.5t-9.5 4.5h-31q-7 7 -7 36q4 2 1.5 4t-12.5 6h-207l-2 -10h-6q-1 3 -1 1q0 -1 -1 -4t-2.5 -5.5t-5.5 -1.5v-13h-5q0 -10 5 -10q-13 0 -15 -3v-5h-44q-3 -33 0 -51v-18q0 3 3 0q2 0 0 -2q0 -3 -3 -3l-2 -20q-20 0 -33.5 -1.5t-22.5 -3.5
q0 -14 -6 -18q6 4 6 -6q2 -2 0.5 -3.5t-6.5 -1.5q0 -7 -0.5 -10.5t-4.5 -5t-12 -2t-23 -0.5v-2q-3 -3 -16 -3v-30h-5h5v-44h-5v-38q5 3 5 -5q5 -8 -5 -8v-13h5v-43h3q0 -6 3.5 -6.5t3.5 -6.5q0 -5 -5 -5l-2 -21h-3v-166q2 2 2.5 1.5t2.5 -6.5q0 -5 -5 0v-46q2 2 2.5 1.5
t2.5 -6.5q0 -5 -5 -5v-72q5 5 5 -5h-5v-13q2 0 5 -6.5t5 -6.5q-4 0 4.5 -1.5t29.5 -5.5q3 7 7 7q2 -4 2.5 -5.5l0.5 -1.5q2 -4 2 -10v-11h6v-66q6 -10 15 -10q18 0 18 2q13 5 23 -5q2 -3 2 -20q2 -5 2.5 -18t0.5 -36h5q0 -6 2.5 -6.5t2.5 -6.5q18 -7 46 -10q4 -26 8 -36
l10 -10h49v5h28q0 -8 5 -8h49q-3 3 7 3v-3q29 2 37.5 1t13.5 -1q4 2 10 2.5t16 0.5l5 9t10 9v20q0 1 3.5 4t8 6t9 5.5t7.5 2.5q3 -3 3 -5q2 -1 6 1t8.5 4t7 4t1.5 1l3 59h5v23q21 6 33 6.5t18 -1.5q-2 2 -1.5 4t6.5 4v41h-5q-5 7 0 15h5l3 23q5 8 10 11.5t7 3.5q4 0 0 -7h11
v5q5 -2 13 6.5t17 13.5zM542 257q-11 0 -11 -5h-21q-9 0 -17 -2v-5q4 -2 0.5 -4t-13.5 -2q-2 -2 -2 -7t2 -8h3v-10h-3l-2 -56q-6 -10 -8 -12.5t-2 1.5q-18 -2 -30 -2h-19q-2 -6 -2.5 -15.5t-0.5 -23.5q-5 0 -15 -1.5t-26 -3.5q-25 -3 -40 0q-2 6 -5 7.5t-8 -4.5
q-6 -2 -11.5 -2.5t-9.5 -0.5q0 2 -7 5v39q-8 2 -22 2h-32q-5 5 -8 3v89q0 6 -18 6v5q-5 2 -15 2h-23q0 3 -3 0v149q-5 5 -7 2v33h5q3 51 0 100h-5v15q7 0 7 6q-3 11 -7 2v13h5q3 20 0 41h-5v13h5q3 7 0 15h-5v31h5q3 7 0 18h-5v5h5l2 33q29 8 44 8q0 13 10 7q0 27 1.5 46.5
t3.5 30.5q20 0 10 13q23 7 33.5 9t14 3.5t2.5 4t-1 8.5h3v13h12v5q16 7 16 3h66h10q-2 2 -1 2q2 0 4 -2q15 -5 13 -8v-20h2q0 -8 4.5 -10.5t18.5 -2.5v-5h16v5h10q0 -3 3 -5v-14q0 -5 2 -7h5v-71q5 -4 9 -6t9 -3t13 -1h20q-2 -2 -1 -2.5t6 -0.5q0 -8 0.5 -13t2.5 -7v-231
q2 -2 4 -3t4 1v-8h-5q-4 -12 0 -23h5v-105h-5q-4 -7 0 -18h5v-64z" />
    <glyph glyph-name="one" unicode="1" 
d="M539 63v5h-2q-5 7 0 15h2v8h-2q-5 7 0 15h2v13h-2q-4 7 0 16h2l-2 2v64h2q-2 3 -2 5q-4 24 0 46h2q-2 4 -3.5 12t-1.5 19q-5 0 -5 5q2 3 5 3v197h-5q-5 11 0 23h5q0 17 -1.5 40t-3.5 54h5v33h-5v52q-5 -5 -5 2q0 5 5 5v110h-3q-3 7 0 16h3v163q-4 0 -5.5 1.5t0.5 3.5h-82
q0 -5 -15 -5v-2q-3 -3 -16 -3v-7h5q4 -4 0 -13h-5l-2 -21q-15 0 -23 -5q-16 0 -27 1.5t-19 3.5q0 -5 -5 -5q-3 3 -3 5h-38l-3 -43q-9 1 -24 -0.5t-31 -3.5t-31 -3.5t-24 -0.5v-5q-4 4 -8 0q0 -5 -5 -5v-8q4 6 8 -5q0 -2 -8 -2v-39h5q6 -4 0 -13h-5v-15q0 -6 9 -6.5t14 -6.5
h23q26 8 59 -2v-3h41v3q25 3 51 0v-3h22t14 -2q0 -2 4 -4l4 -2q2 -5 2 -48q4 0 5.5 -1.5t-0.5 -3.5h-5v-26h5v-66h-5q3 2 5 0v-67h-5h1q2 0 4 -2v-128h5q5 -8 0 -16h-5v-135q5 8 5 -3q0 -8 -5 -5v-158h5q4 -11 0 -21h-5v-20h5v-69q2 2 6.5 -3t6.5 -5h13q0 -8 5 -8q3 3 5 0
q7 4 11 4t7.5 -1t7 -2.5t8.5 -0.5q5 2 10 2.5t7 0.5v5q23 0 18 5q6 17 9.5 33.5t1.5 30.5h2z" />
    <glyph glyph-name="two" unicode="2" 
d="M662 17v33h-3q-3 20 0 41h3v5q-33 0 -36 3v2h-194q2 -2 1 -2.5t-6 -2.5q-5 0 -6.5 1.5t0.5 3.5h-66v-2q-8 -5 -15 0v2h-31v-2q-11 -4 -18 0v2h-49v-2q-11 -5 -23 0v2q-25 2 -35.5 2.5t-10.5 15.5h-5q-3 20 0 41h5v13h5q0 10 3.5 14t17.5 4h31q0 13 5 13v12h-3q-3 10 0 13
h3v13h-3q-3 12 0 15h3v21q5 0 5 5q10 2 29 2h53q0 6 2 7t8 -1v5q18 7 23 7l5 26q-3 4 8 8h38q0 10 10 10v13h5v18q3 0 3 2q10 6 19 8t17 2q-1 0 3 3.5t9.5 9.5t10.5 13t5 15q10 4 17.5 5.5t13.5 -0.5q0 -1 2 2t5 6.5t6.5 6.5t6.5 3l3 16q0 20 18 12v3q13 6 21.5 9.5l8.5 3.5
q11 3 11 7l2 26q8 -2 13.5 -0.5t9.5 3.5v2q4 2 9.5 2.5t11.5 0.5q0 7 10 7v151h-3q-2 3 -2 13t2 13h3v118q-8 0 -5 2q-20 2 -33.5 3.5t-23.5 1.5q-2 2 -3.5 12t-1.5 27q-5 0 -8.5 1.5t-1.5 3.5q-29 0 -46 5q-2 14 -4 23t-4 15q-5 0 -2 3q-6 0 -14.5 2.5t-16.5 2.5v5h-12
t-5.5 3t-2 10.5t-0.5 22.5q-7 0 -10.5 1.5t-5.5 3.5t-3 3.5t-4 1.5q-23 0 -40.5 -1.5t-28.5 -3.5v5q-6 0 -10 -1.5t-6 -3.5v5q-10 0 -24.5 0.5t-34.5 2.5h-56q-27 0 -36.5 -0.5t-4.5 -2.5v3q-11 -2 -20.5 -4t-15.5 -4q-7 -21 -7 -39q-6 -2 -12 -3t-11 1q3 -5 -3 -5
q-2 0 -3 1.5t1 3.5h-11v-5h-12q-4 -12 -8 -8v-87q-20 0 -33.5 -1.5t-22.5 -3.5l-3 -28h-3v-15h3q5 -21 0 -41h-3v-8h3q2 -17 2.5 -44t0.5 -63q5 1 16 -5.5t19 -7.5q0 5 3 5t3 -5h15v5q17 0 29 1.5t22 3.5q0 11 8 8v115q-5 3 0 13v28q-3 0 -3 5q2 2 2.5 3t0.5 -1
q0 14 14.5 18.5t28.5 2.5q5 -5 5 8q2 2 8 3.5t8 3.5l2 23h3q-2 2 -1.5 4.5t6.5 8.5q6 2 11 2.5t9 0.5v-3q16 0 16 -3q17 -2 30 -0.5t21 3.5v-3q14 2 23.5 3t14.5 3q4 3 16 0q5 -2 9 -2.5t6 -0.5q0 11 13 -10q2 -3 2 -16q8 0 5 -2q0 -3 -5 -3q2 2 4 -1l6 -9q13 0 16 -2v-6
q11 -4 20.5 -6t15.5 -4v-8h2q2 -2 2.5 -7t0.5 -10q4 -2 10.5 -7t14 -9t14.5 -6t12 1v-5h5v-43h5q4 -23 0 -49h-5l1.5 -0.5t3.5 -2.5q5 -13 0 -25h-5l5 -5q4 -11 0 -34h-5v-12q-17 0 -29 -1.5t-22 -3.5q-8 -29 -8 -44q-2 0 -2 -5q-17 -2 -29.5 -2.5t-22.5 -0.5v-18h-5
q0 6 1.5 4.5t3.5 -11.5q0 -10 -5 -5v-13q-19 0 -32.5 -1.5t-23.5 -3.5q0 -10 -2 -13h-3q0 -3 3 -3q0 -2 -0.5 -5.5t-2.5 -9.5h3q3 -8 0 -15l-35 -3.5t-24 -1.5l-3 -44h-2q-5 -2 -18 -2h-34q0 -11 -7 -11v-38q-20 -2 -48 -2.5t-65 -0.5q2 -2 1.5 -2.5t-6.5 -2.5q0 -10 -2 -12
q-2 0 2.5 -4t-2.5 -17v-20q3 -17 0 -29v-2q-10 -6 -19 -8t-15 0v-5q-9 -2 -15 -2.5t-10 -2.5v-79h-5v-23q2 0 5 -3q0 -2 -2 -2q-1 0 -3 2v-28h5v-15h-5v-21h5v-28h-5v-18h5v-23q5 -4 10.5 -7.5t9.5 -5.5h31v5q4 -2 10 -3.5t15 -3.5q39 -7 100 0q34 -5 54 0q10 6 10 0
q8 3 10 3q3 0 8 -0.5t16 -1.5t35 -1h16q30 -4 46 0q7 0 7 2l3 -2q13 4 13 0h94q28 11 41 7q28 5 36 0v-5h15v5h16q2 6 3.5 12.5t3.5 8.5h3z" />
    <glyph glyph-name="three" unicode="3" 
d="M659 135v35h-2q-5 8 0 16h2v153q-2 2 -3.5 4t-1.5 4q3 2 5 2v16h-2q-5 7 0 15h2v10h-2q-2 4 -2.5 16t-0.5 33q-2 -2 -5 3t-5 5q-15 2 -26.5 2.5t-16.5 2.5v13q-5 -2 -6.5 -1.5t-1.5 6.5q3 3 8 0v15h-6q-3 13 -7 13q-17 2 -29.5 3.5t-21.5 1.5v13q-2 -2 -4 -0.5t-2 5.5
q0 5 6 5v23q-2 -2 -4 -0.5t-2 5.5q3 3 6 3v15q5 -2 6.5 3t3.5 5q5 2 10 2h10q6 4 13 8.5t21 12.5v25q-9 0 7 8h44q0 5 2 5v225q-2 0 -2 5q-3 3 2 3v13q-2 0 -2 5h-21q-8 -8 -5 -8q-30 12 -33 20q-4 18 -5 18q2 3 5 3v10q-8 0 -5 3q-33 0 -57.5 1.5t-39.5 3.5v5h-11t-6.5 2.5
t-3 9.5t-0.5 21q-12 0 -15 13h-21q2 -2 0.5 -2.5t-5.5 -2.5q-2 2 -2 5q-13 0 -13 -5q-41 0 -54 5q-7 4 -13 -5v5h-120q2 -2 1 -2.5t-3 -2.5q-3 2 -3 5q-5 -5 -31 -5v5q-15 0 -20 -5.5t-3 -7.5v-24q0 -9 -2 -14h-16v5q-2 -3 -2 -5q-26 0 -39 -8v-10h6q2 -2 2 -5q0 -2 -2 -8
h-6v-13q-21 -2 -36 -3.5t-25 -3.5v-144q13 -9 19.5 -9.5t16.5 -7.5v2q35 5 48 -2q10 0 13 5q-4 4 3.5 5.5t17.5 6.5v36q-2 2 -3.5 2.5t-1.5 2.5q0 5 5 5l2 26h3q0 10 2 13h23q10 0 18 2q-4 6 3 13q2 3 5 0q0 10 3 13h2q4 10 7.5 15.5t5.5 7.5q2 0 5 -0.5t5 -2.5
q21 0 30.5 0.5t5.5 2.5v-3q15 0 24.5 0.5t13.5 2.5q16 2 27.5 0.5t21.5 -3.5q6 -2 13 -1.5t12 4.5q2 0 5.5 -0.5t5.5 -2.5q15 -2 26.5 -0.5t19.5 3.5q0 5 15 -10v-16h5q3 -2 3 -15q29 -12 51 -15q2 -10 3.5 -16.5t1.5 -11.5h3v-103q7 4 7 -5q0 -3 -7 0v-38q-8 -2 -14 -2.5
t-12 -2.5q5 -5 -5 -5v5q-2 0 -3.5 -1.5t0.5 -3.5q-11 -5 -23 0v5h-41v-5h-12q-10 -5 -13 -8v-33q-41 -2 -71.5 -4t-51.5 -4q-14 -4 -18 3q-7 0 -13 -6q-2 2 -2 4v2h-74q0 -2 -2 -3l-6 -3v-12h-3v-67h3v-18q4 0 11.5 -1.5t16.5 -3.5t17.5 -3.5t13.5 -1.5v-3q19 0 32.5 0.5
t23.5 2.5v-3h26v3q12 5 15 8q0 -6 5 -4.5t5 -6.5h67v-7h5v-18h5v-13q4 6 8 -3q24 -10 43 -10q14 -2 22 -0.5t14 3.5q8 -2 15 -2.5t13 -0.5v-7h3v-103q4 6 7 -5q0 -9 -7 -5q-2 -10 2 -29.5t3 -29.5h-5v-48h5q3 -8 0 -16h-5v-10h5q3 -8 0 -15h-5v-13q-17 -2 -29.5 -3.5
t-22.5 -1.5q5 -5 -5 -5v-16q5 5 5 -5q0 -2 -3.5 -5.5t-3.5 -9.5q-8 -2 -20 -2.5t-29 -0.5v-2q-20 -5 -43 0v2q-21 2 -36.5 1t-25.5 -3v2h-18v-2q-11 -5 -23 0v2l-51 3v15h-5v21q-2 -2 -3.5 -0.5t-1.5 5.5q-4 2 -10 3.5t-16 1.5q-15 0 -20 6t-5 35h-3q-2 2 -2 10q0 5 2 8h3
v30q-42 12 -67 8v5h-20v-5q-10 -2 -16 -2.5t-10 -2.5v-13q4 7 8 -2l-13 -13v-10q5 3 5 -8q0 -5 -5 -5v-67q8 0 5 -2q0 -3 -5 -3v-15q5 3 5 -5q13 0 16 -3h2q5 0 5 -5q6 2 10 2.5t8 0.5q-2 -3 10 -3v-18h6q2 -6 2 -10v-8q6 -5 13 -8t13 -5q8 0 12 2t6 4q0 -3 2 -3t4 -1.5
t4 -5.5t2 -16h3v-18q10 0 10 -2q4 -4 0 -11q8 2 13.5 1t7.5 -3q-3 2 7 2v-2q22 7 18 7q0 -12 8 -7q37 -4 56 0h13q13 3 13 0q10 7 12.5 3.5t7.5 -3.5h33q14 0 23 2v5h29v-5h15t26 -2q27 -5 43 0q-3 2 10 2v5q11 8 21 8l2 23h3v13h15q0 8 13 8v-6q4 2 10 4t16 2q-4 9 0 12h2
l3 18q2 3 2 5q26 16 46 16q0 15 0.5 24.5t2.5 11.5h2z" />
    <glyph glyph-name="four" unicode="4" 
d="M657 170l-3 3v15h3v59q-3 0 -3 3q-5 3 -13 4.5t-17 2t-17 1.5t-12 2v33h-5v51h5v21h-5v15h5h-5v33h5v8q-5 0 -5 5l5 5v16h-5v30h5v16h-5v20h5v5h-5v49h-2q-5 7 0 15h2v412h-5l-71 3v5h-8v-5q-27 -5 -54 0v5l-1.5 -2t-3.5 -6h-77h-74h-2v-38q2 2 2.5 1t2.5 -7q0 -5 -5 -5
v-18h-6v-5h6q3 -9 0 -20q-6 0 -6 -3q-29 -3 -48 0q-6 -17 -9 -33.5t-1 -30.5h-3v-7h3v-67h-3q-2 -4 -2.5 -6t-2.5 -4q-6 -2 -15 -2.5t-21 -0.5q-11 -3 -15 -7v-16h2q4 -8 0 -15h-2v-10q2 5 2 -5q0 -3 -2 -3l-3 -135q-19 -2 -32.5 -4t-23.5 -4v-51h-5v-10h5v-126q-5 0 -5 -5
q-28 -3 -36 -8q-2 -2 -15 3q-3 -3 -5 -3v-7h2q5 -13 8 -16q0 -2 -10 -12v-13q5 5 5 -3q3 -3 -5 0v-69h2q0 -13 -2 -15h2q5 -23 0 -46h-2v-16q20 -12 20 -15h82q0 3 5 3l3 -3q-5 2 7 2.5t41 0.5q35 0 48 -0.5t3 -2.5q3 3 8 3v-3l17.5 3.5t13.5 -0.5v-3q8 0 13 0.5t7 2.5
q11 10 16 -3q56 0 85 0.5t35 2.5q5 0 10.5 -0.5t7.5 -2.5v-10h5q2 -3 2 -15q3 2 3 -8q2 -2 0.5 -2.5t-3.5 -2.5v-23q2 -4 2.5 -19t0.5 -40h5v-10h5v-8q6 4 15 -5v2q5 5 16 -2q2 0 0 -3h25q0 3 5 3q3 0 3 -3h23v3q7 0 15 5l3 95h3l-3 2q-5 15 0 31q3 0 3 2q15 6 26.5 8.5
t19.5 2.5q-2 2 0 3.5t7 1.5v25h3zM480 370q-2 -3 -2 -15q-5 0 -5 -3q-2 -2 -1.5 -2.5t6.5 -0.5v-84q-10 0 -10 -10q-18 0 -31 -1.5t-23 -3.5v-3h-13q0 2 -5 4t-5 4q-8 2 -23.5 0.5t-38.5 -3.5q0 5 -10 3q2 0 -7.5 -2t-30.5 -6v3q-29 2 -50.5 5t-36.5 5q-8 -5 -16 -5
q0 8 -5 5v13q5 0 5 12q15 -3 21 3q-3 -3 13 -3q5 0 8.5 6.5t9.5 6.5q3 26 0 44q-3 2 -3 0h3q3 25 0 51h-3v15h3l2 67q-4 0 5 10q10 0 18.5 3.5t15.5 8t13 9t10 5.5q0 9 -6 5v12q6 0 6 3q0 12 -6 8v15q6 0 6 3q0 9 -6 5v89h6v23q10 19 10 13h15q-3 -8 0 -8q8 5 5 8h16
q2 2 3.5 4.5t1.5 8.5h2q4 49 0 71q-2 2 -2 3v0h2q4 26 0 49h-2v7h2q5 8 0 16h-2v18h2q2 5 4 11t12 12v-3q31 -2 53.5 -2.5t38.5 -0.5q2 0 4.5 -4.5t8.5 -2.5v-18h5v-182q0 -3 5 0v-28h-5v-33h5v-97q-4 0 -5.5 -1.5t0.5 -3.5q-6 -6 0 -6q5 0 5 -2h-5v-18h5v-72q0 -26 2 -35
v-8z" />
    <glyph glyph-name="five" unicode="5" 
d="M654 152v16h-5q-3 11 0 23h5v43q-8 0 -9 2.5t-1 10.5h-5v21q8 3 8 7l2 23h5v21q-7 -4 -7 5q0 2 7 2v13q-10 0 -7 3q2 2 7 2q0 5 -5 5q-3 20 0 44h5v43q-7 15 -7 26q-3 0 -3 5q-2 2 -0.5 4t3.5 4v74h-18q3 -5 -5 -5l-3 6t-3 4h-25v8h-5q-4 0 0 7q2 3 -16 11q1 6 -1 8.5
t-5 4.5t-6.5 4.5t-5.5 7.5l-25 3q2 14 0.5 23t-3.5 15q-14 4 -23 6t-15 2q-2 2 -4.5 0.5t-8.5 -3.5q-4 0 -7 13h-3q-4 11 0 23h3l-3 2.5t-3 10.5q-2 0 -10.5 1.5t-22.5 3.5q-20 5 -33 0q-8 -2 -21 -2.5t-30 -0.5q2 -2 -5 -2v2q-29 0 -52.5 -2t-45.5 -8v-13h-5l-2 -25
q-12 3 -26 0q-17 -5 -25 -3q0 -3 -8 5v110h-5q2 4 2.5 8t2.5 8v25h-5q-5 13 0 26h5v46q2 0 11 5t15 3q-2 2 -1.5 3.5t6.5 1.5v-5q18 0 20 -3q8 0 13.5 0.5t7.5 2.5t15 -3q25 -5 36 3q36 -5 65 -5t50 2q17 0 30.5 0.5t23.5 2.5q-2 2 0 3.5t7 1.5q2 -2 3.5 -2.5t1.5 -2.5
q14 0 25 -0.5t16 -2.5q37 -2 64 -2t44 5q2 0 5.5 8.5t9.5 8.5q0 18 3 21v38q-2 2 -3 4t-3 4q0 6 6 10v8q-2 0 -3.5 1.5t0.5 3.5q-2 0 -6 0.5t-9 2.5q-6 4 -11 0v5h-20v-5q-6 2 -16.5 0t-24.5 -8q-3 2 -3 5q-13 0 -24 0.5t-16 2.5v5h-13q2 -4 -5 -8q-8 0 -8 8h-13v-5
q-11 -5 -23 0v5h-8v-5q-16 -5 -28 0v5h-10v-5q-51 -5 -102 0v5l-1.5 -2t-3.5 -6l-192 3v5q-17 -4 -29 -6t-20 -2l-2 -31h-3v-15h3q2 -6 2 -10v-8q0 -13 -2 -18h-3v-13h3q2 -5 2 -21v-45q3 2 3 -8q1 -1 -3 -5l-2 -26h-3v-10h3q2 -2 2 -5v-5q0 -10 -2 -13h-3q2 2 2.5 0t2.5 -7
q0 -6 -5 -6v-20h3q2 -3 2 -38h3v-13h-3v-177q10 -2 17 -5t11 -5q0 2 3 4t3 4q8 2 13 3.5t10 1.5q-2 6 -2 8q0 3 2 5h2q0 10 3 12q16 11 20 11v-8h28v5q6 0 8.5 1.5t4.5 3.5v-2h28q10 9 23 5q-3 10 3 10q0 17 3 22.5t20 10.5q15 0 15 -5l14 3.5t12 1.5q12 5 12 -5
q0 2 6.5 2.5t6.5 2.5q16 0 16 -5q17 2 30.5 3.5t22.5 1.5q0 -2 6.5 -4.5t6.5 -8.5v-17h5q2 -10 5 -10q4 0 18 -6v-2q23 0 21 2q2 4 3.5 2t1.5 -12q6 2 10.5 -5t4.5 -13q0 -2 -5 -2v-8q2 2 5 0t5 -10q15 3 46 -5q0 -16 1.5 -27t3.5 -17h6q3 -8 0 -15h-6q-2 -3 6 -3
q3 -8 0 -15h-6q0 -6 2 -8.5t4 -4.5v-87h-6q0 -2 2 -2.5t4 -2.5q3 -53 0 -102q-17 -2 -28.5 -3.5t-15.5 0.5v3q-2 0 -7 -2.5t-11 -8.5v-38h-15v-3h-21q-2 0 -10 -5t-10 -5q-7 -7 -5 -7l-3 -26q-21 0 -35 -1.5t-24 -3.5q0 -3 -2 -5q-10 0 -10 5l-82 2q-5 3 -9 4t-7 4t-5 10.5
t-2 22.5q-4 0 -4.5 1.5t1.5 3.5h-51q-4 14 -5.5 25t0.5 16q-11 11 -21 11v-3q-12 0 -12 3q-6 0 -8.5 -1.5t-4.5 -3.5q-3 2 -3 5q-10 0 -12 2q-4 4 0 10h-6q-2 3 -2 13h-3q-2 3 -2 18q-3 0 -3 3q-7 0 -15 5v-3q2 3 -23 3v-13h-3v-8h3v-15h-3v-5h3v-23h-3v-13q2 2 2.5 1.5
t0.5 -6.5q3 -5 -3 -5v-10h3v-16h-3v-10h3v-15h-3v-5h3q3 -4 0 -13q8 0 8 -5q15 0 26.5 -1.5t19.5 -3.5q2 -10 3.5 -19t1.5 -15q2 2 6 -2.5l4 -4.5h15v-6q23 0 31 -5q2 -9 3.5 -17t1.5 -13h3q1 0 -0.5 -1.5t-0.5 -3.5t6.5 -5t19.5 -6v3q11 3 18 0v-3h118v3q12 4 25 0v-3h31
q0 3 5 3q3 0 0 -3h10v3q12 3 23 0v-3h13v3h10q0 10 13 10v31h3q-5 8 7 13h16v-6h10v6q20 0 15 2q0 14 11 18v13q24 11 40 8q0 2 16 10v28q2 0 2 2q25 11 39 11v2q0 3 10 3q0 7 10 7z" />
    <glyph glyph-name="six" unicode="6" 
d="M658 109v161h-3q-2 3 -2 8q0 7 2 10h3v26q-5 0 -5 5q2 2 5 2v46q-5 0 -10 5t0 13h5v8q-10 0 -5 5h5v28q-5 0 -5 5l10 10v52q-5 0 -5 2q-3 3 5 8v41h-3q-2 0 -2 7h-31q-13 8 -26 8v26h-2q-2 2 -2.5 7t-0.5 11h-15v5h-25t-12 2.5t-4 9.5v21h-5q-3 3 -3 8q-25 2 -38 3.5
t-15 1.5q-11 0 -11 -3q-11 -3 -15 3v-3q4 0 -21 0.5t-79 2.5q-19 2 -36.5 0.5t-34.5 -3.5v-5q-8 -3 -16 0v5h-10q6 -4 -2 -7q-2 4 -4 5.5l-2 1.5q-7 -25 -7 -38q-10 -2 -13 -7.5t-5 -7.5q-21 0 -33 5v5q-16 0 -16 2v59h-2q-5 7 0 15h2v133h5v18h21v3h15q2 6 6.5 9.5
t14.5 3.5l2 30q12 12 23 8h46q18 0 23 -2q2 0 6 3.5t10 3.5q8 0 5 -5q28 0 30 -2q16 2 26 3t15 -1v-2q10 2 22 3t30 -1v-8h5q2 -8 2 -21v-30q2 -5 3.5 -12.5t-0.5 -12.5h5v-8l31 -8q0 -2 2.5 -2.5t2.5 -2.5q10 0 15 -5v-18h5q2 -4 2.5 -7.5t0.5 -5.5q9 -9 18 -12q5 2 10 2
h10q12 8 15 -2q29 5 44 8.5t13 3.5v16q-2 0 -5.5 3.5t-5.5 3.5q0 3 11 3v20q-5 0 -5 6q-5 0 -7 -2l-4 -4v6q-8 0 -17.5 1.5t-23.5 3.5v10h-2q-5 7 0 15h2v23q-2 -2 -3.5 0t-1.5 8q0 3 5 3q-2 5 -3.5 13t-1.5 20q-7 3 -5 5q-6 -2 -11 -2.5t-7 -2.5q-5 4 -10.5 6t-7.5 4h-15
v28h-5q-2 10 -2.5 23.5t-0.5 32.5q-8 0 -12 6v2q-6 -2 -5.5 -2.5t-7.5 -2.5q-3 3 -3 5h-22t-14 -2l-1.5 -0.5t-5.5 -2.5l-5 5h-69v5q-36 -11 -54 -7v2q-8 0 -8 -2q-2 0 -2 2h-6t-10 -2v2q-11 0 -16 -0.5t-7.5 -1t-3 -1.5t-3.5 -2l-6 5h-84q-3 -2 -8 -2v-18h-5q2 -4 2.5 -6
t2.5 -2q0 -5 -5 0v-13q-4 0 -15 -8q-9 -4 -13 3q0 -5 -13 -5v-3h-12q-5 -13 -8 -10q0 -2 5 -2q4 -11 0 -18h-5q2 -3 5 -3q4 -12 0 -23h-5q-3 -2 5 -2q4 -9 0 -16h-5v-18q-6 0 -8 1.5t0 3.5q8 -2 3.5 -3.5t-21.5 -1.5q3 -2 -5 -2q-2 0 -2 2h-8v-2q4 -2 0 -4t-15 -6v-213h5
v-30h-5v-39h5v-28h-5v-261h5v-51h-5q-3 -3 5 -3v-66h-5q0 -6 2.5 -21t2.5 -25h5v-8q8 0 23 -2.5t23 -2.5q0 -2 5 -2q2 -6 2.5 -8.5t0.5 -4.5q2 -2 2 -8v-10q2 2 6 -3l4 -5h21q9 -4 14 -6.5t7.5 -6t3 -9.5t0.5 -16h5q2 -8 4 -6.5t2 -6.5q38 -4 80 -6t88 -4q10 0 24 2.5
t22 2.5v5q12 5 23 0v-5h29v5q10 4 18 0v-5h7q0 -3 3 -5q5 5 36 5v5q8 2 13.5 2.5t11.5 0.5q2 5 2.5 7.5t0.5 4.5h2v26q14 6 18.5 9.5t2.5 3.5q0 -2 3 -2q4 0 2 -6h15v5q2 0 6 4t10 4l2 25q-2 3 3 5t13 4.5l16 5t12 6.5q5 0 10 5zM545 168q-5 -4 -8.5 -7.5t-1.5 -5.5h-46v-8
h-5v-28q-5 0 -15 -15q-5 2 -18 3.5t-34 1.5v5q-12 0 -7 -5q-8 1 -23 -0.5t-31.5 -3.5t-31.5 -3t-24 2q-6 2 -15.5 3.5t-23.5 1.5v5q-8 0 -5 -5q-15 0 -20 5q3 8 0 8h-3v10q3 0 3 3q2 2 0.5 3.5t-3.5 1.5q0 10 -2 12q-17 2 -29 3.5t-20 -0.5q-2 6 -5.5 9t-7.5 1v23h5v100h-5
v26h5v12q-2 3 -5 3q5 0 5 3q0 10 -5 10q10 0 5 5q0 10 -5 5v13h5v30h-5v11h5v15q-2 3 -5 3h5q0 7 -5 7h5v16h-5v10h5v20q10 10 20 13t32 5q0 10 5 5l2 26q0 2 5 6.5t5 6.5h90q0 -3 15 5v-3l26 -2q-5 -5 8 -5q8 0 5 5q28 0 46 5l2 -1.5t8 -3.5v-5h31q-3 -3 2 -8q0 -18 3 -21
q17 -13 30.5 -18t17.5 -5q0 -8 8 -5v-15h5q0 -31 0.5 -53.5t2.5 -36.5h2v-7h-2q-5 -16 0 -31h2v-15q-5 0 -5 -3q-2 -2 5 -2v-23h-2q-5 -5 0 -13h2v-10h-2q-4 -11 0 -18h2q0 -2 -1.5 -4t-3.5 -7q-3 -3 3 -7h2v-13h-2q-5 -5 0 -13q2 2 3 1t-1 -3h-2q-5 -8 0 -16h2v-20z" />
    <glyph glyph-name="seven" unicode="7" 
d="M654 797v194q-2 0 -7.5 4t-7.5 4q-8 2 -17 1t-19 -3q-29 -2 -50 -2t-37 4q0 8 -15 -8q-4 -3 -10 0q-6 5 -8.5 6.5l-2.5 1.5q-40 2 -66.5 1t-40.5 -3v2h-50t-32 -2q-37 -5 -69 2v5q-23 -8 -23 -5h-33t-18 -2q-16 0 -16 2q-25 0 -28 -2q-2 2 -13 2h-28q0 -2 -10 -2v-70
q2 5 2.5 3t2.5 -8q0 -8 -5 -5v-23q6 0 11 -1.5t7 -3.5v3q11 3 18 0v-3h18v3q11 3 18 0v-3q43 0 46 -2q3 7 15 7q10 0 5 -5q21 0 23 -2h25t19 2q2 2 5.5 1t9.5 -3v2q5 -2 10 -2q49 0 52 2q17 0 17 -2h30q14 0 22 2v-2q17 0 20 2q2 -2 5 -2h5q14 -5 41 2q27 4 46 0q-3 5 5 5
q4 0 0 -7h5q2 -5 2.5 -8t0.5 -5v-62v-2q-8 -8 -33 -8q5 0 0.5 -2t-21.5 -8v-84h-10q0 5 -2 3.5t-8 -9.5q-10 -2 -17.5 -0.5t-13.5 3.5l-5 -2.5t-5 -7.5v-18q0 -6 -0.5 -11.5t-2.5 -9.5q-5 2 -14 0.5t-19 -5.5v-5q-4 -2 -10 -2h-13v-29h-2q2 6 2 4v-11q0 -8 -2 -5v-44h2
q4 -8 0 -15h-2v-13h2q4 -12 0 -23q-17 -2 -29 -2.5t-22 -0.5q0 -5 -8 -5v-319h3q3 -5 0 -13h-3v-13q2 4 2.5 2.5l2.5 -7.5q0 -5 -5 -5v-80h3q2 -4 2 -17v-36h3q2 -4 0 -10q4 -2 6 -4l4 -4h72v5h15q0 8 10 8q-2 2 0 5t8 5h-5q-4 11 0 23h5v15h-5q-4 24 0 46h5q-5 8 -8 8
q0 5 8 5v5h-5v62h5q0 4 -1.5 5.5t-3 2.5t-2.5 3t-1 7q-2 0 -2 5q-3 2 2 2v187q-7 0 -2 5h2l3 67h5q0 17 6 21t27 4q0 2 8 10q4 0 6 1.5t4 3.5q-2 2 -1 5t6 8h-5v28h5v18q-5 0 -5 5q3 3 5 3q0 10 -5 10q0 3 5 3v43q6 4 13 5.5t13 -0.5v5h15v-5h13v5q4 2 17.5 2.5t36.5 0.5
q0 6 2 6.5t8 -1.5l3 125q0 17 17 13q26 13 36 13zM120 925q-7 11 -11 8h6q0 -8 5 -8zM122 912h-2v3h2v-3z" />
    <glyph glyph-name="eight" unicode="8" 
d="M659 168v10h-5v69h5v15h-5v172h-2q-3 2 -3 7q-17 0 -30 2t-21 4q-5 8 -5 38q-16 13 -51 13q2 -2 -5 -5q0 -3 -11 7v21h5v23q-6 -1 -14.5 0.5t-17 3.5t-15 4t-9.5 2v26l12 3t6 -1q-3 8 8 8v-8h7v5q3 3 13 3q0 5 10 5l3 20q0 11 3 13q26 20 51 10q0 6 5 6v30q5 0 5 3
q54 7 51 10l3 41h2q0 3 -2 3q-2 13 -2.5 32t-0.5 44q-4 2 -5.5 2.5t0.5 2.5q0 3 5 3v5h-5v15q-14 2 -23.5 4t-17.5 2v2q-10 0 -15 5q-4 23 0 39q-29 4 -44 5.5t-13 1.5q-5 6 -6 13.5t1 17.5h5q-2 6 -3.5 9.5l-1.5 3.5h-18v2h-7q2 -2 -5 -2l-3 2h-13v-2h-15v33h3v10
q-6 4 -10 7.5t-8 5.5h-21q5 -5 -5 -5q-5 0 0 5h-10v-5q-12 -5 -23 0v5h-64q3 -5 -8 -5q-10 0 -5 5q-15 -8 -15 -5h-67q5 -5 -5 -5v-28q-2 -3 -2 -6q-26 -10 -39 -10v-2h-13q-3 -11 -7 -11v-28q-5 -3 -5 -5q-17 0 -29.5 -1.5t-22.5 -3.5v-19t-2 -14q-3 0 -3 -5q-24 -8 -35 -8
v-2q2 2 -16 2v-13h-5v-7q5 0 5 -3q-2 -3 -5 -3v-71q5 0 5 -5h-5v-13h5q5 -8 0 -13h-5v-7h5v-13q2 4 2.5 2t2.5 -7q14 -2 25 -4t16 -4v-8h5v-13h3q2 -2 2 -7v-10q16 -6 29 -8.5t23 -4.5v-10q-3 -3 10 -3q2 -4 2 -10v-10q11 -11 29 -11v-5q21 0 22 -3.5t1 -9.5h2q4 -8 0 -15
q-38 -6 -51.5 -8t-2.5 -2l-2 -44q-14 -2 -27.5 -4.5t-28.5 -7.5v-29h-6q0 -10 -2 -12h-23q0 -6 -5 -6v6q-10 -2 -16 -4t-10 -2v-107h-5v-8q5 5 5 0v-181q-2 0 6 -1.5t25 -3.5v-5h15q2 5 6 -4.5t4 -18.5h6v-13q5 5 5 -5q14 0 22 -0.5t13 -2.5q0 -2 7 -2.5t9 -2.5q8 -24 5 -36
q5 0 5 -2l26 -3q5 -4 9.5 -6t10.5 -2q4 0 0 -7h5v-23h5q3 -3 3 -8q18 -4 18 -8q138 4 207 0q0 8 10 8v31h5v12q4 7 28 3v-3q15 0 23 8q9 27 6 39q17 0 29 1.5t22 3.5v2q4 2 6 2.5t4 2.5l3 23h2q0 16 5 16h41q-2 2 -0.5 3.5t5.5 1.5v23h5zM534 702q-6 0 -11.5 -3.5
t-11.5 -8.5v5h-28q-13 -8 -8 -8v-31q-10 4 -10 -10q-23 0 -26 -2q0 7 -12 2q-3 -2 -23 -2q-58 2 -102 3.5t-75 1.5v38q-2 3 -25 3q0 9 -0.5 11.5t-2.5 -1.5h-26q0 5 -2 8h-5v109h5q2 8 6 10.5t4 7.5h41q3 3 3 8h2q0 14 1.5 23.5t3.5 14.5q14 0 22 2t14 4v-6h59v6h23
q-6 -6 8 -6q8 0 2 6h15v-6q24 -3 44 0v6h36q-2 -2 1 -4t9 -2v-12h3q0 -12 7 -34h51v-15h5q-2 -3 3 -8v-53q-4 -38 0 -57zM547 285h-5q-4 -13 -6 -19l-2 -6q2 -11 4 -20.5t4 -15.5v-51h-5q-3 -3 -3 -21h-8v-5q-42 0 -46 -7v-34q-8 0 -5 -5q-5 2 -17 1t-29 -3q-42 3 -61 0
q-7 3 -41 0q-2 -2 -24 -1t-63 3q-6 0 -6.5 6.5t-6.5 6.5v33h-46v5h-15v8h5q3 28 0 51h-5v18h5q3 5 0 13h-5v13h5q3 19 0 33h-5v26h7q0 12 -7 5v7h5q3 12 0 16h-5v10h5l2 77q6 0 11 1.5t7 3.5v2q25 11 36 11q3 2 5 2v31q6 0 8 2.5t8 2.5v-3q8 2 30.5 2.5t61.5 0.5q0 -3 2 -5
q5 3 5 5q38 -2 67.5 -3.5t50.5 -1.5q-2 -2 0.5 -7t4.5 -11h5v-15h5q3 2 3 -13h48q0 -16 3 -18q0 -6 0.5 -10t2.5 -8h5v-5h-5q-5 -23 0 -46q7 3 5 -3h-8q0 -2 8 -2q-2 -20 -0.5 -33.5t5.5 -23.5z" />
    <glyph glyph-name="nine" unicode="9" 
d="M660 147v197h-5q-3 16 0 31h5v61h-5q-3 8 0 16h5q-2 2 -5 2q-3 12 0 23h5q0 14 -5 11q0 2 1.5 3t3.5 -1v36h-5v56q-5 0 -5 5q0 3 5 3v141h-5v20h5v5h-5v15h5v29h-5v20h5v10h-5q-3 0 0 8l-33 3v2l-26 3v41q-5 0 -2 2q-17 2 -29 2.5t-20 2.5q0 4 -1.5 5t-3 3.5t-2.5 9
t-1 21.5q-12 0 -7 5h-16v2q-28 5 -40 5v36q-12 12 -26 8v5h-8q5 -5 -7 -5q-9 0 -6 5h-33v-5q-3 -5 -28 -5q0 5 -15 5v5h-36q-3 0 -10.5 -2t-16.5 -4t-17 -3.5t-12 -0.5v5q-6 -2 -11.5 -2.5t-9.5 -2.5q-2 -14 -2 -24v-15q-12 0 -20 -1.5t-14 -3.5q3 -2 -5 -2l-2 2h-8v-2
q13 -5 -10 -5q6 -8 2 -34q-14 -4 -23 -6t-15 -4q-2 2 -2.5 3.5l-0.5 1.5q-2 -2 -13 -2q-10 0 -10 -5q-2 -12 -2 -22v-14q-17 -2 -29 -4t-20 -4v-2q-2 0 -5 -3t-5 -3v-15q5 5 5 -5q5 -8 -5 -8v-13q5 5 5 -5q0 -2 -1.5 -3t-3.5 1v-36q5 5 5 -5q0 -3 -5 -3v-48h5q5 -5 0 -13h-5
v-38h5q-2 -6 -2.5 -10t-2.5 -6h5q4 -8 0 -15h-5q-5 -5 5 -5v-69h3q3 -17 0 -28h-3v-11q3 3 5 0q2 -2 2.5 -3.5t2.5 -1.5l26 -2q0 -2 5 -8t5 -8h5q5 -20 5 -30h3q3 0 3 -8l25 -3v-2h49q5 5 7 5q3 -3 0 -5q12 0 19.5 -0.5t11.5 -2.5v-10h3q2 -3 2 -15q6 0 10.5 -9t10.5 -9
q24 -5 56 2q2 -2 2.5 -3.5t2.5 -3.5q16 2 38 2h54h30t21 -2q3 3 4.5 4t3.5 2.5t5 4t10 7.5v25q2 4 10.5 6t25.5 2q14 -2 17.5 -9t3.5 -17q2 3 5 0v-161q2 2 3.5 1.5t1.5 -6.5q0 -2 -2 -2q-1 0 -3 2v-18h5q-4 -23 -6 -40.5t-2 -31.5h-18v-5q-21 -2 -31 -7t-10 -11v-25
q-20 -5 -25 -5q-10 3 -13 0q-56 0 -86.5 -0.5t-36.5 -2.5q-11 -3 -15 3q-30 3 -49 0q0 -6 -15 2l-2.5 3t-5 23t-2.5 64q-5 0 -3 2q-17 0 -30 2t-19 4v5q-12 0 -12 7q-4 18 0 36h5v36h-5q-2 4 -2.5 7.5t-0.5 5.5h-43q0 -2 -5.5 -3.5t-5.5 -7.5q-11 -3 -15 0q0 2 -6.5 5.5
t-6.5 5.5h-23q0 -8 -5 -8v-8h3q3 -7 0 -18h-3l2.5 -2.5t2.5 -4.5q0 -5 -5 0v-59q10 -4 17 -2.5t11.5 2.5t6 0t1.5 -10q3 2 15 -3l5 -5v-10h3q3 -3 3 -10h5v-57q4 0 11.5 -2.5l15 -5t14 -5t10.5 -2.5v-10h2q3 -3 3 -16h2q3 -2 3 -10q17 -2 29 -4t22 -4v-12h5v-23h3
q2 -3 2 -13q10 3 13 -3v3q20 0 50 -2t70 -6q4 -3 11 8q19 0 32.5 -0.5t23.5 -2.5q14 2 23.5 4t14.5 4v33q1 1 1.5 3t3 3.5t8.5 2.5t18 1v-5h10v5h69q6 0 5.5 6.5t5.5 6.5l2 69q3 1 3 3t2.5 3.5t9 3t21.5 1.5v5h10q0 7 10 7zM540 564h-2q-3 -2 -3 -13q-4 -2 -11 -3.5
t-17 -1.5q0 6 -13 3q0 -2 -3.5 -4t-1.5 -4h-8v-28h-5q-2 -6 -2 -9v-4q-24 -8 -34 -5v3q-29 2 -51.5 0.5t-37.5 -3.5q-4 6 -15 3q-12 -4 -23.5 -4.5t-23.5 1.5q-19 2 -34.5 4t-26.5 4v38h-15v3q-17 3 -25 5t-11.5 3.5l-3.5 1.5q0 1 -1 0v15q-6 0 -6.5 1.5t1.5 3.5h5q3 9 0 16
h-5v31h5q3 10 0 17h-5v11q8 0 5 7q0 6 -1.5 6.5t-3.5 -1.5v39h5q3 7 0 15h-5v10h5q3 9 0 16h-5v10q2 -2 3 -2q2 0 2 2q-3 3 -5 3v10q7 0 5 2q0 6 -1.5 6.5t-3.5 -1.5v21h5q3 19 5 28t3.5 12t2 2.5t-0.5 0.5h41q6 2 7 8t3 8q-2 5 -2.5 7t-2.5 -2q0 15 6 19t4 6h41q0 -2 3 -5
q2 2 3 2.5t-1 2.5h30q14 0 22 -2q0 2 6.5 1t8.5 7h46v-6q19 -3 38 0q0 6 3 6q0 -6 2 -6q8 0 8 6v-6h15q2 0 5.5 -4.5t5.5 -2.5q0 -28 7 -39q16 -2 27 -2.5t17 -2.5q0 -8 7 -5v-18h3q0 -15 0.5 -24.5t2.5 -13.5h2v-5h-2q-5 -8 0 -21h2v-5q-2 3 -5 0q2 -2 2.5 -3.5t2.5 -3.5
v-29h-2q-4 -9 0 -20h2v-21h-2q-5 -15 0 -30q8 3 2 -3q-2 0 -5 -2l5 -5v-13q-5 0 -5 -3l5 -5v-20h-5q-2 -2 -0.5 -3t5.5 -3v-10z" />
    <glyph glyph-name="colon" unicode=":" 
d="M470 661v141q-13 13 -15 13h-23v-5q4 2 0 3.5t-18 1.5q-8 50 -10 46h-44q0 -3 -5 -3l-3 3h-58l-3 -26h-5v-15q-4 0 -11.5 -2t-16 -4t-16.5 -3.5t-12 -0.5v-149l12.5 -6t28.5 -6v-3q11 0 15 -10v-21q2 3 5 0q2 -2 2.5 -3.5t2.5 -1.5q4 0 0 -7q-17 -5 26 -5v-6h15v6
q37 3 56 0q16 10 21 23q0 7 -5 7q3 0 4.5 3t3.5 6t4.5 6t7.5 3v3q8 2 13.5 3.5t9.5 1.5v-5h8q0 3 10 12zM478 181h-5q-5 7 0 15h5v23h-5q-4 11 0 20h5q0 6 -5 6q-2 9 -2.5 24.5t-0.5 36.5l-26 2v3l-30 3q-5 8 -5 35h-3q-2 0 -2 8q-2 0 -8 2.5t-8 2.5q2 -2 2 -3l-4 -2
q-3 3 -3 5h-13q2 -2 0 -2.5t-7 -2.5q-4 0 -5.5 1.5t0.5 3.5q-22 0 -37 -1.5t-25 -3.5q3 -2 -2 -2q0 -14 -0.5 -25t-2.5 -16q-17 0 -29 -0.5t-22 -2.5q2 -2 1 -2.5t-6 -2.5v-82h-5q8 -36 5 -43h-5v-16h5v-7q2 2 5 -3t5 -5q38 0 41 -3q8 -24 8 -35q5 -6 9 -8.5t8 -4.5
q6 2 11 2h10q12 8 15 -2h30q14 0 24 2v5q2 0 6.5 5t6.5 3v23q5 -2 6 3t7 5q40 0 28 5l15 8q2 8 4 13z" />
    <glyph glyph-name="semicolon" unicode=";" 
d="M501 692v21h-5q-5 7 0 15h5v18h-5q-2 8 -2.5 19.5t-0.5 28.5q-2 0 -3 2t1 6q-5 0 -8.5 1.5t-7.5 3.5v-2q-10 2 -17.5 2.5t-13.5 2.5q-8 14 -10 24t0 19q-5 0 -5 -5q-11 -3 -20 0v5q-8 2 -13.5 2.5t-9.5 2.5q-19 -7 -28 -2v2q-23 0 -31 -5q2 -2 1 -3.5t-6 -1.5v-38
q-16 -2 -27 -3.5t-19 0.5q-4 -4 -8 -6l-8 -4v-97h3q2 -3 2 -8q0 -2 -2 -5h-3q0 -2 2.5 -3.5t2.5 -6.5t-2 -8h-3v-15q4 3 8 -8q10 -4 15.5 -6t10.5 -4q0 5 5 5q9 0 13.5 -5t4.5 -21h5v-12h2q2 -2 2.5 -5.5t0.5 -5.5q20 -3 20 -7q33 8 77 5q2 -4 2.5 -2t0.5 10h12v17h3
q0 11 2 13l7.5 3.5t28.5 9.5q-2 2 1.5 4t3.5 4q5 3 8 0l3 43h5zM506 245q-2 2 -2.5 3.5t-2.5 1.5q0 2 5 2v31h-5v66q-12 0 -8 6h-18q2 -2 0.5 -4t-5.5 -2v2t-2 4q-10 0 -14 0.5t-12 14.5h-3q0 6 0.5 11t2.5 7q4 0 -15 13h-29v5q-12 0 -12 -5h-59q0 -18 -3 -21h-2v-23
q-5 0 -5 -2q-13 0 -11 2q-5 -2 -13 -2h-17q0 -2 -5.5 -5.5t-5.5 -5.5v-5h3q4 -8 0 -15h-3v-123q-2 -2 16 -13q5 2 10.5 2.5t7.5 2.5q19 5 23 -5v-23h2q5 -13 0 -25h-2v-16h2q5 -3 0 -12q-9 0 -13 -11q-5 0 -6 1.5t1 3.5h-20v-5q-6 -2 -11 -2h-10v-16h3q4 -9 0 -20h-3
q0 -8 -2 -8q-17 -2 -30.5 -3.5t-23.5 -1.5l-2 -18h-5v-13h5q2 -5 2 -8v-4l10 -10t8 -6h23q10 0 15 -2h49q-3 2 8 2v-2h28l1.5 1.5t6.5 3.5q-3 -3 15 -3q4 6 7.5 10t5.5 6l2 25h13v5q6 0 11.5 5t11.5 3q-3 3 0 3q4 0 9 5t9 5v105h-3q-2 2 -2 7q0 6 3.5 15t24.5 11
q2 -4 2.5 -6t2.5 -2q21 8 31 8v49h5z" />
    <glyph glyph-name="less" unicode="&#x3c;" 
d="M653 2v43h-16v5q-7 0 -7 -5q-4 4 -3 5q-8 2 -13.5 5t-9.5 5q-11 18 -8 34h-2q-3 2 -3 7h-15v5q-29 0 -39 6.5t-10 37.5q-4 2 -14 2h-24q0 6 -6.5 5.5t-6.5 5.5q-2 9 -3 17t1 13q-6 0 -8.5 6.5t-4.5 6.5h-44q-11 20 -7 31h-3v13l-25 2v5q-16 0 -19.5 3t-3.5 13q-3 0 -3 5
t3 5v10h-3q-5 0 0 8q-6 2 -9.5 3.5l-3.5 1.5q-15 -2 -26.5 -1t-19.5 3v31h-2q-3 3 -3 10l-34.5 4.5t-16.5 5.5t-5 12v24h-3q-2 2 -2 5v6h-36q3 -5 -3 -5q-2 0 -3 1.5t1 3.5q-6 0 -10 3.5t-6 3.5v57h5l3 18q5 0 8 2q2 0 2 -2q20 0 27.5 2t9.5 4t2 4t5 2v16h5q0 17 2.5 20
t2.5 5h15v-2h16v2q5 0 9 2.5t6 2.5q0 11 3 13h2q0 6 0.5 11t2.5 7h2v13q2 2 9 2h17v6h15q14 5 17.5 8.5t-1.5 3.5q0 17 4 21.5t29 4.5q0 2 3.5 5t11.5 5v13h3l2 25q12 12 39 8q0 8 18 8v28q2 2 2 7q0 6 5 6h23v5q3 2 21 2q0 6 7 6l3 25h5q14 8 27.5 16t23.5 2q2 4 2.5 6
t2.5 4l3 23h2q-2 3 6 11q35 0 33 2q-6 6 -2 7t4 3q11 0 11 5v41q-8 0 -6 3q-12 0 -15 2v6q-5 0 -5 -6q-5 -3 -15 0v6h-11v-6q-13 -4 -25 0v6h-10q4 -6 -6 -8q-8 0 -5 8h-20q2 -6 -4 -6t-6 -2q-31 -4 -46 0l2 -3q14 -9 0 -12h-2v-23h-5v-6q-18 -3 -21 3l-17.5 -3.5t-13.5 0.5
q-11 -26 -7 -43q-3 2 -3 -5q-10 0 -17.5 -0.5t-13.5 -2.5q0 -5 -7.5 -6.5t-7.5 -3.5q-2 -14 -2 -24v-14h-13q3 -5 -5 -5q-3 2 0 5q-6 0 -18.5 -2.5t-20.5 -2.5v-13h-2q-3 -3 0 -5q2 -3 2 -8t-2 -3q0 -15 -3 -17q-19 0 -30.5 -2t-15.5 -4v-2q-13 -5 -15 -5v-36
q-16 -2 -27 -2.5t-17 -0.5q0 2 -10 -7q0 -14 -0.5 -22t-2.5 -14q-2 2 -3.5 0.5t-1.5 -3.5q-17 -5 -29 -7.5t-22 -4.5q0 -10 -5 -13q5 3 5 -5q2 -2 0.5 -4t-5.5 -2q0 -12 -2 -15h-13q0 -2 -5 -2q-3 -3 0 -6q-8 -3 -16 0v3h-20q-8 -8 -5 -8v-69l2 2q1 0 3 -4q0 -3 -5 -3v-20
q2 2 2.5 0.5t2.5 -3.5q0 -2 -5 -2v-54h5v-46q17 -6 30.5 -8t23.5 -2v-8q4 5 7 -8q4 -7 -5 -7v-6q7 0 10 -5v-7q5 0 5 -5q14 -5 23.5 -6.5t17.5 -1.5v-18h5q2 -2 2.5 -7t0.5 -11h3q3 0 0 -8q28 0 41 -5q3 5 5 5q2 -4 3.5 -11.5t1.5 -21.5h5q2 -2 2 -13q2 2 4 0.5t2 -5.5h40
v-5q3 3 3 0q3 -2 5 -2q3 -17 5 -22.5t3.5 -7.5t2.5 -3t2 -8q14 3 49 -5q2 -3 2 -11h5q0 -9 -5 -12h5v-13q6 -4 13 -5.5t13 0.5v-5q2 2 15 -3l5 -5v-10h5v-13h5v-13q6 6 6 0q1 0 30 -8v-5q8 5 16 0q3 -3 0 -13h2q2 -2 2.5 -7t0.5 -10q5 0 12.5 -4t12.5 -4v-3q26 0 31 -2
q15 2 36 2h51q0 5 5 5q3 0 3 -5h12v3q11 3 11 8z" />
    <glyph glyph-name="equal" unicode="=" 
d="M657 559v8h-3q-2 14 -2 33v49l-31 7q-15 0 -15 -2h-11t-7 2q0 -2 -6 -2q-5 0 -7 -5q-11 7 -28 7q-12 0 -28 -3.5l-16 -3.5v2q-20 5 -33 5q-8 2 -17.5 1t-23.5 -3q-17 -2 -27 -3.5t-14 -1.5q-7 7 -15 7q0 -2 -6 -2q-5 0 -7 -5q-2 0 -2 2q-10 2 -16 2.5t-10 2.5h-30t-21 -2
h-31q-13 0 -23 2q-14 -2 -23.5 -3.5t-14.5 -3.5q-12 -7 -16 2q-9 2 -17 1t-13 -3q0 5 -4 5t-4 2q-8 -2 -15 -3t-13 1v2q-18 4 -54 -7q5 -5 -2 -5v-54q2 -3 2 -36q-3 0 13 -8h15q0 -2 2.5 -3.5t2.5 -3.5h23v2h18v-2h87v2h16v-2h10q0 2 5 2q2 2 2 1t-2 -3h20v2h21v-2h36
q16 0 25 2v-2h11v2h28v-2h28v2h23v-2h43v2q16 2 27 2.5t17 2.5q5 -5 25 -5v-2h39q-2 2 2.5 3.5t4.5 3.5q8 2 13 -2.5l5 -4.5q2 0 12.5 6t15.5 6v-5h11v7q0 4 2 6h3zM657 257v16h-3q-2 2 -2 15q-14 0 -11 10q2 6 5.5 9t5.5 1v41h-23q2 -2 0 -2.5t-8 -2.5q-3 3 0 5
q-17 -3 -20 6v-3l-2 -0.5t-6 -2.5l-5 6h-100q0 -6 -3 -6q-35 5 -60 6.5t-42 1.5q-18 0 -20 -2h-54q-20 0 -28 2q-4 -2 -7.5 -3.5t-5.5 -1.5q-17 -2 -29 -0.5t-20 3.5q2 -2 0.5 -3t-5.5 -3v6h-41q0 -6 -5 -6v6q-8 3 -15 -6q-3 0 -3 6h-15h-69q-6 -5 -8.5 -8.5t-4.5 -7.5v-56
h5q2 -6 2.5 -15.5t0.5 -22.5h15q0 -11 5 -11q60 7 103 0q-2 2 1 3.5t9 1.5v6q8 0 8 2l2 -2q2 2 5 2h5h27t19 -2v-6q6 -2 8.5 -3.5l2.5 -1.5q15 2 26.5 2.5t19.5 0.5q14 3 18 -3q5 0 17 0.5t29 2.5h46v-3q4 2 7.5 2.5t7.5 0.5q2 2 26 -3q0 20 12 11q3 0 3 -6q18 -7 36 -7
q36 0 64.5 1.5t47.5 5.5v6h11q6 0 10 2q0 6 1.5 9t3.5 1z" />
    <glyph glyph-name="greater" unicode="&#x3e;" 
d="M655 355v166q-5 0 -5 5q3 2 5 2v18q-11 6 -18.5 8.5t-11.5 4.5q-13 0 -8 -5q-23 -12 -23 13h-3q-3 10 0 18h3v13q-8 0 -5 2q-4 0 -11.5 1t-16 2.5t-16.5 3t-13 1.5v43q-5 0 -6 1.5t1 3.5q-12 0 -12 -2q-15 9 -23.5 7.5t-12.5 -2.5t-5.5 5t-2.5 31h-5q-3 2 -3 7
q-14 2 -24.5 4t-18.5 2q-11 17 -8 33h-2q-3 2 -3 13h-51q0 5 -0.5 6t-2.5 -1v12h-5q-2 14 -2.5 20t-9.5 6h-16v5q-3 -1 -8.5 0.5t-10.5 3t-9 3t-5 1.5q-2 5 -2.5 16.5t-0.5 26.5h-33q-6 4 -11.5 5.5t-11.5 -0.5v18h-5v23q-8 0 -5 3h-25q-10 0 -16 2v6h-8v-6h-66v6
q-26 0 -39 -8v-3q0 -2 -10 -2v-10h5q4 -9 0 -16h-5v-15q-2 -2 1.5 -4t8.5 -6h23q3 2 8 2q0 -2 4 -2.5t4 -2.5q11 -24 7 -36h6v-10q2 2 3 2q2 0 2 -5q28 0 41 -5q0 2 2 -1t8 -9v-18h5q2 -2 2 -7q18 -6 29 -11t15 -7q8 -21 8 -31q-6 0 15 -13l28 -2v-3q8 0 10 -2.5t8 -7.5
q-2 -6 -2.5 -8l-0.5 -2h6q2 -2 2 -8v-10q29 -13 44 -13v-3q9 0 12 -5v-20q8 0 9.5 -4t1.5 -12q25 0 43 -7q3 0 3 -13h2q3 -3 3 -18h5v-8q5 0 15 -7q31 0 36 -5q4 -10 5.5 -17.5t-0.5 -13.5q6 4 13 -8q22 0 26 -7q0 7 12 7q0 -6 2 -3.5t4.5 1t4.5 -13.5t2 -45q4 -7 0 -16
q0 -10 -2 -12h-16q5 -5 -5 -5t-5 5h-10v-5q-2 0 -4.5 1.5t-8.5 3.5q0 -5 -8 -5v-16h5q4 -10 0 -20h-5v-10q10 -2 -3 -4t-48 -2v-2q-2 0 -5 -4t-5 -4v-25q-6 0 -10 -6q-30 -10 -46 -10q0 -10 -3 -13h-2l-3 -28q-3 0 -3 -5q-17 -2 -30 -2.5t-21 -2.5q0 -2 -5 -2v-18q5 0 5 -5
q-2 -3 -5 -3q0 -10 -2 -13q-26 0 -39 -5v-5q-5 -2 -10.5 -2.5t-7.5 -0.5v-28h-5q-2 -4 -2 -8v-5q-17 -2 -31 -2h-21l-2 -44q-5 5 -5 -5h-56v-41q-14 -4 -25 -5.5t-16 0.5q0 2 -2 -0.5t-4 -7l-4 -9t-3 -6.5h-3v-25h3q2 -5 2 -11q11 4 11 -5h122q-2 2 -1 3.5t7 1.5q7 -3 5 -5
h15v3q2 2 4 3t6 -1v23h5v13q11 0 11 5q13 2 24 4t16 4q4 19 8 28h5v13q10 0 13.5 0.5t-0.5 2.5v5q4 3 15 -5v5q3 2 16 2q0 2 5 6.5t5 6.5q2 14 3.5 17.5t1.5 5.5q25 4 36.5 6t9.5 2v5q6 0 8.5 1.5t4.5 3.5v20h2q0 10 5.5 13t7.5 5q10 0 5 -5h8v5h15q2 0 7.5 9t10.5 9v26
q43 11 51 7q4 8 6 8l2 23q0 10 3 13q32 8 46 8q0 12 10 10v20h5q0 5 -5 5q2 0 14 10.5t37 10.5q-8 8 5 8z" />
    <glyph glyph-name="question" unicode="?" 
d="M657 546v39q-5 -5 -5 5q0 2 5 2v192q-5 -3 -5 8q2 2 5 2v8q-5 -3 -5 5q0 3 5 3v10h-3q-2 3 -2 21q-20 2 -33.5 2.5t-23.5 2.5v15h-5q0 6 1.5 9.5t3.5 5.5h-5v11q-2 0 -30 5v5h-26v36q-14 5 -27 8.5t-27 1.5q0 2 -5 5t-7 5q-3 0 0 3q-2 2 -1 3.5t3 1.5v23q-13 0 -15 2v5
q-18 0 -18 3q-21 0 -37.5 -0.5t-26.5 -2.5v3q-5 0 -8 -3l-2 3h-28v3q-14 0 -23.5 -2t-15.5 -4h-2q-1 0 -3 -2l-5 5h-49q0 -10 -2 -13h-5v-36q-14 -2 -25 -3.5t-16 -1.5h-5h-36h-5l-17.5 -3.5t-13.5 -1.5q-2 -14 -2.5 -23.5t-0.5 -14.5q-2 2 -2 -3t-5 -5q-4 4 0 8
q-10 -4 -17.5 -6t-13.5 -4t-9.5 -1t-5.5 3q-3 -2 -5 -2v-16h2q4 -18 0 -36h-2v-5h2q4 6 8 -15q0 -4 -1.5 -5.5t-3.5 0.5l-3 -46h-2v-10h2q4 -9 0 -16h-2v-10h2q5 -16 0 -28h-2q0 -17 1.5 -29.5t3.5 -21.5h2q3 -3 3 -13q2 4 3.5 3.5t1.5 -6.5q15 0 15 -5q6 2 11.5 2.5
t9.5 2.5v-5h41q-2 2 1 3.5t9 1.5v3q8 0 8 6t2 12h5q-2 0 -5 2q-3 8 0 16h5v28h-5q-2 2 -2 13q-2 2 -3 3.5t-3 3.5q0 2 6 8l2 20h5v46h5v8h-5v15h5q-5 6 4 15t35 3v-2h10q6 0 8 2v36q2 0 5.5 6.5t9.5 6.5q8 0 8 -5h53q-5 5 5 5q6 0 8 -1.5t0 -3.5h67v5q9 4 20 0q-3 -5 5 -5
v-21h3q2 -2 2 -12h3q2 -3 2 -11q12 -2 21.5 -3t14.5 1q0 -6 3 -6q4 0 7.5 -1.5t7 -7.5t3.5 -24h2q3 -2 3 -7q13 0 15 -3v-5h23l13 -13v-5h5q4 -3 -5 -13h5v-148q-5 0 -5 -2q-17 -5 -29 -7t-22 -4l-3 -33h-2q0 -10 -6.5 -13t-14.5 -5q-2 3 -2 5h-23v-2q-3 -3 -11 -3
q0 -8 -5 -8q-2 -2 3 -2q2 -5 2 -15q0 -13 -2 -16q-21 0 -35 -1.5t-24 -3.5v-43q-5 0 -5 -3q-17 -5 -20 0q-10 -6 -18 -8.5t-13 -4.5l-3 -30h-5v-8h5v-69h-5v-8h5q4 -8 0 -15h-5v-16h5q9 -9 -5 -12h5q5 -13 0 -26h-5v-8q8 0 8 -5q11 -2 21 -3t20 1v-5h23q8 5 21 5q14 0 22 2
v13h3v13h-7l4 2l3 3v49h-3q-2 1 3 12h-3v21h3l2 71q7 16 21 16q7 -4 5 -8h13v5q20 5 23 3l2.5 -3t2.5 -5h3q0 1 3.5 2.5t13 4t31.5 6.5v23h5q8 13 8 20q8 2 12 1.5t6 -6.5q17 5 20 5v3q3 3 10 3q0 3 6 7v31q5 0 5 2h35q-3 5 6 13q10 0 10 5zM478 45v44h-23v5h-13q3 -5 -5 -5
q-11 0 -8 5q-13 0 -15 2v41q-18 0 -21 3q-4 -2 -14 -2.5t-27 -0.5v3q-15 -2 -26.5 -2.5t-19.5 -0.5l-3 -6t1 -4q0 -8 -1.5 -11.5t-3 -5.5t-2.5 -3.5t-1 -5.5q-21 -11 -33 -7v-5h-23v-49q13 0 15 -3v-5h23q10 0 16 -2q2 -3 2 -28h5q1 -3 0.5 -5t0 -3.5t3 -3.5t9.5 -6l26 -3
v-2q7 0 7 5q4 -2 6 -2.5t2 -2.5h46v2q0 3 10 3q-9 12 8 12q0 3 -5 8q2 0 5 3q0 5 1.5 10.5t6.5 7.5q0 -2 10 7h33q0 13 8 13z" />
    <glyph glyph-name="at" unicode="@" 
d="M659 147v34q-5 0 -5 7h-123q6 -4 -5 -7q-8 0 -5 7h-36v-22t-2 -14h-3v-12q-21 -2 -34.5 -2.5t-21.5 -0.5q0 -15 -1 -23t-1.5 -11t-1.5 -3t-1 -1q-6 -4 -13 -5.5t-13 0.5q5 -5 -5 -5q-3 0 0 5h-30q3 -5 -8 -5q-10 0 -5 5h-21q5 -5 -2 -5q-3 2 -3 5h-13q5 -5 -7 -5
q-5 8 -5 30q-5 0 -6.5 1.5t0.5 3.5h6v8q-5 0 -6.5 1.5t0.5 3.5q-10 0 -7 -2q-32 0 -49 5v41q-5 0 -5 7q-15 2 -26.5 2.5t-19.5 2.5l-2 4t-6 9h-2q-4 10 0 21h2v56q-2 0 -2 2q-2 2 -1 4t3 2v23q-5 2 -2 5q0 2 2 2v11h-2v69h-5q-2 5 -2.5 8.5t-2.5 3.5q0 5 2 5v13h-5
q-3 0 -3 3q6 2 10 3.5t6 1.5v13h-5q-3 2 -3 13q-2 0 -2 5q3 16 10 12v52h-5q-5 3 0 12h5v13h-5q-5 5 0 13h5v8h-5q-4 10 0 18h5v115h-5q-5 12 0 28h5v10h-5q-5 7 0 15h5v51h2q0 11 3 13h77q12 4 18 5.5t9 2.5t4 3t4 7q3 3 6 0v31h10q0 5 5 5t0 -5q10 0 10 5q3 0 3 -5h110
q5 5 7 5v-5l31 -3q5 -20 5 -30h5v-11q14 -5 28 -3.5t23 -3.5v-11h3v-66q-6 -6 -10 -9t-8 -1h-43v36h-3q-2 0 -2 7q-6 2 -6.5 2.5t3.5 2.5q-15 0 -15 -2q-2 -2 -6 -1t-10 3v-2q-13 0 -13 2q-17 0 -20 -2h-20q-8 0 -13 2q0 -2 -5 -3t-5 -7q-2 -14 -2.5 -23.5t-0.5 -14.5h-23
l-23 -8v-5h-10q-2 -2 2.5 -4.5t4.5 -8.5q-2 -2 -3.5 -3t-3.5 1v-13h-5q2 4 3.5 1.5t1.5 -11.5q0 -2 -1.5 -3.5t-3.5 0.5v-15h5v-23q-18 -18 -18 -16q-12 -3 -23 0v3h-16q3 -3 -2 -5l-3 -31h-5v-8h5q5 -3 0 -12h-5l1.5 -0.5t3.5 -2.5q5 -39 0 -74h-5v-8h8v-153q3 0 3 -1
t3.5 -3t13 -5.5t31.5 -8.5v-8h3v-38h5v-46h18v-5q25 0 43 -1.5t28 -3.5q17 0 29.5 1.5t21.5 3.5v5q8 3 16 0v-5h10v5q8 0 8 2q0 12 7 16h-5q-3 12 0 20h5v46h3q0 8 2 10l46 -2q0 -3 3 -3q2 -4 2.5 -7.5t0.5 -5.5h5v-23q2 2 5.5 1t9.5 -3q2 0 2 -2q0 -1 -2 -3h18q5 5 8 5
q4 0 15 -10q3 0 3 -13q2 -3 2 -21h5q0 -5 2.5 -6t2.5 -6h13v5q10 2 16 2h12q4 24 0 36h5v118q-2 -2 -3.5 -1.5t-1.5 6.5h5v166h-5l1.5 3.5t3.5 9.5q-7 0 -5 2q0 3 5 3v28h-5q-3 11 0 18h5q-2 3 -5 3v89h-2q0 10 2 13v105q-12 0 -15 8l-31 2q-8 5 -15 5v49h-5q-5 12 0 25h5v5
h-10q0 -1 -8 -12q-5 3 -5 7q0 3 5 8v10q-14 0 -23.5 0.5t-17.5 2.5q-2 5 -2.5 14.5t-0.5 23.5q-13 0 -10 10h-30v-5q-6 -2 -8.5 -3.5l-2.5 -1.5q-2 -2 -15 3q-5 3 0 7q-6 2 -8 3.5t-2 -0.5q-23 0 -36.5 -0.5t-17.5 -2.5v-5q-13 -3 -26 0v5h-25v3q-15 0 -15 -3h-77v-5
q-7 -3 -18 0v5h-18q6 -4 -5 -7q-9 0 -5 7h-16v-5q-4 -2 -9 -2h-11v-16q5 0 5 -2q0 -6 -5 -11t-5 -7q-10 -4 -15.5 -6l-5.5 -2q-4 -2 -7.5 -3.5t-7.5 -1.5q-3 3 -3 5h-17q2 -2 0.5 -3.5t-6.5 -1.5l-2 -46q-3 3 -3 8q-10 0 -5 -5q-12 -5 -20 -5l-10 10q-12 3 -16 -10v-29h-5
v-10h5v-15h-5v-10h5v-21h-5v-23h5v-59h-5h1q2 0 4 -2v-36h-5v-10h5v-74h3q3 -12 0 -24h-3v-109q2 4 2.5 2t2.5 -8q0 -7 -5 -2v-13q2 2 2.5 1.5t2.5 -6.5q0 -5 -5 -5v-16h3q3 -3 0 -12h-3v-46h3q3 -18 0 -34h-3v-61q5 8 5 -5q0 -3 -5 -3v-43q2 4 2.5 2t2.5 -7q0 -6 -5 -3v-31
h3q3 -11 0 -23h-3v-5l21 -20q15 0 22.5 -0.5t10.5 -2.5t2.5 -5t-0.5 -7h6v-16q2 2 3.5 0t1.5 -7q7 2 15.5 0t16.5 -6t13.5 -9t5.5 -9h2q2 -2 2.5 -7t0.5 -13h5v-13h36q23 0 23 -18q5 -5 5 -7t-1.5 -4t-3.5 -4q-3 0 0 -3q2 -2 2 -12l26 -3v-2h20v2q5 5 11 5q5 0 10 -5v-2
q20 0 23 -3q14 0 23.5 0.5t14.5 2.5v2q5 5 13 5q7 0 15 -5v-2q10 0 17 -0.5t9 -2.5q25 6 39.5 9.5t16.5 3.5v18h3l2 20q14 4 25.5 5.5t20.5 -0.5v5q5 2 7 4l4 4v5q-4 -3 -8 8q0 2 8 2q0 11 5 16q17 5 29 9t22 4q6 9 8 17t2 13q13 16 26 8v5q5 0 10.5 1.5t9.5 3.5q0 10 5 10z
M601 388h-18v5h-41v8h-5q0 25 -0.5 43.5t-2.5 30.5h-3v20h6q0 11 -6 5v49h3q4 19 0 31h-3v7h3q5 12 0 23h-3v8h3v69h-3v15h3q2 5 2.5 9t0.5 9q5 -5 5 8h25h10h16q-2 -2 -1.5 -2.5t6.5 -0.5q2 -9 2.5 -15t0.5 -10v-46q-3 0 -3 -5q0 -3 3 -5v-41q-3 -3 -3 -5q0 -6 3 -6v-110
q-4 -9 0 -12v-64h-3q0 -3 3 -5v-13zM491 488q-8 3 -8 0q-2 -5 -2.5 -7t-0.5 -4t3 -5v-46q-5 0 -3 -2q0 -3 3 -6v-7h-3v-18h-12v-5q-22 0 -35 -1.5t-17 -3.5q-2 -3 5 -3v-20h-2q-3 -3 -3 -13q-4 0 -4 -2q0 -1 2 -3q-20 0 -31 -0.5t-15 -2.5q-10 4 -14 13.5l-4 9.5h5
q5 12 0 23q-5 -3 -5 3h5q4 30 0 48q-5 -3 -5 3h5q4 7 0 18h-5v13h5q4 42 0 84h-5v18h5q4 7 0 18h-5v8h8q0 8 -8 5v28h5q5 11 0 23h-5v20q7 0 9 1t3 2.5t3 3t10 1.5v-3l26 -2q0 -6 2 -8.5t6 -4.5h5v-15h2q0 -11 3 -13q11 -11 20 -8q10 -2 19 -2.5t15 -2.5v-5t2 -5q5 3 5 -3
h-5q-3 -9 0 -12h5q0 -16 0.5 -25.5t2.5 -13.5h-3v-59h3q0 -8 4 -7.5t4 -4.5z" />
    <glyph glyph-name="A" unicode="A" 
d="M657 7v181q-4 0 -5.5 1.5t0.5 3.5h5v67h-5q-5 7 0 15h5v16q-5 3 -5 7q-3 3 5 3v7h-5q-4 10 0 21h5v13h-5q-5 8 0 20h5v5h-5q-4 10 0 13h5v23q-8 0 -5 3q0 3 5 0l-5 5q-5 3 0 13h5q-4 10 -5 10q-3 2 5 2q0 4 -1.5 5.5t-3.5 -0.5v36q-14 0 -22 0.5t-14 2.5v5
q-8 0 -13.5 0.5t-7.5 2.5q-2 13 -2 36v56q-3 0 -3 2q-3 5 3 5v5q-2 6 -2.5 26.5t-0.5 53.5h-33q-13 0 -23 2v5h-5q-2 16 -2.5 38.5t-0.5 51.5q-2 0 -2 5q-2 2 -1 3.5t3 1.5v38q-2 0 -2 3q-12 2 -20 3.5t-13 1.5q-8 0 -8 -5q-2 8 -10 12t-8 6q0 5 8 0v13h-5q-2 11 -2.5 28.5
t-0.5 42.5q-4 0 -5.5 1.5t0.5 3.5h-28v6h-26v92q-11 0 -8 5h-24t-16 2v3q-22 -4 -36 -5.5t-23 0.5q-12 -7 -8 -10v-57q2 2 4 1.5t4 -6.5q0 -5 -8 -5v-20h-18v-6q-2 0 -11.5 -1.5t-29.5 -3.5l-2 -89q-17 -6 -32 -8.5t-25 -4.5q3 -3 -5 -3v-12h5v-13h-5v-18h5v-26h-5v-51h5
v-13q-8 0 -5 -5q-15 -4 -26.5 -5.5t-19.5 -1.5v-3q-2 0 -5 -4t-5 -4v-10q5 0 5 -5h-5v-20q5 8 5 -5q0 -9 -5 -6v-23h3q3 -8 0 -20h-3v-61q-2 -2 1.5 -4.5t8.5 -6.5q-4 0 -5 -2t-1 -5q0 -2 -0.5 -4.5t-3.5 -3.5h-56q2 -4 -5 -8v-59q2 2 2.5 0t2.5 -7q-2 -2 -2.5 -3.5
t-2.5 -1.5v-77h2q3 -3 3 -8t-3 -7h-2v-39q2 2 2.5 1.5t2.5 -6.5q2 -2 0.5 -3.5t-5.5 -1.5v-41h2q2 -2 2.5 -5.5t0.5 -7.5q0 -10 -3 -12h-2v-31h2q3 -3 3 -8q0 -2 -0.5 -5t-2.5 -5h-2v-8h2q3 -2 3 -7q0 -2 -0.5 -5.5t-2.5 -5.5h-2q0 -4 1.5 -12t3.5 -17.5t3.5 -18t1.5 -13.5
h2q4 -8 0 -15q-7 0 -7 -3v-43q2 2 5 -3t5 -5q41 0 36 2v-2h13t7 2q10 2 17.5 1t13.5 -3l5.5 9t7.5 9l2 317h5v38h16h41q10 1 26 1h33q17 0 31.5 -0.5t21.5 -0.5h39h12q32 0 49 -5q15 0 19.5 1.5t-1.5 3.5q0 8 13 8q8 0 5 -8h15q0 -5 5 -5q13 0 16 3q2 8 11 -1.5t9 -34.5h5
q5 -23 0 -46h-5v-8q5 0 8 -2v-266q4 -4 10.5 -6.5t17 -4t27.5 -2t44 -0.5q-2 2 1.5 3.5t9.5 1.5q-8 8 5 8zM475 500h-2v-12q-6 -2 -11.5 -3.5t-9.5 0.5q0 3 -13 3q-9 -2 -15.5 -4t-12.5 -4v5h-110v-5h-10v5h-15v-5h-11v5h-30q0 5 -3 3v26t-2 17h-5v28h5l2 90q3 -3 3 10
q4 2 7.5 3t7.5 -1v-2q1 3 5 4t8 1t8 1t5 4q10 21 10 39v86h5v13q8 0 8 5h10q6 0 8 -2q15 -2 26.5 -1t19.5 3q0 -2 2 -5q4 2 4.5 2.5t-1.5 2.5h25q15 -7 13 -7v-13h3v-61t2 -31h3v-23q10 0 15.5 -2.5t9.5 -5.5t8 -5.5t13 -2.5q0 -5 2 -7h3q0 -10 3 -13h5v-61h2v-39
q-2 -2 -2 -5q0 -5 2 -8v-10h-2v-15q2 2 3 1.5t-1 -4.5z" />
    <glyph glyph-name="B" unicode="B" 
d="M659 63v151q-8 0 -5 5h5v38q-5 0 -6 0.5t1 2.5q3 2 5 2v80h-5q-3 8 0 20h5v41h-5v51q-5 0 -5 5q-2 3 5 3v23h-46q0 5 -10 3v40l-31 3q-1 5 -7 5t-12.5 1.5t-11 8.5t-2.5 26h-3q-3 16 0 28q3 0 3 5q24 13 38 13v3h21v12h5q0 10 -1.5 12.5t-3.5 -1.5q-4 3 8 15q13 6 24 9
t19 1v3q3 2 10 2v100q-4 0 -5.5 1.5t0.5 3.5h5v79h-2q-4 4 2 13q-2 2 -3.5 2.5t-1.5 2.5q3 3 5 0v39h-2q-6 0 -3 7q-6 0 -6.5 1.5t1.5 3.5h-36v6h-15q-2 17 -3.5 26.5t-1.5 11.5h5q0 3 -3 3q-2 0 -3 1.5t1 3.5q-29 2 -43 3.5l-14 1.5v41q-4 0 -10 10q-2 -2 -3.5 -2.5
l-1.5 -0.5q-13 0 -10 3q-21 0 -21 -3q-19 0 -32 0.5t-21 2.5q-14 -2 -23.5 -2.5t-17.5 -0.5v3q-21 0 -23 -3q-18 -10 -18 3q-31 0 -33 -3q-13 0 -13 3q-18 0 -21 -3q-11 -3 -15 3q-27 -2 -46 -2.5t-33 -0.5v3q-8 0 -8 -3q-14 -4 -18 3q-2 -3 -41 -3v3q-10 0 -17 -0.5
t-11 -2.5q-2 2 -9.5 2.5t-18.5 0.5q0 -10 -6 -11t-12 -7v-59q5 8 5 -5q5 -5 -5 -5v-10h5q5 -55 0 -105h-5l1.5 -0.5t3.5 -2.5q4 -9 0 -13h-5q0 -2 1.5 -2.5t3.5 -2.5q4 -49 0 -94h-5v-16q3 0 5 -2v-212h3q3 -10 0 -13h-3v-64h3q3 -8 0 -13h-3v-123q2 2 2.5 1.5t2.5 -6.5
q0 -5 -5 -5v-10h3q2 -6 3.5 -11t3.5 -7q0 -5 -5 0q-2 -6 -3.5 -9.5l-1.5 -3.5h3q3 -8 0 -13h-3v-12h3q3 -20 0 -44h-3v-41h3q2 -19 2 -48v-64q2 2 18.5 -3t38.5 -5v-5h7q-2 2 0 3.5t8 1.5v-5h15v5q4 3 16 0v-5h20v5q7 3 15 0v-5q2 0 3 1.5t3 3.5q20 3 40 0v-5h11v5
q26 3 53 0v-5h8v5q12 3 28 0v-5h13q-2 2 -1.5 3.5t6.5 1.5q4 -2 6 -3.5l2 -1.5h7v5h69v-5h29v5q32 7 48 2q6 -2 18 -2h33q5 8 26 8l3 17q0 10 11 21t27 5v3q10 0 13.5 2.5t4 5t0 5t2.5 2.5zM547 771h-5v-87q-4 3 -8 -7q8 0 -5.5 -2t-48.5 -6q0 -5 -5 -5l-2 -31h-16v-2
q-9 0 -22.5 -1t-28 -1.5t-28 -1.5t-20.5 -1h-51q-13 0 -3 2q0 -15 -13 -2q-6 2 -22 2h-42q0 -2 -10 -2q-2 2 -6.5 3.5t-14.5 1.5v2h-25v18q-3 3 -5 3h5v15h-5v10q5 0 5 5q0 11 -5 6v38h5v18h-5v36q8 0 5 5q0 10 -5 5v20h5q-2 2 -2.5 3.5t-2.5 1.5v13h5v13h-5v33h5
q0 12 1.5 20t3.5 14q4 2 5.5 2.5t-0.5 2.5h33l14 3.5t12 1.5v-5q15 2 38.5 3.5t56.5 1.5v-5q12 -5 25 0v5h31v-5q56 -4 110 0q-2 2 -0.5 3.5t5.5 1.5v-5q17 -5 25 -5v-21h3q0 -23 0.5 -40.5t2.5 -28.5q2 2 3 2q2 0 2 -5h-5q-5 -15 0 -30h5v-13q2 2 3.5 0.5t1.5 -3.5z
M155 810h-5v2h5v-2zM547 324h-5v-36q-8 0 -8 -3q0 -12 8 -7v-44q-8 0 -8 -5q0 -8 8 -5v-107q-5 0 -8 -3q-27 -2 -46 -3.5t-33 -1.5q-6 6 -16.5 6.5t-24.5 -3.5q-10 0 -16 -0.5t-10 -2.5v3q-17 2 -28.5 0.5t-17.5 -3.5q0 14 -13 3q-8 -2 -13.5 -2.5t-9.5 -0.5v3
q-17 2 -28.5 0.5t-19.5 -3.5v3q-14 2 -24.5 0.5t-16.5 -3.5q-14 2 -23.5 3.5t-17.5 1.5q0 10 -5 10h2q5 8 0 16h-2v7q5 -5 5 5q0 6 -1.5 6.5t-3.5 -3.5v18q2 -2 3.5 -0.5t1.5 5.5q0 6 -1.5 6.5t-3.5 -3.5v18h2q5 3 0 12h-2v13h5q0 4 -1.5 5.5t-3.5 -0.5v8h5q0 4 -1.5 5.5
t-3.5 -0.5v31q2 -2 3.5 -0.5t1.5 5.5q0 5 -1.5 7t-3.5 0v177q2 -2 3.5 -0.5t1.5 5.5q0 6 -1.5 7.5t-3.5 -2.5v16h2l3 23q14 5 25 7.5t21 4.5v-5q13 -3 26 0v5h15v-5q11 -3 20 0v5h16v-5h59v5h38q0 -5 2 -7q9 3 3 7h20v-5q6 -2 17 -2h27q-2 -2 -2 -3h5q0 -8 2 -10h3
q2 -14 4 -20t4.5 -8t4.5 -2q3 0 5 -1h33q-2 -2 0 -2.5t7 -2.5q-3 -8 0 -8h3q0 -28 8 -41q-8 0 -8 -7q0 -10 8 -5v-8h-8q0 -5 8 -5v-67q5 0 5 -2z" />
    <glyph glyph-name="C" unicode="C" 
d="M657 117v12h-5v52h5v33h-5v36h5q-10 17 -10 15h-46v-41q-2 0 -3 -1.5t1 -3.5q-22 -5 -59 -5q-4 -20 -6 -31t-2 -15q-28 0 -49 -8q0 -2 -5 -5t-5 -5v-10h5q4 -11 0 -18h-5v-10q-14 -2 -32 -2.5t-39 -0.5q-12 0 -34 1t-46.5 1.5t-48 1.5t-38.5 1v3q-5 0 -10 5v15
q-2 2 -3.5 2.5t-1.5 2.5q0 5 5 5v41h-2q-3 3 -3 18q-14 6 -27 8.5t-24 4.5v20h-5q0 6 1.5 11t3.5 7h-5v23h5v16h-5v18h5v5q-5 -5 -5 0v240q-5 -3 -5 8h5v181q3 3 2 5.5t0 4t7 2.5t21 1q-2 3 0 5l3 3q8 2 12 3.5t6 1.5v23h5q-2 6 -0.5 8.5t3.5 4.5h2q-2 2 -2.5 3.5t-2.5 3.5
q3 3 5 0v39q6 6 11 8.5t10 4.5q8 0 11.5 -1.5t5.5 -3.5q2 2 8.5 12.5t14.5 10.5l3 25q6 2 8.5 4t4.5 4q2 0 2 -5h34v5q54 3 104 0v-5q5 2 7 2.5t4 2.5v-5q-4 -4 13 -8q2 -4 2 -10v-10h5v-11q2 -2 5 -2h5h16q0 2 5 2q0 -4 1.5 -5t4.5 -1t6.5 -1t7.5 -5v-13h5q3 -3 3 -13
q2 -6 2.5 -21.5t0.5 -42.5q6 3 10 -8q17 0 20 -5q0 10 16 10q7 -16 10 -10q17 5 20 5v3q12 3 16 0v-3h10v3q8 0 9.5 8t3.5 10h2q-6 9 -2 43h2v26h-2q-4 15 0 31h2q0 28 -5 46h-33q-13 0 -23 2v23q-8 0 -5 3q0 2 5 2q-3 0 -5 3v13q-5 0 -13 1t-16.5 1.5t-16 1.5t-11.5 1v7h-5
q-3 12 0 29h5h-5v10q-5 2 -7.5 3.5l-2.5 1.5q-42 0 -67 -0.5t-33 -2.5v3q-25 0 -39.5 -0.5t-18.5 -2.5q-16 -3 -18 3q-35 0 -56 -0.5t-26 -2.5q0 3 -18 3q-6 0 -8.5 -5t-4.5 -5v-28h5q4 -9 0 -16h-56q2 -2 -3 -2q-2 -6 -3.5 -11.5t-3.5 -9.5q4 9 7 -5h-7v-18
q-8 2 -21.5 -1.5t-35.5 -11.5l-2 -28h-3l1 -2t2.5 -13t1.5 -36h6v-13q-25 -7 -36 -7q-4 2 -8 2h-5q-13 0 -18 -5v-46q3 0 5 -3q0 -2 -5 -2v-36q5 5 5 -5q-3 -5 -5 -5v-46q5 3 5 -5q-3 -5 -5 -5v-236q5 5 5 -7q-2 -3 -5 -3v-28h5v-21h-5v-46h5v-69h-5h1q2 0 4 -2v-18h-5v-13
q5 8 5 -5q5 -5 -5 -5v-8h5v-41l31 -2q0 2 20 -11v-10h3q0 -2 4 -4.5t4 -8.5q0 -5 -6 -5v-20h6v-31h-6v-8h6v-12h15q0 -2 5 -2t5 -6h33v3q6 2 11 3.5t7 1.5q3 2 16 -3q0 6 18 3v-8h2v-20h5v-18q-3 0 18 -13h110q0 5 5 5q3 -3 3 -5h46q-2 2 -1 3.5t3 1.5q3 -3 3 -5h64
q-2 2 0 3.5t8 1.5q0 -2 6.5 -5t8.5 -5v5h15q0 8 13 8l3 25h5v13q13 0 18 5v3q9 8 18 10t15 0l1.5 3.5t3.5 9.5h-5v20q17 8 29 11.5t22 1.5q29 13 15 13z" />
    <glyph glyph-name="D" unicode="D" 
d="M660 165v10h-5q-3 12 0 24h5v12h-5q-3 54 0 113h5v18q-2 -2 -3.5 -0.5t-1.5 5.5q0 5 5 5v41h-5v79h-5v26h5v15h5v15h-5v64h-5v21h5v8h-5v12h5v64h-5v13h5v8h-5v15h5v61q-5 0 -5 6q-5 5 5 5q0 44 -5 66l-25 3v2q-10 0 -17 1.5t-9 3.5q-4 10 -6 18t-2 16h-2v12q-6 2 -9.5 4
l-3.5 2h-44v15q-7 -4 -7 5t7 5v16q-12 0 -7 5q-28 8 -44 5q-2 2 -6 5t-6 5v13h-3q-2 4 -2.5 9.5t-0.5 13.5q-8 0 -5 5h-7q0 -2 -6 -2q-5 0 -5 -6q-5 -2 -13 2t-10 6q-8 0 -17.5 -0.5t-20.5 -2.5h-31h-64q-21 2 -36 2.5t-25 0.5q2 -2 0.5 -2.5t-5.5 -2.5q-3 2 -3 5h-59
q2 -2 0.5 -2.5t-5.5 -2.5q-2 2 -2 5h-54v-5h-41q0 -2 -5 -5v-251q3 0 5 -3q-2 -2 -5 -2v-23q5 0 5 -5h-5v-13q2 6 3.5 4.5t1.5 -9.5l-5 -5v-10h3q2 -2 2 -6v-5v-5t-2 -5h-3v-28h3q2 -3 2 -5q0 -5 -2 -8h-3v-8h3q2 -2 2 -5v-5q0 -5 -2 -7h-3q-3 -3 3 -3q0 -15 -3 -13v-31
q5 0 5 -5q-2 -2 -5 -2h3q2 -3 2 -13t-2 -13h-3h3q2 -2 2 -13q0 -10 -2 -12h-3v-5h3q2 -3 2 -6q0 -5 -2 -7h-3q-2 -2 1.5 -6t3.5 -10v-5t-2 -5h-3q2 -14 3.5 -22t1.5 -14q3 3 5 0q2 -2 2.5 -3.5t2.5 -1.5q-2 -2 -7 -2q0 -8 -0.5 -13.5t-2.5 -9.5h3v-13h-3v-38q3 0 3 -3t-3 0
v-159q2 2 2.5 1.5t0.5 -6.5q2 -2 -3 -2v-64h3v-13h-3v-44h3v-12h-3v-46q2 2 2.5 1t0.5 -6q18 0 23 -8q13 0 18 5q2 -3 2 -5h79q-2 2 0 3.5t8 1.5v-5h24q11 0 17 2h10t31 -2h19t24 2h39h17q10 0 24 -2v-5h15v5q25 2 38 3.5l13 1.5q0 2 2.5 4t2.5 4q11 0 11 5l2 28h5
q-2 2 -1.5 5.5t4.5 7.5q10 2 17.5 0.5t13.5 -3.5q11 8 20 8q0 10 3 13h2l3 20q2 0 3.5 4t3.5 4q10 2 19 2.5t15 2.5v5q8 8 15 8v25h3q2 2 0.5 2.5t-3.5 2.5q-5 8 0 8h15v-3h11v3q11 2 20.5 4t14.5 6zM548 421h-5l-3 -28h-2q-3 -3 -3 -8t3 -7h2v-11h-2q-2 -4 -2.5 -9
t-0.5 -11t0.5 -10.5t2.5 -10.5h2v-7h-2q-3 -3 -3 -8t3 -8h2v-79q-2 0 -2.5 -1.5t-2.5 -3.5q-17 0 -29 -0.5t-20 -2.5q-2 -2 -2 -12h-3v-26q-4 2 -5.5 -1.5t-1.5 -8.5q-2 2 -16.5 -0.5t-40.5 -12.5v-33q-12 -5 -25 -5v-3h-133q-2 -2 -2.5 -3.5l-0.5 -1.5q-22 5 -84 5
q0 6 -1.5 6.5t-3.5 -3.5v20h5v67h-5v20h5v38h-5v11h5v79h-5v15h5v26h-5v18q2 2 3.5 2.5t1.5 2.5q0 6 -1.5 6.5t-3.5 -1.5v77q2 -2 3 -2q2 0 2 2q-3 2 -5 2v13h5v13h-5v41h5q0 7 -5 7q-6 0 0 6h5v12h-5q0 17 -0.5 29.5t-2.5 22.5h-2v10h2v56q-2 0 -2 3h2q5 16 0 28h-2v15h2
v61h-2v8h2q5 13 0 26q-2 2 -2 3v2h2l3 43q5 2 6.5 9t3.5 7h20v5h31q-3 -5 5 -5q4 2 6 3.5t4 3.5q20 2 37.5 1t34.5 -3v-5q10 -4 21 0v5q12 0 15 2v-2q10 -2 26.5 2.5t24.5 4.5v-2q10 -2 15.5 -3.5t10.5 -1.5q2 2 20 2q3 -2 5 -2h8q-3 2 2 2q-2 -2 6 -2v-23h5q0 -18 2 -21
q6 -4 11 -7t7 -5h28q-3 -8 10 -8q-2 -10 -1.5 -19t4.5 -14h-3v-16h3q0 -14 1.5 -24.5t3.5 -16.5h-2l-3 -217q3 -3 5 -3v-97q-5 0 -5 -2q2 -6 4.5 -8.5t8.5 -2.5v-15z" />
    <glyph glyph-name="E" unicode="E" 
d="M659 2v97q-7 3 -5 5q-22 0 -25 5q-8 -4 -15.5 -5.5t-12.5 0.5q-33 2 -56.5 3.5t-38.5 1.5q-8 0 -24 -2.5t-22 -2.5v5q-21 -2 -36.5 -3.5t-25.5 -1.5q2 -2 0.5 -2.5t-5.5 -2.5q-1 3 -1 4q0 2 -3 3.5t-10 2t-21 0.5q0 -2 -7 -3.5t-9 -6.5q-5 4 -8.5 6t-1.5 4
q-17 0 -30 -1.5t-21 -3.5v5q-8 -5 -33 -5v5q-6 0 -8 -1.5t0 -3.5q-17 4 -32 5.5t-24 -0.5q-8 -4 -8 13h-3q-3 7 0 18h3v10h-3q-2 14 -2 32v45h-5v43q0 27 2 62t3.5 60t1.5 42h3v23q10 2 21 3t25 -1q3 3 5 3v-3q13 8 33 3v-3q8 2 13.5 2.5t9.5 0.5q4 -2 6.5 -2.5t4.5 -0.5h64
q0 3 2 3l3 -3q10 9 10 3q2 -2 5 -2.5t5 -0.5q17 2 29 2.5t22 0.5q2 -2 5 -2.5t5 -0.5q6 2 11.5 2.5t9.5 0.5q23 0 36.5 -0.5t17.5 -2.5q4 2 18.5 2.5t39.5 0.5q-2 4 -1 6t7 2q16 19 12 35h3v8h-3q-2 6 -2 20v39q-13 0 -16 2v6h-15v-6q-21 -3 -41 0v6h-10q5 -5 -3 -8
q-11 0 -7 8h-31v-6q-3 -3 -15 0v6h-11v-6h-61v6h-92v-6q-14 -2 -23.5 -2.5t-14.5 -2.5q-6 0 -18 1.5t-33 3.5q2 3 -3 3t-3 3l-25 2v79q-5 5 -5 31q-5 -3 -5 5q0 5 5 5v52h5q-3 2 -5 2v18h5l-5 5v72h5l-5 5v13h5v7h-5v13h5q0 13 5 18q21 8 31 8l2 -3q11 0 16 -5q5 2 9 2.5
t8 0.5q29 0 44.5 -0.5t19.5 -2.5q25 11 41 8q2 0 5.5 -0.5t5.5 -2.5h56q-3 3 2 3q5 -8 8 -8q25 4 38 6l13 2q2 -2 5 -2.5t5 -0.5q26 2 44.5 2.5t32.5 0.5q16 2 35 1.5t44 -4.5q-2 3 3 3q-5 12 10 12v13h-2q-2 14 -2.5 33t-0.5 44q-11 0 -8 8q-13 2 -24 4t-16 6
q-27 -6 -39 -8t-10 -2v-3q2 3 -15 3q2 -3 -3 -5q-3 2 -3 5q-29 4 -48 5.5t-33 1.5v3q-10 -4 -15.5 -6l-5.5 -2q-6 -2 -15 3v-3q-16 -3 -16 3q-20 0 -20 -3q-43 0 -46 3q-20 3 -26 -3q-54 0 -93.5 0.5t-64.5 2.5q0 -5 -13 -5v-3q-3 -2 -8 -2t-6 5t-6 5q-37 3 -62 -5v-44h-5
v-74h5q5 -8 0 -13h-5v-64h5q4 -11 0 -18h-5v-41h5q4 -10 0 -17h-5v-18h5q4 -16 0 -31h-5v-59h5v-46q10 0 5 -5q0 -3 -5 -3v-35h3v-59h-3v-49q5 0 5 -2q0 -5 -5 0v-154q2 2 2.5 1.5t2.5 -6.5q5 -5 -5 -5v-102h3q2 -10 3.5 -21.5t1.5 -24.5q0 -14 -1.5 -26t-3.5 -23h-3
q-2 -2 2 -3.5t6 -9.5q-2 -2 -2.5 -4t-2.5 -4h-3v-28h3q2 -14 3 -24.5t-1 -18.5q1 -3 5.5 -3.5t10 -1t10 -2t5.5 -6.5q11 2 20.5 4t15.5 4v-3q11 2 19 3.5t14 -0.5q11 -2 21 -4l20 -4q10 6 36 3v-3q14 2 23 3.5t15 1.5q-6 -2 3.5 -3.5t34.5 -1.5q4 0 11 1.5t15 3t15.5 3
t12.5 0.5q-2 2 0 3.5t8 1.5l8 -8t2 0q11 2 19 3.5t12 -0.5q14 -2 23.5 -4t17.5 -4l25.5 6t10.5 2q15 0 17 -3q22 2 37.5 2.5t26.5 0.5q-2 2 -1 3.5t6 1.5q2 0 2 -1q0 -2 -2 -4q10 0 17 -0.5t9 -2.5q16 -2 27 -0.5t19 3.5q0 9 10 13z" />
    <glyph glyph-name="F" unicode="F" 
d="M655 915v79h-5v13h-18v-5q-11 -5 -23 0v5q-5 2 -7.5 3.5l-2.5 1.5q-13 -5 -41 -5q4 -4 -3 -8q-2 3 -2 8q-29 0 -46 5q3 -5 -5 -5v5h-51q0 -5 -6 -5v5h-56q5 -5 -5 -5q-2 2 -2 5q-14 0 -25 -1.5t-16 -3.5q-10 -2 -21.5 -0.5t-24.5 5.5q-23 0 -40.5 -1.5t-31.5 -3.5
q-10 0 -10 5q-10 0 -10 -3t-8 -5q0 5 -3 8q-8 0 -18 -1t-20.5 -1.5t-19.5 -1.5t-13 -1q2 -4 -5 -8q-9 0 -6 8h-51q2 -2 1.5 -4t-6.5 -4v-95q5 5 5 -5q-2 -2 -2.5 -3.5t-2.5 -1.5v-130q5 3 5 -5q5 -5 -5 -5v-8h5q4 -12 0 -23h-5v-15q5 8 5 -3q-2 -3 -5 -3v-7h5q6 -9 0 -13h-5
v-18h5q4 -11 0 -20h-5v-8l5 -5h-5v-21q5 5 5 -5q2 -2 0.5 -3.5t-5.5 -1.5v-79q5 -5 5 -31h3q3 -11 0 -18h-3v-43h-5q3 0 5 -3q4 -7 0 -31h-5v-7h5q4 -7 0 -16h-5v-10h5q4 -10 0 -20h-5q-3 -5 5 -5v-59q5 3 5 -5q2 -2 0 -2q-1 0 -5 2v-49h3q3 -8 0 -15h-3v-13h3q3 -11 0 -18
h-3v-28q5 8 5 -5q0 -10 -5 -5v-11q5 5 5 0q0 -2 -1.5 -3t-3.5 1v-15h3v-62h-3v-25h3q2 -3 2 -13h6v-8q4 0 15 -8h66v3h16q0 10 10 10v213q-5 0 -5 2q-5 8 5 8v15h-5v141h5l2 43q3 0 3 3q11 5 20.5 7.5t15.5 2.5v3q6 2 10 2h10h12t11 -2v-3h54v3q3 2 13 2h5t5 -2v-3h41
q17 11 28 8l3 -3l51 -2v-3h54v3q5 2 22 2h47q2 0 5.5 8t9.5 8v79h-5v10q-8 -2 -13.5 -0.5t-7.5 3.5v-3q-22 -4 -46 0v3h-240q2 -3 -5 -3q-10 0 -8 3l-71 2q-10 2 -18 4t-13 4v77h-3q-3 7 0 17h3v118h-3q-3 7 0 15h3v95h5q-2 2 -1.5 4t6.5 6q23 2 40 3.5t27 1.5v-2
q11 -5 35 0q14 2 21.5 3.5t9.5 1.5q20 -2 34.5 -2.5t24.5 -2.5q10 -10 23 2q4 -2 17 -2h34q4 6 15.5 6.5t28.5 -1.5q0 -2 6.5 -2.5t8.5 -2.5q21 -2 35 -1t24 3v-2q4 2 22 2h52q0 11 15 11z" />
    <glyph glyph-name="G" unicode="G" 
d="M659 37v67q-2 -2 -3.5 -0.5t-1.5 5.5q3 3 5 3v35h-5q-3 24 0 46h5q0 11 -5 11q0 4 1.5 5.5t3.5 -0.5v7h-5v57h5l-5 5q-3 3 0 13h5v7h-5q-3 7 0 18h5v5h-5q-3 13 0 21h5q-2 5 -3.5 14.5t-1.5 23.5q-7 0 -5 3q0 2 1 2q2 0 4 -2v20q-5 0 -5 5q-3 5 5 5v92q-25 0 -62.5 2
t-85.5 4q-13 0 -13 -3q-6 0 -13.5 0.5t-17.5 2.5h-30q-12 0 -29.5 -2t-42.5 -4q3 -2 -2 -2v-72q2 0 3 -1.5t-1 -3.5q0 -2 -2 -2v-11h2q4 0 0 -7q-2 -3 13 -8q-6 2 -3.5 2.5t16.5 0.5l2 -3q36 0 39 -3v-2h66q-2 2 -1 2.5t6 2.5q4 -2 6 -3.5l2 -1.5l25 -3q2 -4 4 -11.5
t2 -21.5l2 2q1 0 3 -4q3 -5 -5 -8v-87q2 4 2.5 2t2.5 -7q0 -5 -5 -5q0 -14 -0.5 -23.5t-2.5 -15.5q-29 -2 -42.5 -3.5t-11.5 -1.5v3q-15 -2 -25 -3.5t-16 -1.5v-5q6 0 -15 -8l-3 -18h-5v-10h5q5 -8 0 -16h-5v-5h5q4 -10 0 -20h-5v-13h-7v-5q-11 -4 -18 0v5q2 0 0.5 -1.5
t-5.5 -3.5h-131v5q-2 0 -2 -5q-12 -5 -23 0v31h-3v12q-17 4 -29 6t-20 2q0 -2 -7 5q-4 4 0 10h-5q-6 9 0 13h5q-8 8 -8 39h-2v12q7 0 10 3v79h-5q-4 10 0 21h5v35q-8 -3 -8 8h8v18q-8 -5 -8 8q4 7 8 5v10h-5q-2 8 -2.5 21t-0.5 30h-2v13q2 0 2 5t8 5q-2 35 -3.5 60t-1.5 43
h5q-3 2 -5 2v69h5q-3 3 -5 3q-4 10 0 18h5v7h-5q-4 49 0 97h5q-2 2 1.5 7.5t5.5 5.5q3 -2 3 -5q6 0 18.5 2.5t14.5 2.5q0 11 13 8v77q29 16 46 12v-2h15q6 4 10 5.5t8 -0.5l3 -3h17t9 -2q-3 2 35 2q0 3 3 3q10 0 10 -3h54t31 -2q40 -5 53 2q0 -2 4 -5t6 -5v-36h3
q2 -17 2.5 -40t0.5 -54q2 2 5 -3t5 -5l14 -3.5t11 -1.5q4 0 6.5 1.5t4.5 3.5v-5h30q21 8 28 8q0 2 4 4.5t9 7.5v26q-5 0 -5 3q-3 7 5 7v54q-7 0 -5 3q0 5 5 0q0 17 -1.5 28.5t-3.5 19.5q-6 0 -8 1.5t0 3.5h-28q0 -5 -5 -5v5q-10 0 -14 3t-4 13h-2v17q-13 5 -13 8
q-14 0 -25 1.5t-19 3.5q-7 15 -7 44q-26 0 -31 5q-3 -5 -31 -5v5q-32 0 -52.5 -1.5t-28.5 -3.5v5q-15 0 -22.5 -1t-11 -2t-5 -2.5t-5.5 -2.5q-2 3 -2 8q-29 0 -48.5 -1.5t-33.5 -3.5v5q-17 0 -20 -8t-3 -10h-3q-2 -2 -0.5 -2.5t3.5 -2.5q3 -8 0 -15h-3v-16q-6 0 -6.5 0.5
t1.5 2.5h-92q-3 -3 -15 -3q0 -11 -8 -8v-7q4 4 8 -5q0 -10 -8 -5v-13q-3 2 -8 -3q-2 -2 -5 0q-2 -4 -2.5 -6t-2.5 -4h-36l3 -3q3 -3 0 -12h-3v-28t-2 -13h-3v-5h3q3 -8 0 -16h-3v-20q2 2 2.5 1t2.5 -6q0 -5 -5 -5v-6h3q3 -8 0 -15h-3v-59h3q3 -11 0 -23h-3v-7h3q3 -24 0 -46
h-3q0 2 1.5 0t3.5 -8q0 -10 -5 -5v-31q3 0 5 -2q-2 -3 -5 0v-31h3q2 -6 2 -9q0 -2 -2 -4h-3v-33h3q3 -26 0 -49h-3l5 -5v-233q3 0 3 -2q0 -3 -3 -3v-71h3q3 -11 0 -18h-3v-11q2 5 5 3t5 -10q0 -9 -7 -5v-13q3 3 7 0q2 -2 2.5 -3.5l0.5 -1.5h13t7 2q6 2 10.5 0t10.5 -7v-18h5
q3 -3 3 -16l10 -10h15q0 -8 5 -8q17 0 30 0.5t21 2.5q8 -2 14 -2.5t12 -2.5v-3q12 0 15 -7v-21q2 2 5.5 -4t5.5 -6h15v-3h66q-2 2 -1 2.5t7 0.5q5 0 6 -0.5t-1 -2.5h20v3q16 2 27 2.5t19 2.5q0 11 10 8v23q11 3 11 7l18 4t17 2q2 0 6 7.5t12 7.5v18q3 0 3 5q0 -3 15 5
q11 4 18 0q8 0 8 3q2 -3 7 -3v-10h3q3 -3 3 -8h2q2 -6 2.5 -23t0.5 -46q4 0 15 -8h33v3q26 0 23 3q2 2 3.5 1t1.5 -7q7 5 11 5h7q3 0 4 1.5t1 9.5h13v7h-5v16q8 0 10 2z" />
    <glyph glyph-name="H" unicode="H" 
d="M662 22v56q-4 2 -5.5 2.5t0.5 2.5q2 3 5 3v15h-3q-3 20 0 41h3v5q-3 0 -5 3v128q-5 3 -5 7q2 3 5 0v174q-5 0 -5 6q-2 2 -0.5 3.5t5.5 1.5v15q-5 0 -5 5h5v15q-5 0 -5 6q-5 3 5 7v56h-3q-3 11 0 18h3v8h-3q-2 6 -2 8q0 3 2 5h3v13h-3q-3 9 0 12h3q-3 3 -3 6q-3 9 0 20h3
v13h-3q-3 49 0 100h3v7q-3 -2 -5 0v197q-5 0 -5 26q-6 2 -8.5 3.5l-2.5 1.5q-17 -2 -31.5 -3.5t-24.5 -1.5q4 -4 -3 -8q-2 3 -2 8h-36q2 -2 1.5 -4t-6.5 -4v-54h5v-43q5 3 5 -8q0 -2 -5 -2v-18h-5q3 -3 5 -3q5 -44 0 -87h-5v-13h5q4 -7 0 -17h-5v-8h5q2 -6 -2.5 -13
t-2.5 -13h5q5 -9 0 -12h-5v-26q5 8 5 -5h-5v-41h5v-23h5q2 -2 2 -5q0 -2 -2 -8q-7 0 -10 -2v-31h-15q0 -2 -7 -2t-9 -6q-9 -3 -15 3q-14 2 -23.5 0.5t-14.5 -3.5v3q-20 0 -31.5 -0.5t-17.5 -2.5q-14 -9 -18 3q-17 2 -31.5 0.5t-24.5 -3.5v3q-8 0 -8 -3q-13 0 -13 3
q-18 0 -20 -3q-10 0 -10 3q-6 2 -14 0.5t-20 -3.5q-20 -3 -33 0q-14 2 -24.5 4t-18.5 4v66q-3 3 -3 5q3 3 3 0v90q-2 4 -2.5 17.5t-0.5 38.5h-5v36h5v18h-5v13h5v36q-5 0 -5 5q-3 2 5 2v56h-5v44h5q-2 3 -5 3v10h-18q-6 2 -24.5 3.5t-49.5 1.5q-6 -6 -11 -8.5t-10 -4.5v-31
h3q5 -19 0 -43h-3v-33q6 4 6 -3q0 -2 -2 -3t-4 1v-16q2 4 4 2.5t2 -9.5q0 -2 -2 -3.5t-4 0.5v-64h3q5 -5 0 -13h-3v-13h3q4 -7 0 -17h-3q7 -10 3 -34h-3q0 -7 6 -7q-3 -3 -6 -3q0 -15 2 -26.5t4 -19.5q2 4 3.5 3.5t1.5 -6.5q3 -10 -11 -10v-64h6v-148q5 5 5 -5l-5 -5v-18
q5 5 5 -5q3 -8 -5 -8v-43q5 5 5 -6q0 -2 -5 -2v-161h5q3 -11 0 -21h-5v-53h5q0 -6 -1.5 -8.5t-3.5 -4.5h5q3 -16 0 -28h-5q2 -2 3.5 -11t1.5 -23q2 2 3.5 1.5t1.5 -6.5q0 -5 -5 -5v-15q5 -6 10.5 -10t9.5 -6h31q0 3 5 3q3 0 3 -3h23v3q8 2 13 2.5t7 2.5q0 11 8 8v13
q0 6 2 10h5v43q-5 0 -7 3v171q-3 3 -3 8h3l2 171h5q-1 1 0 4.5t5.5 7t14 5.5t24.5 -1v-3h8q0 5 5 5q0 -2 2 -5h23v3q6 2 10 2.5t6 2.5l2 -3l77 -2v-3h59v3q2 2 5 2h5q5 0 8 -2v-3h15q-5 5 5 5v-5h21v3q2 2 5 2h5h5t5 -2v-3q4 0 6 1.5t4 3.5l5 -5h11v3q10 7 15 0
q2 -2 3.5 -11t1.5 -23h5v-128h5q4 -18 0 -35h-5v-5h5v-59h-5v-13q5 8 5 -3q2 -2 0.5 -3.5t-5.5 -1.5v-79h5v-82q3 3 16 -5q2 0 0 -3h51v3q22 5 30 5q0 2 3 5l3 3q3 3 10 0q0 5 1.5 8.5t3.5 1.5z" />
    <glyph glyph-name="I" unicode="I" 
d="M539 12v84h-5q-3 3 -3 8h-71v5q-14 2 -25 2.5t-19 2.5q-2 8 -2 21v35h-5v13h5v67q-8 0 -5 2q0 6 5 3v23q-5 0 -5 2q3 5 5 5v26h-5v18h5v5h-5v69q-5 -3 -5 5q0 3 5 3v46h5v46h-5v46h-3q-3 8 0 13h3v7h-3q-3 8 0 16h3v286h5q2 3 2 5q-3 5 -7 5q11 20 15 23q24 10 36 -2
q5 2 54 2q4 6 10 3q-2 2 0 4.5t7 8.5v30h-2q-2 5 -2.5 18.5t-0.5 38.5q-9 0 -12 5q0 -5 -6 -5q-2 2 -2 5q-20 0 -33.5 -1.5t-22.5 -3.5v5q-83 0 -144 -1.5t-102 -3.5q-4 2 -6 2.5t-4 2.5q-8 -1 -11.5 -3t-5.5 -3.5t-3.5 -3.5t-5.5 -3v-10h3q2 -3 2 -8t-2 -7h-3q0 -11 5 -11
q0 -2 -5 -2v-44q2 2 5 0t5 -10h21q5 0 5 -5q3 2 31 2v-2q4 -2 6 -1t4 3l3 -2q9 -2 18 -1t15 3q7 -18 5 -28h5v-112q2 2 4 1t4 -6q-4 -4 -8 0v-34h5q4 -8 0 -15h-5q2 -2 3.5 -10.5t1.5 -22.5h-5v-41h5q4 -8 0 -15h-5q3 0 5 -3q4 -11 0 -20h-5v-36h5q5 -5 0 -13h-5v-28h5
q-2 -6 1.5 -8t3.5 -8q-2 0 -3 -3.5t-7 -3.5v-8h5q6 -4 0 -13h-5v-7h5q4 -11 0 -18h-5v-34h5q5 -11 0 -23h-5v-28q7 0 10 -5q4 -11 0 -18h-2l-3 -46h-5q3 3 8 -7l-3 -177l-17.5 -3.5t-13.5 -1.5v-5h-76q-8 0 -11 -3v-92q6 0 6 -5q11 -2 20.5 -3.5t14.5 -1.5v-3h72q0 3 5 3
q3 0 3 -3h28q0 3 5 3q3 0 0 -3h15q0 6 5 6h13q6 -2 10 -2.5t6 -0.5v-3q7 0 7 3q3 0 3 -3h7q-2 3 6 3q5 0 6 -0.5t-1 -2.5h64v3q17 2 30.5 3.5t22.5 1.5q0 11 13 8z" />
    <glyph glyph-name="J" unicode="J" 
d="M626 201v44h-5q-4 8 5 17h-5q-5 13 0 26h5l-5 5q-2 2 -2 4q0 3 2 9h5h-2q-1 0 -3 2v218q-5 -5 -5 5q2 2 3.5 2.5l1.5 0.5v189h-3q-4 4 0 13h3v38h-3q-2 3 -2 8h-5v15h5q0 3 -5 3q-3 0 0 2q0 6 5 3v9t2 9h3v10h-3q-3 23 0 46h3l-3 2q-3 10 0 13h3l-3 3q-3 19 0 38h3
q0 6 -0.5 6.5t-2.5 -1.5q-2 3 -2 13h-5v18h-3q-3 8 0 13h8v18h-25q-10 0 -16 2v5h-15v-5q-11 -3 -21 0v5q-6 0 -16.5 -3.5t-16.5 -3.5l-5 -57v-23q2 4 2 3v-5q2 -2 1 -3.5t-3 -1.5v-21q3 -11 0 -18v-10q3 -11 0 -20v-29q3 -35 0 -74v-7q3 -12 0 -23v-16q2 4 2 3v-5
q0 -3 -2 -3v-8q2 -5 2 -56q5 8 5 -2q-2 -3 -5 -3v-138h5v-10h6q3 -11 0 -21h-6v-36h-5v-15h5q4 -8 0 -15h-5v-138q5 3 5 -5q-2 -3 -5 -3v-13l5 -5q0 -3 -5 0q0 -15 -2 -18h-8v-5q-32 -8 -46 -8v-51h-5q-3 -2 5 -2q5 -12 0 -23q-8 -5 -10 -8h-36q2 -2 0.5 -2.5t-5.5 -2.5
q-3 2 -3 5l-13.5 -6l-4.5 -2q-4 2 -17 2.5t-34 0.5q0 -2 -5 -5q-2 2 -2 5q-3 -3 -29 -3v3q-25 -2 -43.5 -4t-30.5 -4q-8 5 -15 5v23h-5q-5 8 0 16h5v7h-5q-6 9 0 13h5q-4 10 -5.5 19t0.5 14q-4 2 -5.5 3t0.5 3q-6 -2 -11.5 -4t-9.5 -2v6q-15 0 -15 -3l-5.5 1.5t-15.5 3.5
h-40q2 -2 -6 -2v-26h-5v-41h5q4 -8 0 -15h-5v-11h5q0 -6 2 -8t7 -3t14 -3t23 -9q5 -8 6.5 -15t1.5 -13q3 0 3 -5q14 0 24.5 -1.5t16.5 -6.5q0 -3 7 0q1 -1 2 -1q2 0 3 -3t2 -10t1 -21h5q3 -3 3 -8q-16 0 23 -5t130 -5v-3q5 0 5 3h51q6 4 13 6t13 4v13h5v25q14 0 23.5 1.5
t17.5 3.5q4 0 8.5 11t6.5 15h5q0 13 6 13q9 6 20 9.5t20 3.5v2q5 0 7 1.5t4 3.5l2 74h3v13h15q6 -2 10 -2h6q0 2 3 6t17 4q2 2 2.5 3.5t2.5 1.5z" />
    <glyph glyph-name="K" unicode="K" 
d="M654 37v11q-14 0 -10 7q-15 2 -26.5 3.5t-19.5 1.5q-4 10 -5.5 17.5t0.5 13.5q-5 0 -10 5q2 4 2.5 7.5t2.5 5.5v38h-26v3q-12 3 -18.5 4.5t-9.5 5t-4 11t-1 22.5q-3 0 -3 6q-2 2 3 2q2 17 0.5 29t-3.5 20q-12 0 -7 5h-31q-6 2 -11 3.5t-9 3.5v82q-16 16 -16 13h-13v-5
q-10 -4 -18 0q0 6 -2.5 7t-2.5 11h-2q-6 4 0 13h2v5h-2q0 8 -4 10.5t-4 4.5q0 5 5 5v10q-5 0 -5 6q-2 2 -0.5 3.5t5.5 1.5q0 12 3 12h2l-2 3q-4 11 0 18h2v31h-2q-3 2 -3 12q-33 9 -51 6v7h-5q-5 15 0 18q10 6 36 3q-2 5 1.5 6.5t3.5 3.5q20 0 15 2l3 23h2q0 41 -2 39h2v15
h-2q-5 20 0 41h2q0 13 3 15q25 8 23 11v2h18v5q0 4 2 6l3 84q6 0 21 6t25 4q0 6 8 3q4 29 5.5 48.5t1.5 33.5q1 0 1.5 2.5t3 5t7.5 4t16 -1.5v5q3 2 16 2q0 6 10 6v99q-18 0 -18 5q-10 0 -10 -5q-15 0 -15 5q-52 0 -64 -5q-4 -11 -5.5 -20.5t0.5 -17.5h-3q-2 -2 -0.5 -2.5
t3.5 -2.5q3 -24 0 -46q-6 0 -3 -3q-18 -10 -18 3q-2 0 -6.5 -2.5t-6.5 -2.5v-5h-15q0 -11 2 -13h-2v-5q2 0 3 -1.5t-1 -3.5l-2 -3l-3 -64q-5 2 -7.5 1.5t-2.5 -6.5q-15 -2 -26.5 -4t-16.5 -4q0 -2 -2 -2.5t-6 -2.5v-18h5q-2 -11 -3.5 -28.5t-1.5 -42.5h-18q-6 -2 -10 -2.5
t-8 -0.5v-2q-2 -2 -7 -2.5t-11 -0.5v-36h3q3 -12 0 -23h-3l-2 -31q-6 -4 -11.5 -7t-9.5 -5v5q-29 -8 -41 -8l-2 -31q-6 -3 -13 -7v-5q-21 -5 -41 0q0 10 -5 5v84h-5q-2 14 -2.5 33.5t-0.5 45.5q-2 3 -2 8q0 3 2 3v266l-14 7t-11 5q-29 0 -41 -5v5q-14 -2 -24.5 -2.5
t-16.5 -2.5q4 -4 -3 -7q0 -16 -2 -18h-3v-13h3q2 -3 2 -8q0 -7 -2 -10h-3v-36q2 2 2.5 0t2.5 -7h-5v-62q5 8 5 -7q-2 -3 -5 -3v-23h3q2 -2 2 -5v-5v-6q0 -3 -2 -5h-3v-23q5 10 5 -7q-2 -3 -5 -3v-13h3q2 -2 2 -10q0 -10 -2 -13h-3v-28h3q2 -2 2 -5v-5q0 -10 -2 -13h-3v-5h5
v-235q2 0 3.5 -1.5t-0.5 -3.5h-3v-67q3 3 3 -5q3 -8 -3 -8v-17h3q3 -16 0 -31h-3v-18q3 2 3 -3q2 -2 0.5 -3.5t-3.5 -1.5v-13h3q3 -7 0 -17h-3v-36q3 2 3 -8h-3v-36h3q3 -8 0 -15h-3v-61h3v-52q8 5 8 -7q0 -3 -8 -3v-15h5q2 -6 4 -8.5t4 -4.5q14 -6 25 -8t21 -2q14 4 23 6
t15 4q2 -2 2.5 -3.5l0.5 -1.5q10 3 15 8v145q-8 -3 -8 3q0 8 8 8v10h-5q-5 7 0 15h5v36h-5q-4 11 0 18h5v8q-8 -5 -8 5q0 5 8 5v102q-8 -3 -8 5q0 3 8 3q0 5 -5 5q-6 4 0 13h5v43h5v13q6 2 11 2h10q3 5 15 -2q2 -3 0 -5q10 0 15 -5v-13h3q2 -3 2 -15q5 3 5 -6q25 -7 44 -7
q3 7 8 -5v-13h5q2 -4 2 -10v-13q6 -2 15 -4.5t11 -8.5q8 6 12 8t6 2q0 -8 5 -5q2 -2 3.5 -10.5t1.5 -22.5h5q2 -4 2.5 -9.5t0.5 -13.5q2 2 2.5 1.5t2.5 -4.5q0 -5 -5 -5v-13h2q3 0 3 -12q5 5 10 -8q14 0 23.5 -1.5t17.5 -3.5v-23q2 4 2 3v-6q2 -2 1 -3.5t-3 -1.5v-20h2v-39
q6 0 18.5 -5t20.5 -5v-2q8 0 9 -4.5t1 -21.5h3v-54q9 0 12 -5v-8h16q-3 3 2 3q3 0 3 -3l25 -2v-21h6v-7h2q2 -2 5.5 -10t7.5 -8h11t9 2q0 -2 5 -2q6 0 6 -5q5 2 7 2h5q-2 -2 26 -2q2 2 4 3.5t6 1.5q6 0 8.5 1.5t4.5 3.5q4 11 5.5 20.5t-0.5 17.5h5z" />
    <glyph glyph-name="L" unicode="L" 
d="M658 4v97q-64 0 -110.5 0.5t-78.5 2.5q2 -3 -6 -3l-2 3q-25 0 -33.5 -0.5t-2.5 -2.5v3q-8 3 -8 -3v3h-41q-26 0 -71 2h-110q-3 3 -28 3v11t2 7h5v20h-5q-3 8 0 16h5h-5q-3 38 0 76h5q-2 0 -5 3q-3 11 0 20h5v8h-7v453v31v35q-4 41 0 82q-2 10 -2.5 35t-0.5 70
q-6 0 -6.5 0.5t1.5 2.5h-72q0 -3 -5 -3v3q-8 3 -15 0q-6 -2 -9.5 -2.5t-5.5 -0.5v-230h5v-62h-5v-74h5q3 -9 0 -20h-5v-31h5q3 -27 0 -54h-5q2 -2 5 -2q3 -23 0 -46h-5v-23h5q3 -7 0 -16h-5v-10h5q3 -10 0 -20h-5v-10h5q-1 -4 0.5 -11t3.5 -15t3 -15.5t-2 -12.5h-5v-49h-5
v-5h5q3 -28 0 -51h-5q-3 -3 5 -3q3 -12 0 -25h-5q-2 -2 -0.5 -3.5t5.5 0.5q3 -10 0 -20h-5q-3 -3 5 -3v-97h5q3 -8 -5 -13q2 2 3.5 1.5t1.5 -6.5h-5v-25h5v-18q0 -2 9 -3.5t11 -9.5h46q6 6 10.5 8t10.5 2v-5q14 -2 23.5 -2.5t17.5 -2.5q0 5 5 5v-5h36q2 2 2.5 3.5t2.5 1.5
v-5h25v-3h16v3h18v-3q2 0 2 3h44v-3h15v3q6 2 11 3.5t7 1.5q14 2 28 0.5t31 -5.5v-3h15q-4 4 0 8q16 0 25 -1.5t11 -3.5q15 2 26.5 2.5t16.5 2.5q16 0 16 -5h94q6 6 10.5 8t10.5 2z" />
    <glyph glyph-name="M" unicode="M" 
d="M659 71q0 5 -2 5q-4 7 0 18h2l-2.5 0.5t-2.5 14.5h-2q0 10 2 10l3 151h2q-2 17 -3 28t1 16h2l-1.5 1.5t-3.5 5.5v230q-2 3 -2 36h2v57h-2v53h-5q-5 13 0 26h5v23h2q-2 2 -2 33h2v31q-2 0 -2 5q-3 2 2 2v13h-2q-5 7 0 18h2v10q-2 0 -2 6q0 2 2 2l-2 3q-5 11 0 30h2
q0 5 -2 3v51h-5q-2 6 -2 8q0 3 2 5h5v10q-11 0 -8 3q-13 0 -18 5q0 -5 -5 -5q-3 2 -3 5q-5 0 -5 -5q-48 0 -76 5q-12 -4 -20 -6t-14 -2l-2 3q-8 0 -13.5 -0.5t-9.5 -2.5l-3 -51h-5v-10q4 3 8 -3q0 -2 -8 -2v-18h5q4 -24 0 -46h-5v-31q2 2 4 1t4 -6q0 -5 -8 -5v-16
q-14 -5 -17 -5t-11 -2q-3 2 -3 5q-8 1 -11 -0.5t-5 -3.5t-3.5 -4t-5.5 -2v-82q-21 -8 -56 -8q9 2 -6 2.5t-53 0.5q0 4 -8 7v57q-12 17 -8 30q-23 0 -36.5 1.5t-19.5 3.5v16h-2q-5 3 0 12h2q0 6 -2.5 8.5t-2.5 12.5h-3q-2 2 -2 5v5v5t2 5h3l3 26h2v26h-2q-2 11 -2.5 28
t-0.5 38q-4 -3 -8 8q-5 -2 -8.5 -3.5l-3.5 -1.5h-144q0 -3 -10 -3v-84q5 3 5 -5q0 -6 -5 -6v-64q2 5 3.5 3t1.5 -8q0 -2 -5 -2v-8q5 5 5 -5q0 -8 -5 -8q0 -4 1.5 -6t3.5 -4q-2 -2 -5 -2v-13h5q4 -7 0 -16h-5v-225q5 5 5 -2q0 -8 -5 -8v-31q5 0 5 -5q-2 -2 -5 -2v-23
q5 3 5 -8h-5v-13h5q5 -13 0 -25h-5q0 -4 1.5 -6.5t3.5 -4.5q-2 -2 -5 -2v-18q5 5 5 -5q-2 -3 -5 -3v-30h5q5 -12 0 -23h-5v-44h5q5 -28 0 -51h-5v-5h5v-87q8 0 5 -3q0 -2 -5 -2v-115q-1 -1 4 -3t12 -4.5t14 -4t11 -1.5v-3q10 0 10 3l3 -3q10 6 36 3v-3q2 0 12 6.5t16 6.5v92
q-5 0 -5 5q0 2 5 5v16q-5 0 -5 5q0 2 1.5 2.5t3.5 2.5v284q-5 0 -5 5q-5 5 5 5v18h-3q-3 10 0 21h3q0 7 -5 7q-5 5 5 5v62h-3q-3 7 0 15h3v10h-3q-3 10 0 21h3q-3 0 -3 2q-3 20 0 44h3q0 7 -5 7q2 3 5 0v22q0 9 2 14q8 0 8 3q3 0 3 -3l30 -2v-3q2 2 4.5 0.5t8.5 -5.5
q0 -14 4 -36t4 -36q2 2 3.5 1.5t1.5 -6.5q1 0 5 -1.5t9.5 -3.5t11.5 -3.5t10 -1.5v-3q4 1 7 1.5t5 -3t2.5 -12t0.5 -24.5h3q2 -6 2 -17v-24h3q2 -4 2 -15v-28q3 0 16 -13h7q0 -3 3 -5q6 2 11 2.5t9 2.5v-5q35 8 51 5v5q2 0 6 4t10 4v18h-5q2 4 2.5 7t2.5 5v85h5q-2 2 -1.5 5
t6.5 5q3 3 20 3q9 15 21 7q0 10 10 13v38q-5 0 -5 6q-5 5 5 5q0 12 3 15q14 8 23.5 11.5t19.5 1.5q0 -2 5 -4t5 -4q2 -6 2.5 -19.5t0.5 -39.5h3v-61h-3v-21q3 0 3 -2v-215h5q3 -5 0 -15h-5v-57h5v-61h-5v-84h5q3 -17 0 -29h-5v-33h5q3 -3 0 -13h-5v-7h5q2 -6 6 -7t12 -11h33
q5 5 8 5v-5q17 2 29 5t22 5q0 3 2 3l3 64h2z" />
    <glyph glyph-name="N" unicode="N" 
d="M660 4v177h-5v23q-2 -2 -4 -2q-1 0 -1 4q0 8 5 8v25h5v85h-5v20h5q0 8 -5 8q3 3 5 0v92h-5v41h5v66h-5v23h5v13h-5v18h5q-2 3 -5 3v15h5l-1.5 0.5t-3.5 2.5v353q-7 0 -18 1t-23 1.5t-24 1.5t-19 1q-13 0 -26 -8l-2 -31h-5v-10q7 4 7 -8q-3 -8 -7 -2v-10q3 8 7 -5
q0 -3 -7 -3v-8h5q3 -19 0 -43h-5v-92q7 3 7 -5q0 -4 -7 0v-18h5q3 -20 0 -39h-5v-20q7 3 7 -5h-7q-3 -3 5 -3v-56h-5v-13h5q3 -27 0 -54h-5q0 -2 5 -2q3 -20 0 -38h-5v-29h5q3 -9 0 -20h-5v-5h5q3 -21 0 -41h-5v-26h5v-53h-5v-26q-5 2 -12 0.5t-17 -3.5q-18 -3 -28 3v8h-5
v56q-7 0 -7 3q3 3 7 0v23q-21 2 -36 3.5t-25 1.5v25q-5 0 -5 3q-2 2 -0.5 3.5t5.5 1.5q0 5 -5 5v15h5v39h-7l2 2q-20 2 -33.5 2.5t-23.5 2.5q-2 6 -2 15v24h-3v15h3v74q-2 0 -5 5.5t-5 5.5q-6 -6 -13.5 -7t-17.5 1q-10 8 -15.5 9t-5.5 9h-2q-2 2 -2 4q0 3 2 9h2v39h-2v58h2
v11q-5 5 -5 7q-16 0 -27 1t-17.5 5t-9 12.5t-2.5 22.5h-2q-4 11 0 18h2v33q-6 0 -6.5 1.5t1.5 3.5q-23 9 -36 6v2q-6 0 -11 0.5t-9 2.5v58h-5v21h-3q-5 5 -3 8h-35v5q-6 -2 -9.5 -3.5l-3.5 -1.5h-54q0 -3 -5 -3v-133h5q6 -4 0 -13h-5v-38h5q4 -7 0 -18h-5v-33q5 8 5 -3
q-2 -2 -5 -2q-2 -6 1.5 -5.5t3.5 -7.5h16q0 -6 1.5 -8.5t3.5 -4.5q-3 -1 -3.5 -2t-2 -2.5t-4.5 -2.5t-11 -1v-30h-5q0 -3 5 -3q5 -62 0 -120h-5v-8h5q4 -37 0 -79h-5l1.5 -0.5t3.5 -2.5q5 -11 0 -23h-5q-2 -5 1.5 -4.5t3.5 -5.5q0 -8 -5 -8v-28q5 5 5 0v-386q21 -8 21 -10
h58q14 6 23.5 9t15.5 1v46q-8 0 -5 3q0 2 5 2v190h-5v12h5v26h-5v25h5v330q-5 0 -5 6q-2 2 -0.5 3.5t5.5 1.5q0 10 2 12h3v13l49 -2v-3q-2 -2 0 -3.5t7 -1.5q4 -7 0 -18h-5v-15h5q5 -16 0 -31h-5q0 -30 8 -46h2q5 0 5 -13q14 -2 25 -3.5t19 -1.5q2 -11 3.5 -19t1.5 -14h3
v-51q9 -6 15 -8.5t10 -4.5q10 0 17 -1.5t11 -3.5v-8h3q2 -5 2 -18h6q3 -10 0 -20h-6q-2 -2 -1 -3.5t7 -1.5v-75q2 0 5 -6t5 -6h13q4 -2 7 -2.5t5 -0.5v-5h16v-5q2 0 6 -5t4 -21h5v-15h-5v-38q2 2 5 -0.5t5 -10.5q2 2 5.5 1t7.5 -3q2 2 8 2q19 0 25 -10v-20h5v-62
q2 2 4.5 -2.5t8.5 -4.5q14 -2 24.5 -2.5t16.5 -2.5l0.5 -2t2.5 -4q3 -4 0 -7h5q2 -6 2 -16v-23h3q3 -9 0 -12h-3v-8h3v-13q4 2 14 -4t24 -6v-3h28v3h36q0 10 10 10z" />
    <glyph glyph-name="O" unicode="O" 
d="M660 106v77h-5q-3 12 0 28h5v264h-5q2 4 2.5 7.5t2.5 5.5v161q-2 -2 -3.5 -1.5t-1.5 6.5q0 2 1.5 3t3.5 -1v57q-2 -2 -3.5 -1.5t-1.5 6.5q0 4 1 4q2 0 4 -2q2 14 -2.5 27t-2.5 27h5v36h-5v71q-4 2 -5.5 3t0.5 3q-29 8 -41 5q0 3 -2 3.5t-4 1.5t-3.5 2t-0.5 5q-5 0 -5 26
q-15 0 -10 8q-20 4 -31 5t-15.5 3.5t-5 9t-0.5 23.5q-25 5 -43.5 8.5t-30.5 1.5q-17 0 -29 -0.5t-22 -2.5v3q-10 0 -10 -2q0 -1 -8 -3v5q-35 0 -59 -0.5t-38 -2.5q-15 -2 -28 -1.5t-23 4.5q-4 -2 -13.5 -2.5t-24.5 -0.5q0 6 -16 3q-13 -8 -15 -8v-38q-3 -3 -5 -3
q-6 -2 -11 -1.5t-7 4.5q-12 0 -20 -1.5t-13 -3.5q0 -11 -3 -13h-3l-2 -31h-13v-2q-2 0 -9.5 -1.5t-21.5 -3.5q0 -2 -5 -4t-5 -4v-51h-5q-3 -3 5 -3q4 -8 0 -15h-5v-41q5 3 5 -5q0 -2 -5 -5v-13q3 2 5 0v-560h3q2 -14 2 -32v-42q21 -6 34 -11t15 -7q6 -10 8 -19t0 -15
q19 -8 29.5 -10t17 -3.5t10 -4.5t9.5 -12v-18q5 8 5 -3q10 0 27 -5t27 -5v-3h8v3h17v-3h13v3h21v-3h51v8q2 3 25 3q6 -2 10 -2.5t8 -0.5q0 -2 4 -2t4 -6h31q2 3 7 3v-3h34q2 3 7 3v-3h28v3h16q0 7 18 10v26q8 10 15 12.5t15 0.5v5q2 0 10 4.5t16 2.5q-2 6 1.5 12.5t3.5 8.5
h5q-3 8 5 13h21q0 10 15 10v2h10zM548 375h-5v-207q-20 -6 -34.5 -8.5t-24.5 -4.5q0 -5 -3 -5v-15q3 2 3 -3h-3v-15q-12 0 -12 -5q-33 0 -56.5 -2t-38.5 -4q-6 2 -10 3.5t-8 -0.5q-20 2 -46 2.5t-61 0.5q-9 11 -16 7q0 15 -0.5 23.5t-2 12.5t-5 4.5t-10.5 0.5
q-4 2 -13.5 2.5t-24.5 0.5q0 5 -5 5v13h-5v10h5v164l-5 5h5v120q-3 2 -5 0h5v51h-5v31h5v66q-3 3 -5 3h5q-2 2 -2.5 3.5t-2.5 1.5v20h5v13h-5v31h5v31h-5v20h5q-2 2 -2.5 3.5t-2.5 1.5v10q8 0 5 8q0 6 -1.5 6.5t-3.5 -3.5v12h5v28q2 0 5 4t5 4v3q17 0 31.5 7.5t14.5 12.5h5
v18h5q2 2 4.5 9.5t16.5 5.5q2 -2 6 -2t4 -5q10 0 5 5q10 0 17 -0.5t9 -2.5q5 -2 17 -1.5t31 4.5q0 2 3 2q-3 -2 0 -2q5 0 5 -3q14 -2 29 -0.5l35 3.5v2h8v-2q13 -4 24 -6t17 -4q0 -8 2 -8h3q0 -10 6 -19t6 -7q8 -2 13.5 -3.5t9.5 -3.5q0 -3 3 -5q4 2 5.5 2.5t-0.5 2.5h8
q0 -6 1.5 -6.5t5.5 1.5v-21h3q0 -19 0.5 -32.5t2.5 -23.5h5v-13h-5l-3 -215q3 -2 8 -2v-46q-8 0 -8 -3q0 -10 8 -5v-77h5v-10z" />
    <glyph glyph-name="P" unicode="P" 
d="M658 603v99h-3q-3 8 0 18h3q-5 5 -5 31q-8 0 -5 3q0 3 5 0l2 25h3v13h-3q-2 5 -2 41q-6 2 -6.5 2.5t1.5 2.5q-31 6 -41.5 5.5t-10.5 7.5q-8 20 -5 30q-5 0 -5 3q-15 2 -26.5 3.5t-16.5 1.5q-19 12 -16 49h-33q2 -2 0.5 -2.5t-5.5 -2.5v5h-15q-4 10 -5 10q-3 2 5 2v13h-5
v16q-13 0 -8 5q-14 0 -22.5 -0.5t-10.5 -2.5q-30 0 -46 8q-26 -4 -26 -8q-12 0 -32 1t-41 2.5t-41 3t-32 1.5q-4 0 -8 -0.5t-10 -2.5h-18v3l-43.5 -6l-14.5 -2v3q-8 0 -8 -5v5h-51q2 -2 -5 -5v-11h5q3 -20 0 -41h-5v-17h5v-23q5 5 5 -3q-2 -2 -3.5 -7.5t-6.5 -5.5v-43h5
q3 -11 0 -21h-5v-15h5q3 -16 0 -28h-5v-210q7 0 5 -3q0 -2 -5 -2v-38h5q-2 -6 -2.5 -10t-2.5 -6h5q3 -16 0 -28h-5v-10l5 -5q0 -2 -2 -2q-1 0 -3 2v-51h5q3 -11 0 -18h-5v-34l5 -5q0 -2 -2 -2q-1 0 -3 2v-12h5q3 -5 0 -13h-5v-36q2 4 3.5 3.5t1.5 -6.5q2 -2 0.5 -3.5
t-5.5 -1.5q-2 -2 -0.5 -3.5t5.5 -1.5q3 -21 0 -41h-5v-13h5q3 -3 0 -12h-5v-8h5q3 -15 0 -33h-5h5v-51h5q3 -12 0 -16h-5v-92q-1 -1 2.5 -2.5t8.5 -3.5t9.5 -4t4.5 -5q16 2 27 2.5t19 2.5v-5q11 10 11 5q-13 -5 20 -5q0 10 10 10v13h5v36h-5q-3 9 0 20h5v79h-5q-3 8 0 16h5
v5h-5q-3 7 0 15h5q0 3 -5 3q-3 0 0 5q0 5 5 0v54h-5q-3 22 0 46h5q0 13 -5 10q3 2 5 2v21h-5v59l5 2q-8 4 -5 36h5q0 9 2 12.5t5 5t5.5 2t3.5 3.5q2 -4 2.5 -6t2.5 -4h56q0 5 5 5q3 0 3 -5h38v5q11 3 18 0v-5l8 7q5 -2 15 -2h28v-5h59v5q5 2 10 2q8 5 16 -2q5 5 7 5v-5
q10 0 14 3t4.5 6.5t-0.5 6.5t0 4l3 18q2 6 7 8.5t13 4.5q0 -2 3 -5h13l3.5 5t8.5 5q4 11 8 8v13h5q0 8 3 14t7 6q6 2 11 2t7 -4q3 2 23 2q4 14 6.5 23.5t4.5 14.5q11 5 20.5 6.5t14.5 1.5v5q3 3 16 3q0 10 2 13h3zM545 684h-2q-2 -4 -2.5 -11.5t-0.5 -21.5q-10 0 -5 -5
q0 -2 5 -2v-26h-5q-2 -2 -2 -5q0 -2 2 -8q-15 -8 -26 -5v-5h-30q-4 -7 0 -18h5v-8h-5q-3 -2 -3 -15q-5 0 -10.5 -0.5t-7.5 -2.5q0 4 -10 0l-14 -3.5t-12 -1.5q-25 4 -97 0q-4 7 -10 3q-11 -2 -20.5 -3.5t-17.5 0.5q-14 4 -25.5 4.5t-20.5 -1.5q-21 0 -23 -3q0 3 -13 3
q0 4 -10 -3q-8 6 -12 8.5l-4 2.5v81h-2v72h2q2 10 2.5 19.5t0.5 18.5q0 10 -0.5 18t-2.5 18h-2v16q2 0 2 2q0 5 -2 5h2v49q6 4 8.5 7.5t4.5 5.5q17 2 29 2h22h18q2 -2 5 -3.5t5 -1.5q4 0 7.5 1.5t5.5 3.5q17 5 23 5q0 4 13 -7q8 0 5 2h13q0 -2 8 -2q7 0 5 2h33
q2 -2 5.5 -3.5t7.5 -1.5q2 0 5 1.5t5 3.5h25q-2 0 0 -2q8 0 6 2h20q3 -2 21 -2v-11h5q0 -15 2 -15q0 -8 6 -13t12 -7q12 -5 15 2q14 2 17.5 -5t3.5 -13h5v-41h5v-25h-5v-26q5 5 5 -5q-2 2 -4 2q-1 0 -1 -2q-2 -4 1.5 -6t8.5 -2v-18z" />
    <glyph glyph-name="Q" unicode="Q" 
d="M659 4v51q-8 0 -12 1.5t-6 3.5q-20 0 -33 -5q0 -6 -7 8q-2 4 -2.5 15t-0.5 28q-16 2 -27 4t-19 2q-6 9 -8 12.5t-2 -0.5q0 3 5 3v13h15v5q6 0 17 6.5t19 6.5l3 17h2q0 2 7.5 11.5t30.5 9.5v5h8q0 8 10 8v128h-5v20h5v10h-5v13h5v13h-5v15h5v80q-5 0 -5 2q3 3 5 0v28h-5
v16h5v7h-5q0 21 1.5 32.5t3.5 13.5l-5 3v84h5q0 6 -5 3v43h-2q-5 8 0 16h2v53q-4 0 -5.5 1.5t0.5 3.5q-17 0 -25 -5q-10 6 -16.5 8.5t-12.5 4.5q-2 6 -2 27v58h-7l2 2l-51 3q0 5 -3 5q-2 5 -2.5 14.5t-0.5 23.5q-43 11 -63 8v41q-16 0 -18 2v3h-25t-16 2v3q-26 0 -26 -5
h-141v-3q0 -2 -7 -2l-3 -26h-5q0 13 8 -8q0 -5 -8 -5q-23 -4 -33 -5.5t-8 -1.5l-10 -11v-28q-10 4 -10 -7q-6 -2 -17.5 -2.5t-28.5 -0.5q0 -6 -1.5 -6.5t-3.5 1.5v-38h5q3 -10 0 -13h-5v-26h-6q2 -4 1 -7.5t-3 -5.5h-54v-61h-5q0 -5 5 -5q-2 6 -3.5 2t-1.5 -20h5v-107h3
q3 -12 0 -23h-3v-41q4 0 5.5 -1.5t-0.5 -3.5q0 -3 -5 -3v-5q4 0 5.5 -1.5t-0.5 -3.5q0 -3 -5 -3l3 -2q4 -9 0 -13h-3v-115h3q3 -16 0 -31h-3v-43q5 8 5 -8q0 -2 -5 -5v-10h3q3 -24 0 -44h-3v-13q8 0 5 -2q0 -3 -5 -3v-77q4 -8 5.5 -15t-0.5 -13h5v-10h3q3 0 3 -8q11 0 15 -7
q3 3 15 -5v-5q3 2 5 0q0 -1 1.5 -1.5t4 -3.5t4 -9.5t1.5 -19.5q2 2 3.5 1t1.5 -3q12 0 15 -3v-2q17 0 23 -6q11 0 19.5 2t13.5 4v5q18 -11 34 -11q-2 -2 4 -5.5t6 -9.5h2q3 -2 3 -20q21 -13 36 -13v-3h12v3q11 3 18 0v-3h18v3q6 2 14 2h20h33q5 0 12.5 9t12.5 9v36
q-2 0 -2 5q-2 2 -1 3.5t3 1.5l3 18q2 0 5 3q4 11 26 8v5q4 4 18 0q12 -5 7 -21h5v-66q0 -2 10.5 -3.5t10.5 -7.5h128q9 5 17 6.5t13 1.5zM547 293h-3l-2 -74q-11 0 -11 -5v-5h-46q0 8 -5 5v18h-5q0 5 1.5 9t3.5 6h-5v38h5q0 6 -5 6v10q-56 8 -66 5q-4 -2 -10 -2.5t-16 -0.5
q-2 3 -20 3q0 13 -5 8v74h-6q0 11 -17 18q-6 0 -6.5 -1.5t3.5 -3.5h-13v5q-4 4 -13 0v-5h-30q0 5 -3 5q-6 0 -6.5 -1.5t1.5 -3.5h-28q-2 -2 -2.5 -7.5t-0.5 -10.5h-2q-5 -25 0 -51h2q0 -14 2.5 -21t6 -10.5t7 -5t5.5 -4.5l25 -3q6 -4 8.5 -6l2.5 -2v-20h5q0 -10 9 -14l9 -4
q0 5 18 5q2 2 12 -5q-3 -10 11 -10v-82h2v-13h-2v-23q-6 0 -8 -2q-45 0 -71.5 -2t-36.5 -4q5 9 -7 6q0 13 -0.5 22.5t-2.5 15.5h-5v5l-51 3q0 5 -0.5 6t-2.5 -1v25q5 0 3 3q0 6 -0.5 6.5t-2.5 -1.5v89q5 0 3 3q0 6 -0.5 6.5t-2.5 -1.5v8h3q3 10 0 18h-3v30t-2 21h-5v10h5
q3 13 0 26h-5v15h5q3 36 0 51q-5 8 -5 5h5q3 7 0 18h-5v23h5q3 20 0 41h-5v15h5l2 85q-7 0 -7 15h5l2 41q4 6 6.5 11t4.5 7h7v-5q7 -5 18 0v5q16 8 18 8v13h5q5 26 0 53h-5v8h5q2 2 2.5 5.5t0.5 7.5q25 7 46 7q0 7 1.5 9.5t3.5 4t3.5 4.5t1.5 11q5 0 3 10q11 3 15 10v-5
q26 -4 49 0v5h7v-5q14 -2 25 -3.5t19 -1.5v-10h5v-18h2v-11q5 1 12 0t14.5 -2.5t14.5 -3t11 -1.5q0 -8 7 -8v-74q6 -10 16 -10l30 -3q0 -8 10 -8q0 -10 3 -12h3v-13h5v-39q-4 -2 -6 -2q-1 0 1 0q-5 -5 0 -5q2 -2 3.5 -2.5t1.5 -2.5h-5q-5 -35 0 -75q4 2 5.5 1t-0.5 -3h-5
q-5 -21 0 -41h5q0 -10 2 -13h3v-5h-3l-2 -48h-5q-5 -10 0 -13h5v-82h-5q-2 -2 -2 -5q0 -2 2 -8h5v-41q-10 0 -5 -5q0 -2 2 -7t8 -11z" />
    <glyph glyph-name="R" unicode="R" 
d="M659 4v100q-21 2 -38 4t-28 4v46h5v7h-5v39q-28 8 -44 5v5q-10 0 -12 2q-4 4 0 16h5h-5q-5 12 0 25h5q0 6 -5 19.5t-3 21.5q-2 0 -6.5 4t-6.5 4q-25 -5 -30 -3q-2 2 -10 5.5t-8 5.5q2 2 7 2v8h-5q-3 7 0 15h5h-5q-2 2 5 13h-5q-2 10 -2 23v31q-17 2 -29 2h-20q-5 15 0 31
q8 0 8 5q2 -2 2 -4v-1h23q0 8 16 8q0 12 2 12h5v18q8 2 12 3.5t6 1.5v6q6 0 13 4.5t13 2.5q11 20 7 31h3q-2 2 0 5t8 5h5q4 0 10 -2h18q0 5 6.5 6t16.5 6l3 21q0 12 7 15q21 13 41 13q10 4 10 8v41q-2 -2 -4 -2q-1 0 -1 4q0 2 1.5 3.5t3.5 -0.5v46h-5q-3 15 0 30h5v13h-5
q-3 7 0 16h5q0 8 -5 5v82q-8 0 -5 5h-20q3 -5 -3 -5q-2 2 -2 5q-26 0 -31 2v41l-33 3v5q-21 0 -23 2q-6 10 -7 19.5t1 19.5q-10 0 -7 2q-17 2 -29.5 4t-21.5 4q-5 3 -5 28h-3q-5 0 0 8q-33 0 -38 2v3h-136q2 -2 0 -2.5t-8 -2.5q-8 0 -5 5h-61v-3q-5 -3 -15 0v3h-16v-3
q-23 -3 -48 0v3h-64q0 3 -21 -5q0 -11 -5 -8v-28h5v-56q5 8 5 -5q-2 -3 -5 -3v-343q2 4 2.5 3.5t2.5 -5.5q-2 -2 -3.5 -2.5l-1.5 -0.5v-10q5 0 5 -5q-2 -3 -5 -3v-112h3q3 -11 0 -18h-3q0 -13 5 -13q0 -5 -5 0v-8q5 0 5 -2q-2 -3 -5 -3v-7h3q3 -9 0 -16h-3v-7h3q3 -11 0 -21
h-3v-26q2 5 3.5 3t1.5 -8q0 -8 -5 -5v-112h3q3 -12 0 -23h-3v-8h3q3 -42 0 -84h-3q-1 -1 0 -2t2 -4.5t2 -12.5t1 -25q2 2 2.5 1t2.5 -3q10 -2 17.5 -4t13.5 -4v-3q3 0 3 3q11 3 23 0v-3q17 4 29 6.5t22 4.5q0 5 2 5v56q-2 0 -2 5q-2 2 -1 2.5t3 2.5v26q-2 2 -2 7q0 3 2 0v57
q-5 0 -2 2q0 3 2 3v56h-2q-5 7 0 15h2v62h-2q-5 7 0 15h2v36h-2q-5 27 0 54h2q0 18 3 20q2 8 5.5 10t7.5 -2h2q8 2 13.5 3.5t9.5 1.5q45 3 69 -5q0 10 11 -8v-13h5v-12q9 -8 20 -8q2 -2 2.5 -3.5l0.5 -1.5h20q4 3 8 -8v-10h5q2 -8 2.5 -21t0.5 -30q2 2 2 1v-6q3 -3 -2 -3
q-8 0 10 -18h20q-7 4 3 8q2 -3 2 -8q10 2 14.5 1t6.5 -3v-13h2q2 -6 2.5 -17t0.5 -27h2q5 -9 0 -12h-2v-8q6 0 8.5 -3.5t7 -8t13.5 -8t27 -3.5v-8h5v-77h3q2 -5 5 -4.5t3 -7.5q27 11 43 0q3 -3 3 -8h5v-44h5q3 -10 0 -17h-5v-8q8 2 9 -1.5t1 -11.5q13 -8 23 -8q2 0 8 6v-6
q44 -3 71 6q0 2 5 2zM542 700h-5l-3 -92q-21 -4 -34.5 -7.5t-19.5 -5.5q-5 -14 -8.5 -25t-3.5 -19h-24q3 3 -5 3q-10 0 -7 -3h-18v3q-8 0 -8 -3h-164q3 3 -2 3q-3 0 -3 -3h-20v3h-41q0 8 -3 10h-2v108h-5v5h5v120h-5v10q2 -2 3.5 -0.5t1.5 3.5t-1.5 3.5l-3.5 3.5q-3 0 0 3h5
v44q2 4 5 6t5 4h48t3 2q0 -2 10 -2q23 2 40 5t27 5v-5q6 -2 16.5 -2.5t24.5 -0.5v-2q5 0 8 2h107q8 -8 8 -5q0 -14 2.5 -22.5t6 -12.5t8 -5.5t8.5 -2.5h26q0 -13 7 -13h3q0 -37 0.5 -65t2.5 -48q2 2 3 2q2 0 2 -4z" />
    <glyph glyph-name="S" unicode="S" 
d="M659 117v33q-5 0 -5 5t5 5v49q-5 2 -6 2.5t1 2.5q3 2 5 2q0 26 -5 39q-2 -2 -3.5 -0.5t-1.5 5.5q0 2 5 2v26h5v10h-5v64h5q0 31 -5 44q-10 0 -10 5q-15 2 -26.5 2.5t-16.5 2.5q-3 0 -3 20q-4 0 -5.5 1.5t0.5 3.5h5q0 22 -1.5 35.5t-3.5 21.5l-33 2v5q-2 0 -6 0.5t-10 2.5
h-13q-4 0 -11.5 -0.5t-18.5 -2.5q-14 -3 -26 0q0 2 -3.5 4t-3.5 4q0 5 7 5q0 2 -3.5 5.5t-3.5 17.5q-2 0 -5.5 4t-5.5 4q-21 4 -38 6t-28 2v5q-3 0 -3 -5q-19 -4 -38 0q0 5 -3 5q0 5 3 2v28h-3q-3 4 0 11q-9 6 -12 2l-47 3q-2 14 -2.5 24.5t-2.5 16.5q-2 -2 -3.5 -0.5
t-1.5 5.5h-61q2 -3 -3 -5q-2 2 -2 5h-27t-19 2v169q2 -2 4.5 3l2.5 5q10 6 19 8t15 2v3h18q-2 -4 -1 -6t3 -2q22 -5 36 -5q0 6 9 7t11 3v15h5q0 31 21 31q3 0 0 -5q13 0 15 -3l3 3q58 0 92.5 -0.5t45.5 -2.5q4 0 0 -10h3q2 -2 2 -7v-13h5v-57q6 6 10 -7h36q2 5 7.5 -4.5
t5.5 -26.5q2 -4 2.5 -17.5t0.5 -36.5q11 -5 20.5 -10.5t17.5 -7.5q6 0 14 4t14 4v-2h31q2 2 5 2h5q7 18 10 18v33q-2 -2 -3.5 -0.5t-1.5 5.5q0 6 5 6v15h-2q-5 8 0 13h2v59q-2 -2 -3.5 -0.5t-1.5 5.5q-17 2 -30 2.5t-21 2.5q-5 8 -5 38h-5q-4 7 0 18h5q-6 11 -6.5 20.5
t1.5 15.5q-8 3 -19 2.5t-20 2.5t-15 11t-3 27h-5v8h-56v-3q-38 -3 -72 0v3h-79q3 -3 -2 -5q-3 2 -3 5q-8 -2 -17 -3.5t-19 0.5v3h-36q-5 -6 -9 -10t-6 -8v-26q-37 -2 -65 -3t-47 1q2 -2 -6 -5v-41h6q-5 -14 -6.5 -23.5t-1.5 -14.5q0 -3 1 -5.5t-2 -4t-12.5 -2.5t-30.5 -1
q0 -2 -6.5 -5t-8.5 -5v-233h5v-8q5 0 5 -5h21q-2 2 -1 3.5t3 1.5q6 -8 12 -12t11 -6v-18h3q2 -2 2 -7h6v-8q-2 -2 1 -4l9 -6q11 -2 20.5 -2.5t15.5 -0.5q5 0 5 -28h5q2 -6 3.5 -4.5t1.5 -8.5q36 0 38 -2q16 2 27 2h22q13 5 20 -2q8 -21 8 -31h3v-8q-1 -1 2.5 -2.5t8.5 -3.5
t9.5 -4t4.5 -3q21 0 37 0.5t27 2.5q2 -2 9 -2.5t17 -0.5q2 -13 3.5 -21t1.5 -12q14 -10 30 -10v-5h26q0 -11 1.5 -20.5t3.5 -15.5q5 5 5 -8q-2 0 8 -1.5t33 -5.5v-5q13 3 13 -13q2 -8 2.5 -33t0.5 -67l5 -5h-5l-3 -51q-2 0 -2 -2q0 -1 2 -3h-38q-8 -8 -16 -8v-26h-5v-12
q-15 0 -15 -5q-6 -2 -11 -1.5t-7 6.5q-6 0 -8 -1.5t0 -3.5q-52 2 -91.5 3.5t-64.5 1.5q-5 0 -8 -1.5t-5 -3.5q-2 2 -2 5h-31q0 28 -5 41q-32 8 -46 5v5h-10v105q-5 3 -5 25q-5 -3 -5 5q-10 2 -17.5 4t-13.5 4q-14 2 -22 0.5t-14 -3.5v3q-17 -2 -28 -4t-13 -4v-92q5 5 5 -5
h-5v-7h3q3 -12 0 -24h-3v-40q5 3 5 -6h-5v-20q5 5 5 -5q2 0 6.5 2.5t6.5 2.5q0 -2 6.5 -6.5t6.5 -6.5q8 0 10 3q8 -7 12 -9t6 -4.5t2.5 -7.5t0.5 -18q8 2 9 -1t1 -11q38 0 41 -3v-10h5q2 -3 2 -13q3 0 3 -13q2 2 6 -2.5l4 -4.5h46v-6h36v6h92q0 5 5 5q3 -3 3 -5h25v-6h31v6
q13 3 26 0v-6h56v6q10 2 17 3.5t11 1.5q0 12 8 7v26q5 0 5 2q14 2 23.5 3t17.5 3q0 10 10 10l3 25h2q-2 2 -1 5.5t6 5.5l5 5h5v-3h16v3h10q2 0 6 9t9 9z" />
    <glyph glyph-name="T" unicode="T" 
d="M657 907v33q-8 0 -5 3q0 2 1.5 3t3.5 -1q0 6 -2.5 21t-2.5 23q-18 0 -21 2v3h-10v-3q-5 -3 -15 0v3h-36v-3q-11 -3 -21 0v3h-30q2 -2 1 -2.5t-6 -2.5q-6 0 -7 1.5t1 3.5h-25v-3q-12 -3 -23 0v3h-13q2 -2 1.5 -2.5t-6.5 -2.5q-3 2 -3 5h-28v-3q-11 -3 -23 0v3q-2 0 -2 -3
q-27 -3 -54 0v3h-33v-3q-3 -2 -16 3q2 -2 0 -2.5t-7 -2.5q-3 2 0 5h-95q2 -2 0 -2.5t-8 -2.5q-2 2 0 5h-46v-3q-12 -3 -28 0v3q-7 0 -7 -5q0 2 -3 5q-14 -2 -23.5 -4t-14.5 -4v-64q7 0 5 -2q0 -3 -5 -3v-15h2q3 -3 3 -8q11 -2 20.5 -3.5t15.5 -1.5v-5q7 4 7 5q11 0 8 -5
q20 0 20 -3q17 2 29.5 3.5t21.5 -0.5v5q29 -4 52.5 -6t40.5 -2q-3 3 5 3q0 8 15 -8v-166h5q5 -44 0 -87h-5v-8q4 4 8 0v-202h2v-20h-2v-18h2v-20h-2v-49h2v-23h-2v-141q2 2 2 1v-6q2 -2 2 -4q0 -1 -4 -1v-10h2v-49h-2v-8q2 -2 2 -5q0 -2 -2 0v-7h2v-44q6 2 8.5 -2.5
t4.5 -4.5h13v-6h46q19 9 33 6q14 12 15 12v8h-5q-3 11 0 23h5v28h-5q-3 7 0 18h5v28h-5q-3 39 0 74h5q-2 3 -5 3q-3 11 0 20h5v6h-5q-3 9 0 20h5h-5q-3 25 0 51h5q0 -6 -1.5 -4.5t-5.5 7.5v422h-3q-3 8 0 13h3v25h-3q-3 7 0 18h3v15q-5 0 -5 5q0 6 5 6v7h-3q-3 23 0 49h3
q0 17 7 20q35 12 52 8v5h20q0 -8 5 -8q8 0 10 3v-3q17 0 28 4t13 -4q6 0 16 0.5t25 2.5q-3 5 5 5q6 0 7 -1.5t-1 -3.5h25v5q4 0 10 1.5t16 3.5v13h5z" />
    <glyph glyph-name="U" unicode="U" 
d="M658 99v51h-5q0 8 1.5 11.5t3.5 1.5v133q-5 0 -5 2q-3 8 5 8q4 10 -5 10q-3 8 5 8v105q-5 0 -5 2t1 2q2 0 4 -2q0 26 -5 39q-7 0 -5 2q0 3 5 3v25h5v36h-5v26q-5 0 -8.5 1.5t-1.5 5.5q2 6 5 8t5 0v8h-2q-5 7 0 15h2v123h5v2q-5 0 -5 3v148h-2q-2 2 -2.5 7.5t-0.5 13.5
q-5 0 -5 5q2 0 3.5 6.5t6.5 6.5v41h-2q-5 7 0 15h2l-2 3q-6 4 2 7q-5 2 -9 3.5l-4 1.5q-45 0 -53 -5v-2l-14 -3.5t-12 -1.5q-2 -2 -3.5 0t-1.5 7h-20v-59h5q3 -9 0 -12h-5v-72q2 2 3 2q2 0 2 -2q0 -5 5 -5q2 0 -3 -13h3q2 0 2 -5q0 -2 -5 -7.5t-7 -5.5q5 -6 8.5 -6.5
t3.5 -6.5q0 -5 -2 -7h-3v-13h3q2 -3 2 -5q0 -5 -2 -8h-3v-24q0 -9 -2 -14h-5q0 10 7 -8q0 -9 -7 -5v-28h5q2 -6 3.5 -8.5t1.5 -4.5q0 -5 -3 -3q0 2 0.5 0.5t2.5 -5.5q7 -15 -3 -15l-2 -92h-5v-23h5v-69h-5v-8h5q2 -11 2 -30v-44q3 3 3 0q2 -3 0 -3q-3 0 -3 -2l-2 -207
q-10 -4 -23.5 -6t-33.5 -2q0 -6 -1.5 -9t-3.5 -1v-28q5 3 5 -5q-15 -6 -26.5 -8.5t-19.5 -4.5v5q-14 0 -23 -1.5t-15 -3.5v5q-18 0 -18 -5q-6 2 -8 3.5l-2 1.5q-14 0 -33 -2.5t-29 -2.5q-3 -8 -5 -8q-5 -2 -11.5 2t-6.5 6q-2 2 -2 0q-2 -2 -2.5 -3.5t-2.5 -1.5q-5 0 0 5
q-4 3 -8 0q0 -5 -5 -5q-10 0 -5 5h-10v-3q2 2 -0.5 2.5t-12.5 0.5q3 -5 -5 -5q-4 10 -8 10q0 5 5 5q-8 22 -5 33q-8 4 -14 7.5t-11 5.5h-16q-6 6 -9.5 10.5t-5.5 9.5h5v31h-3q-3 54 0 113h3q-3 0 -3 2q-2 14 -2 36v54h-5v15h5v15q-8 0 -5 3q0 5 5 0v13q-5 0 -5 5t5 5v138
q-5 5 -5 8q0 2 5 2v16h-5v20h5v85h-5v12h5v13h-5v51h5q-3 0 -5 3v56h5v8h-5v18h5v7h-5v82h-46v-5h-67q-2 -2 -2.5 -5t-2.5 -5q5 5 5 -5q0 -5 -5 -5v-8h5q5 -20 0 -38h-5v-26q5 8 5 -5q0 -5 -5 -5v-10h5q5 -8 0 -16h-5v-7h5q4 -43 0 -85h-5l5 -5v-238q10 0 5 -5q0 -2 -5 -2
v-36h3q3 -7 0 -18h-3v-31q2 2 2.5 0t2.5 -8q-2 -2 -5 0v-43q2 4 2.5 3.5t2.5 -6.5q2 -2 0.5 -3.5t-5.5 -1.5v-18q2 5 2.5 4.5t2.5 -6.5q5 -5 -5 -5v-18q2 4 2.5 3.5t2.5 -6.5q2 -2 0.5 -3.5t-5.5 -1.5v-61q4 -8 5.5 -14t-0.5 -12q5 5 5 -7q3 -3 -5 -3l-2 -31h-3v-7h3
q3 -23 0 -49h-3q0 -14 1.5 -22t3.5 -14q3 3 16 -5v-5h25q0 8 16 -8v-18h5v-12q4 4 12 -8q10 2 20 -1.5t21 -8.5q3 -3 3 -28q8 8 8 -6q2 2 4.5 1l7.5 -3q0 -3 3 -5q-6 2 -3.5 3.5t16.5 1.5q0 -3 2 -5h26v-5h28q-2 2 -1.5 3.5t6.5 1.5q3 -3 3 -5q2 0 2.5 1.5t2.5 3.5
q12 4 25 0v-5q3 0 3 5q14 2 23 2h15q2 2 19 1t48 -3v-5h28v5h79q0 7 16 7v13h5l2 23q10 4 16.5 6t11.5 2q3 -3 3 -5q13 0 18 5q-2 2 1 5.5t9 7.5v25q5 0 5 3q17 6 27 9t14 1q0 11 10 8zM154 723h-5v2h5v-2z" />
    <glyph glyph-name="V" unicode="V" 
d="M657 715v149q-5 -5 -5 5q2 2 5 2v13h-3v61h3v8h-3q-2 4 -2 9v14h-5v13h5v15q-18 0 -21 -2q-5 0 -14.5 2t-21 4t-22.5 3.5t-19 0.5q0 -2 -7 -2q-6 0 -8 -6l-2 -51h-3v-31h3q5 -5 5 -12q0 -5 -1.5 -7t-3.5 -4h-3v-10q2 4 2.5 2.5l2.5 -7.5q3 -3 -5 -3v-10q2 2 2.5 0t2.5 -7
q-2 -3 -5 0v-11h3q5 -5 5 -10t-5 -10h-3h2t1.5 -4.5t1 -16t0.5 -33.5q5 5 5 -5q5 -5 -5 -5l-2 -46q-1 -1 -1 -3q0 -1 -3 -2t-11 -2t-24 -1v-2q-11 -8 -20 -8v-113q2 2 3.5 1.5t1.5 -6.5q3 -3 -5 0v-115q-5 -3 -5 -5h-36q-10 -10 -23 -10v-10h5q0 -6 -1.5 -10t-3.5 -6h5
q3 -36 0 -71h-5v-21q7 4 7 -2q0 -4 -7 0v-18q7 7 7 -8h-7v-18h5q-4 -21 -5.5 -40.5t0.5 -36.5q-14 -2 -25 -3.5t-19 -1.5q2 -2 0 -3.5t-7 -1.5v3l-67 5v33q-2 -2 -3.5 0t-1.5 8h5q2 17 1 30t-3 21h2v10h-2q-2 20 -2.5 48.5t-0.5 66.5q-5 5 -5 8q-3 2 5 2v26q-37 4 -56 0v8
h-5q-2 5 -2.5 14.5t-0.5 23.5q-2 0 -2 5q-2 2 -1 3.5t3 1.5l3 26h5q0 4 -2 4q-1 0 -3 -2q-2 10 -2.5 25.5t-0.5 36.5v56v10q-2 2 -2 4q0 3 2 9q-2 4 -3 7.5t1 5.5q-8 4 -14 6t-12 2v2q-11 0 -19 0.5t-12 2.5v94q-5 0 -7 1.5t0 3.5q2 3 7 3v69q-7 -3 -7 5q2 3 7 3v53
q-7 0 -7 3q3 5 7 0v36q-7 0 -7 2q3 5 7 0v11h-5q-2 2 -2 10h-85q-12 -5 -23 -5v-28h-2v-54q2 2 2 1v-6t-2 -5v-16h2q5 -12 0 -28h-2q0 -5 2 -7h-2v-93h2q4 -8 0 -15h-2v-10h2q4 -12 0 -23h-2l2 -3q5 -4 0 -7q9 0 13 -2t6 -4.5t3.5 -4.5t5.5 -2q9 0 16 -6.5t11.5 -16t5.5 -20
t-2 -19.5q2 0 5 -5h-5v-105h5q5 -19 0 -35h-5q0 -6 1.5 -8.5t3.5 -4.5q0 -5 -5 0v-8h5v-7q20 -8 41 -8v-3q-5 -4 15 -7v-52q5 13 5 -5q0 -5 -5 -5v-10h3q2 -6 3.5 -11.5t1.5 -11.5t-1.5 -11.5t-3.5 -11.5h-3v-10q5 8 5 -8h-5v-18q5 8 5 -8h-5v-10h3q2 -5 2 -21v-40
q2 0 8 -6.5t8 -6.5l33 -2q2 -6 2.5 -8.5l0.5 -2.5h5v-15h-5q-5 -5 5 -5v-44h5v-12q5 0 5 -6q32 0 46 -12q3 -3 3 -8h2v-49h5q2 -2 2.5 -7t0.5 -11q2 4 15 -12q10 4 28 -8q4 0 6.5 1.5t4.5 3.5q2 -2 2 -4v-1h41q-5 5 8 5q0 3 10 13q-5 3 -5 33h5v22t2 14q2 0 5 6.5t8 6.5h13
q12 -5 21 0q0 -2 7 13l3 66h2q0 10 3 13q10 6 19 9t17 1q0 5 15 5v39h3v12q-2 2 -3.5 2.5t0.5 0.5q0 5 3 2v11h-3v71h3v11h-3q-5 7 0 15h3v8h-3q-5 11 0 28h3v18q-3 0 -3 5q-2 2 -0.5 3.5t3.5 1.5q0 10 6 15t11 5q2 -2 5 -2h6q-3 2 15 2q-4 7 15 23v223q6 0 6 2q30 9 46 6
q0 11 10 7z" />
    <glyph glyph-name="W" unicode="W" 
d="M657 715v21q-8 0 -5 2q0 3 5 3v46q-5 0 -5 5q-3 2 5 2v64q-4 0 -5.5 2t0.5 4q0 3 5 0v51q-5 0 -5 5q2 2 2.5 3.5t2.5 1.5v31h-5v51q-6 2 -6.5 2.5t1.5 2.5q-13 0 -13 -3q-21 2 -43 3.5t-47 -0.5q2 -2 -1.5 -7t-3.5 -11h-5q2 -2 4 -2.5t4 -2.5q0 -8 -8 -8q4 -8 5.5 -18.5
t-0.5 -24.5h-5q9 -9 5 -31h-5q0 -5 5 -5q2 -6 2.5 -15.5t0.5 -22.5q2 0 2 -6h-2q5 -5 5 -12q0 -8 -5 -13q0 -37 -0.5 -64t-2.5 -44h-5q-2 6 -3.5 3t-1.5 -13h-10v-2q-6 -2 -14 -2.5t-22 -0.5v-18h-5v-8q7 0 5 -2q0 -3 -5 -3v-314h5q2 -10 -5 -10l-3 -139h-27q-11 0 -16 -2
q5 0 1 2t-19 8v207q-5 5 -5 8q0 2 5 2v116q-5 0 -5 5h-16v2q-5 2 -8.5 3.5l-3.5 1.5q-26 -2 -43.5 -3.5t-28.5 -1.5q2 -2 -8 -2q-2 -14 -3.5 -36t-1.5 -51h-5q4 3 8 -3v-253h2q2 2 2 0q0 -1 -2 -5h-69v189q-5 0 -2 3q0 2 2 2v33q-3 36 0 75v10q-3 20 0 41v7q0 -2 -2 0v131
q-8 4 -14 6t-12 2v2h-31v36h-5q-3 11 0 20h5q0 -2 -7 6v135q-5 0 -3 3q0 2 3 0v92q-2 2 -3.5 2.5t0.5 2.5h-102q-6 0 -5.5 -5t-4.5 -5v-36h2q5 -16 0 -36h-2v-15q2 4 2.5 3.5t2.5 -6.5q2 -2 0.5 -3.5t-5.5 -1.5v-192q2 -5 11.5 -7t20 -5t18.5 -8.5t6 -17.5h5v-13
q2 4 2.5 2.5l2.5 -7.5q0 -5 -5 -5v-80q5 5 5 -5h-5v-71h3v-62h-3v-35h3q3 -27 0 -49h-3v-26h3q3 -16 0 -35h-3v-6h3q2 -13 2 -31v-40q-1 -1 2.5 -3t9 -3.5t11 -3.5t8.5 -3q0 3 5 3q0 -6 5 -11q8 5 8 8q4 -17 5.5 -26.5l1.5 -9.5h5q0 -12 -5 -15h5q5 -13 0 -26h-5v-5h5
q2 -10 2.5 -24.5t0.5 -31.5q4 -8 0 -15v-31q2 0 4 -1.5t4 -3.5v-8q14 0 16 -4t4 -6q2 2 5 2h5q12 5 16 -2q17 2 29 2.5t22 2.5q0 14 10 18l3 176h2q0 2 1.5 5t3.5 8q7 4 18 0q0 -5 3 -5h24q11 0 17 -2v-6q5 0 5 6q11 3 18 0v-6q2 0 2 6q14 4 18 0q5 -22 5 -31h5v-56q6 4 6 0
q0 -2 -2 -3.5t-4 0.5v-90h3q1 -4 0.5 -6t0 -4t3 -4t9.5 -6q4 0 6 1.5t4 3.5v-5q14 -2 21.5 -3.5t9.5 -1.5v-3h10v3q5 0 15.5 3t20 6t15 6t0.5 3v41q-5 0 -5 5t5 5l3 115q0 2 3.5 7.5t8.5 13.5q18 0 31 5q4 -4 8 10l2 61h6q0 5 -6 5q-2 17 -2 43v62q-3 0 -3 5q3 3 3 0v95
q2 63 2 109v78h6v23q8 2 13 3.5t7 1.5v2q10 0 22 5.5t14 7.5z" />
    <glyph glyph-name="X" unicode="X" 
d="M662 53q0 2 -3 2q-3 10 0 21h3v18q-4 2 -5.5 2.5t0.5 2.5t3 2h2v5h-3q-3 9 0 16h3l-3 2q-2 14 -2 35v50h-21v5q-23 2 -29 3t-6 7h-6v82h-2q-4 11 0 23h2q-2 4 -3.5 11.5t-1.5 21.5q-13 0 -15 3v2q-14 4 -24.5 5.5t-16.5 -0.5v90q-10 0 -8 3h-23q-8 0 -10 2q-6 6 -11 8
t-9 2q2 21 3.5 38t1.5 29q3 7 36 7v6q10 0 12 2q12 36 8 62h5v7q-5 0 -5 5q8 14 14.5 16t16.5 2v3q4 0 9.5 1.5t15.5 3.5q0 13 5 8v20q-2 -2 -3.5 -1.5t-1.5 6.5q0 2 1 2q2 0 4 -2v105h21v5q2 0 4.5 2t8.5 6q9 3 12 0v5q3 2 11 2q0 11 2 13h3q-2 2 -2.5 3.5t-2.5 1.5
q2 3 5 0v23h-3q-3 24 0 44h3v8h-3q-2 9 -2 34v65q-6 10 -11 5h-87q0 -1 -10 -5q0 2 -2 -0.5t-8 -11.5q-3 -3 0 -3q8 -5 8 -8q0 -7 -8 -2v-28q8 3 8 -3q0 -5 -8 0v-13h5q6 -9 -5 -13q-56 -7 -54 -10q3 0 -7 -7v-18q5 0 5 -3q0 -2 -2 -2q-1 0 -3 2v-23h2q6 0 3 -5q17 -4 29 -6
t22 -2q0 -14 -0.5 -22.5t-2.5 -10.5h-38q0 -5 -10 -5q-8 -8 -5 -8v-33h2q5 -5 5 -10q0 -8 -5 -13h-2v-31q-8 -2 -20 -2h-26v-3q-3 -2 -11 -2v-52h-5v-10q5 5 5 -7q3 -3 -5 -3v-11t-2 -7h-8v-2q-29 -2 -51 -4t-36 -2q-6 2 -10 4t-8 2v2q-4 0 -6 1.5t-4 3.5v80q-14 0 -10 10
h-26q5 -5 -2 -5q-3 2 -3 5h-20v89q-11 0 -16 8l-25 2l-10.5 7.5t-5.5 4t-3 2.5t-2 4v174q-2 0 -7.5 2.5t-7.5 2.5h-72q0 -2 -1.5 -2.5t-3.5 -2.5v5q-17 0 -20 -4.5t-3 -12.5h-3v-57q2 4 3 2.5t3 -7.5q0 -4 -2 -5.5t-4 0.5v-31q2 2 3 0t3 -7q0 -7 -6 -3v-13q2 2 4 1t2 -3
q0 -3 -6 -3v-48q6 4 11 -13q2 0 9.5 -0.5t20.5 -2.5q3 3 11 -10q0 2 5 -10q2 -2 3.5 -9.5t1.5 -21.5h5q6 -4 0 -13h-5v-46q8 -21 8 -36q2 0 13.5 -3.5t19.5 -3.5v-3q12 0 15 -5q5 -13 5 -36q5 8 5 -2q0 -5 -5 -5v-34h5v-10q-2 0 4 -1.5t22 -6.5v6q11 3 20 0q8 -11 6 -13h5
q3 -39 0 -74h-57v-13h-5v-23h5v-28h-5v-23t-2 -13q-16 -2 -27.5 -2.5t-21.5 -0.5q2 -2 2 -3l-4 -2v-46q2 0 2 -2q0 -3 -2 0l-3 -95q-20 -2 -33 -3.5t-23 -1.5q3 -5 -5 -5v-64h5q3 -7 0 -16h-5q-2 -2 -0.5 -3t5.5 1q3 -11 0 -21h-5v-17h5q3 -11 0 -21h-5q0 -32 5 -54
q2 2 3.5 1.5t1.5 -6.5h15q0 -1 3 -1q4 0 7.5 -1t7 -3.5t3.5 -7.5h18q4 6 7 6v-6h26v6q2 5 10 3.5t8 3.5q2 12 3 21t-1 15h5v5h-5q-3 25 0 51h5v31h-5q-3 14 0 33h5v10h-5q-3 9 0 16q6 0 10.5 6.5t10.5 8.5q2 -2 5 -2h5h13q6 0 10 2q6 17 8 31t2 28h3v26l10 10q6 2 13 2h18
q0 13 10 11v12h5q-3 0 -5 3v13q-5 -5 -5 5t5 5v18h5q0 17 1.5 19t1.5 4q0 6 7.5 9.5t38.5 -1.5v-3q23 6 39.5 6.5t26.5 -3.5q4 -10 5.5 -17.5t-0.5 -13.5h5q4 -8 0 -15h-5q2 -12 3.5 -20t1.5 -14h5v-13q6 0 6 -5h25q0 8 16 -7q2 -10 3.5 -19t1.5 -15h2q2 -4 2.5 -15t0.5 -31
q2 0 7.5 -6t7.5 -6l26 -3v-5q-2 0 1.5 -1.5t13.5 -3.5q2 -2 2 -5q0 -2 -2 -8q5 0 8 -3v-161h2v-7q14 -4 23.5 -6.5t17.5 -4.5q4 -2 10 8q17 -2 29 -2h23q0 7 10 7l2 44h3z" />
    <glyph glyph-name="Y" unicode="Y" 
d="M659 876v8q-5 0 -5 5q0 3 5 3v12q-5 0 -5 6q2 2 2.5 3.5t2.5 1.5v15h-5v13h5q-2 2 -5 2v26h5h-5v13q-5 0 -5 7h5v13q-4 0 -5.5 1.5t0.5 3.5q-11 -3 -25 0q-10 2 -14.5 3.5t-6.5 1.5q-15 0 -25 -1.5t-17 -3.5t-11 -3.5t-8 -1.5v-20h-5l-3 -118h-49q-2 -2 -4 -5.5t-6 -7.5
v-5h5q5 -28 0 -51h-5h5q5 -13 0 -26h-5v-30q5 0 5 -5q-2 -3 -5 -3v-15h-20v-3q-6 -2 -16 -2h-20v-41h5q4 -8 0 -18h-5l-3 -77h-2v-8q-42 0 -72.5 0.5t-50.5 2.5q-4 38 0 79h3q0 3 -3 3q-2 10 -2.5 24.5t-0.5 34.5l-46 2v3h-10v66h-5q-3 13 0 26h5v41h-5v5q-36 15 -56 10v13
q-5 0 -5 5t5 5v15q-5 0 -5 6q2 2 5 2v5h-5q-5 5 0 13h5v15h-5v64q-6 0 -14 0.5t-20 2.5q-5 2 -21 2h-42q0 3 -16 -5v-99h-5q5 -13 5 -44q3 3 5 0q2 -2 2.5 -3.5t2.5 -1.5l31 -3l2.5 -1.5t7.5 -5.5v-8h3q2 -4 2 -10v-10h6v-64h-6v-5h6v-39q0 -5 7 -5q8 0 10 -2q1 -1 0.5 -2
t2 -2t9.5 -3t22 -6v-5h5q2 -5 2 -9v-9q5 -5 5 -8t-5 -8v-15q5 -5 5 -15q0 -8 -5 -16q-2 -2 0 -2q2 -4 2.5 -16t0.5 -33q15 -2 27 -3t22 1q-2 -2 -1 -4t3 -2v-12h5v-21q2 2 4 1.5t4 -6.5q-4 -3 -8 0v-20h5q0 -11 -5 -16h5q3 -2 3 -15q2 2 2 1v-6q29 3 46 -8q3 0 3 -13h3v-41
h5q3 -8 0 -15h-5v-46q7 0 7 -5h-7v-8h5q3 -11 0 -18h-5v-7h5q2 -14 2 -36v-51q3 0 5 -3q-2 -2 -5 0v-11q0 -5 -2 -7h-5v-10q5 0 7 -3v-166q8 -4 14 -7.5t12 -5.5h74q13 13 15 13v67q-2 0 -2 5q-5 8 2 8v69q-2 0 -2 5t2 5v28q-2 0 -2 5t2 5v44q-2 2 -2 7t2 5v39h-2
q-5 23 0 46h2v8q-5 0 -2 2q0 3 2 3q0 2 -2 2t-2 1q0 2 2 4q-5 5 2 5v8h-2q-4 11 0 18h2l-2 3q-4 9 0 20h2q0 8 0.5 13t2.5 7h5q-6 2 2 9t39 7v5l2.5 1.5t7.5 3.5v28h5v49q18 7 21 7v6h20q0 7 13 7v128q-5 0 -3 3q6 0 10 7.5t6 7.5q8 0 5 -5h25q0 10 16 10q0 3 5 8v15h-5v16
h5v10h-5v33h5h-5v20h5q0 6 0.5 11t2.5 7h2q-3 4 5 16h10v2q12 6 21.5 8.5t14.5 2.5q5 9 0 12h5z" />
    <glyph glyph-name="Z" unicode="Z" 
d="M659 17v33q-5 0 -5 3q-3 7 5 7q-2 22 -3.5 33t-1.5 13h-15v3h-51q2 -3 -3 -3q-10 0 -8 3h-15v-3q-2 0 -5 -2.5t-5 -2.5v5q-13 -3 -18 3v-3q-13 -3 -26 0v3h-69q3 -3 -5 -3q-2 0 -2 3h-72v-3q-13 -3 -25 0v3q-8 0 -8 -3q-10 0 -8 3h-10v-3q-11 -3 -21 0v3q-35 0 -60 0.5
t-42 2.5l-3.5 1.5t-9.5 3.5q0 13 8 18q26 10 41 10q0 9 10 13v51q-2 -2 -3.5 -1.5t-1.5 6.5q6 6 8 11t2 9q8 4 14 6t12 2v5h15q8 21 11.5 39t1.5 35h3v8h-3q-4 4 -3 5q2 2 4 2.5l2 0.5q32 16 46 12q0 4 10 13l2 85h21q-9 4 2 7q8 -3 8 -7h18q0 9 13 12v44h-5q-4 11 0 18h5
v25h41q3 13 13 8q0 28 2 33h5v44q1 0 1.5 1.5t2.5 3.5t6.5 3.5t15.5 1.5q1 1 5.5 4.5t12 7.5t12.5 3l3 77v3q11 5 20.5 8.5t17.5 3.5q0 3 16 3q0 10 5 10v13q-5 0 -5 8q0 5 5 5v41h5q0 14 16 19.5t35 5.5q0 11 5 11v66q-7 0 -5 3q0 5 5 0v15h-2q-2 8 -2.5 21t-0.5 33
q-6 2 -9.5 5t-5.5 5q-16 0 -16 -5q-15 0 -15 5q-4 0 -11 -1t-15 -1.5t-15 -1.5t-10 -1q-2 0 -17 1.5t-42 5.5q-19 2 -31 1t-18 -3q-11 -5 -15 2q-20 -11 -31 -7q0 5 -6 3.5t-6 3.5h-35q-14 0 -24 -2h-11t-7 2q-17 -2 -27 -3t-14 1q-20 7 -41 2q-11 -2 -20.5 -3.5t-15.5 -3.5
v5q-38 0 -43 -5q-4 2 -13.5 3.5t-25.5 1.5q0 -5 -5 -5v5q-17 -5 -46 -5q5 -5 -5 -5v-16h-5v-69h5v-10l3 3q1 0 3.5 -1.5t9 -4t20.5 -5.5v-5q2 0 2.5 1.5t2.5 3.5q0 3 3 3q7 -4 7 -8h184q-2 4 -1 6t7 2l7 -8h138q5 5 16 -2v2h46t25 -2v-26q-17 0 -29 -1.5t-22 -3.5v-20h-5v-8
h5q4 -7 0 -16q-10 0 -10 -2q-3 0 0 2q-5 0 -5 -2q-16 -4 -27 -6t-19 -4v-18q5 0 5 -5q-3 -3 -5 -3v-59q-8 0 -5 -2q-5 -5 -34 -5v2q6 -2 2 -3.5t-19 -1.5q0 -10 -3 -13h-3v-15q2 2 3 0.5t3 -3.5q-3 -2 -6 -2l-2 -59q-17 -2 -29 -3.5t-20 -1.5q2 -2 0 -2.5t-7 -2.5v-16h-3
l0.5 -1.5t2.5 -3.5q-2 -21 -4 -38t-2 -28q-5 0 -5 -5q-17 -5 -43 -5q-4 -12 -8 -8v-82h-5q-2 -5 -2 -10q-16 0 -13 2q-10 -2 -16 -3.5t-10 -1.5q4 -2 2.5 -2.5l-7.5 -2.5v-13h-5q-6 -17 -6.5 -35.5t1.5 -35.5q-13 0 -16 -3v-5q-15 -2 -24 -3.5t-11 -1.5q-6 -17 -6.5 -36.5
t1.5 -42.5h-6v-10q0 -2 -1 -3.5t-3 -2.5t-6 -5q-2 2 -13 2.5t-28 0.5q0 -2 -5 -5v-205q2 4 2.5 3.5t2.5 -6.5q10 0 18 -3t8 -7q14 0 24.5 0.5t16.5 2.5v-3q40 0 58.5 0.5t12.5 2.5q27 0 42.5 -0.5t19.5 -2.5q21 0 35 0.5t24 2.5v-3q2 0 23 8q17 3 28 0q14 -4 23.5 -6
t17.5 -2q32 11 56 3q15 0 15 -3q4 2 6.5 2.5t4.5 0.5q17 2 27 1.5t16 -4.5q29 8 38 8q13 3 13 -3q20 6 35 6.5t29 -1.5q0 2 2.5 10.5t2.5 10.5h5z" />
    <glyph glyph-name="bracketleft" unicode="[" 
d="M540 -144v33h-5q-4 11 0 18h5q-11 26 -8 38q-15 0 -15 5q-25 0 -58 -1.5t-75 -3.5q-4 4 -7.5 6.5t-7.5 4.5q0 -8 -3 -11q-17 2 -30.5 3.5t-23.5 1.5v6q-17 0 -20 2q-5 8 0 23h5v8h-5q-4 7 0 18h5v15h-5q-2 6 -2 8q0 3 2 5h5q-2 4 -3.5 11.5t-1.5 21.5q-6 0 -6.5 1.5
t1.5 3.5q2 3 5 3q0 5 1.5 9t3.5 6h-5v118h-5q-4 10 0 20h5v179q-5 -3 -5 3q0 8 5 5v56h-5q-5 24 0 51h5v5q-11 0 -5 6q2 2 5 2v21h-5q-5 3 0 7q2 4 3.5 6l1.5 2h-5v69h5v18h-5q-4 7 0 18h5v7h-5q-5 5 0 13h5q0 33 -1.5 56t-3.5 39h5v8h-5q-5 11 0 23h5v5h-5q-4 10 0 20h5v16
h-5q-4 7 0 17h5v26q10 6 18 8t18 2q0 3 5 3q3 -3 0 -3q25 0 33 -5q6 -2 11 -0.5t7 5.5h15q10 -2 16.5 -2.5t12.5 -2.5q17 2 28.5 3.5t17.5 1.5q14 3 24.5 3.5t17.5 2t10.5 6.5t3.5 16v39h2q-2 4 -3.5 13.5t-1.5 24.5q-18 0 -20 3q-21 0 -23 -3q-14 -9 -18 3
q-10 -2 -21.5 -2.5t-27.5 -0.5q0 -5 -7 -5v5q-8 0 -8 -2q-5 -5 -13 0q-5 2 -7.5 3.5l-2.5 1.5q-15 0 -24.5 -0.5t-13.5 -2.5q-6 -2 -11 -1.5t-7 4.5q-26 0 -43.5 -0.5t-30.5 -2.5v3q-17 2 -30.5 0.5t-23.5 -3.5v3q-8 0 -13 -2t-13 -19v-7h3q2 -6 2 -11v-10v-12q0 -5 -2 -11
h-3v-23h3q2 -5 2 -15v-8q0 -3 -2 -5h-3v-41h3q2 -6 2 -11v-9v-11q0 -4 -2 -10h-3v-10h3q2 -3 2 -8t-2 -8h-3q-2 -2 -2 -4q0 -1 2 -1q5 0 5 -5q0 -7 -5 -7v-29h3q2 -2 2 -7q0 -3 -2 -5h-3q3 2 5 -8q0 -10 -5 -5v-26h3q2 -5 2 -10v-10v-8t-2 -10h-3v-18h3q2 -2 2 -5v-5v-5
t-2 -5h-3v-8h3q2 -3 2 -10q0 -5 -2 -8h-3q0 -6 2.5 -5.5t2.5 -4.5q0 -3 -5 -3v-13h3v-69h-3v-7h3q2 -6 2 -26v-51h5q4 -11 0 -21h-5v-199q4 0 5.5 -1.5t-0.5 -3.5q-2 -3 -5 -3v-23h5q5 -21 0 -41h-5v-48h5q0 -2 -1.5 -6t-3.5 -12l5 -5h-5v-13h5q5 -16 0 -36h-5q-2 -2 -2 -4
q0 -1 2 -1q5 0 5 -5q0 -10 -5 -5v-18h5q4 -46 0 -95h-5v-10h5v-15q8 -6 14 -10t12 -6q10 0 10 3q32 3 41 -3q12 4 25.5 5.5t30.5 -0.5q0 6 6 6q2 -3 0 -6h7q3 -2 3 -5q21 0 37.5 0.5t26.5 2.5v-3q8 0 13.5 1.5t9.5 3.5v3q2 2 5 2.5t5 0.5q8 0 10 -3v-3q15 0 18 -5
q14 6 29.5 6.5t34.5 -1.5v3q6 0 10.5 6.5t12.5 6.5z" />
    <glyph glyph-name="backslash" unicode="\" 
d="M658 -147q5 12 -2 28q-4 19 0 26h2v38h-2q-2 6 -1 11t3 7h-2q-5 5 0 13h2v38h-2q-5 5 0 13h2v13q-11 0 -15 10h-43v15h-6q-3 11 0 18h6v21q-11 0 -8 2q2 3 8 3v28h-6q-3 11 0 23h6v23q-3 0 -13 10q-17 0 -27 0.5t-14 2.5q-5 0 -10 5v56q-6 -4 -6 5q0 6 6 6v23h-3
q-5 8 0 20h3v15h-3q-3 3 -3 13q-23 0 -36.5 1.5t-19.5 3.5v39h-5v20h5q-2 2 -2.5 6.5t-2.5 6.5q2 2 2.5 3.5t2.5 1.5v13q-2 -3 -10 5q-16 2 -27 2h-19q0 6 -5 6v74h-5q-5 3 0 7q-36 5 -49 8v3h-5t-5 2v80h-3q-3 10 0 17h3q-4 10 -4.5 20t1.5 21q-5 0 -15 2.5t-15 2.5v6
q-10 2 -16 2h-10v59q-11 18 -8 33h-43q-6 2 -9.5 5t-5.5 5q-4 4 0 16h2q0 2 -2 2q-5 5 0 13h2v67h-2q-4 9 0 20h2l-2.5 3t-2.5 12q-10 2 -17.5 2.5t-13.5 0.5h-7q-12 -7 -16 0q-2 3 -2 23h-5v18h5v13q-5 0 -5 2q-5 8 5 8q2 10 -5 10q2 3 5 3q3 10 -5 10q-16 0 -25.5 0.5
t-13.5 2.5q-5 2 -69 2v-10h-5v-82q5 0 5 -5q-2 -3 -5 -3v-41q6 -1 4.5 -2t-0.5 -3t9 -4.5t31 -5.5v-2q9 0 12 -6t3 -20h2q5 -67 0 -102q16 -10 29.5 -15.5t27.5 -5.5q0 5 7 -13q-2 -2 -5 0v-12h3q2 -5 2 -18v-36l4.5 -5t6.5 -5q14 -2 23.5 -2.5t17.5 -2.5v-8h2q2 -2 2 -5
q0 -2 -2 -8h5q4 -8 0 -15h-5q3 0 5 -3q2 -6 2.5 -27t0.5 -57h5v-13q2 4 2.5 2.5l2.5 -7.5q13 -2 22 -3t14.5 -4t7.5 -10t2 -22h3q2 -9 2 -23v-33q4 4 12 -1.5t24 -5.5v-6q5 5 15 -2l3.5 -17.5t1.5 -13.5h6v-48h2q0 10 8 -11q13 0 15 -2v-3h18q0 -2 4 -4.5t4 -8.5
q8 -20 5 -33h5v-87q8 0 8 -2q9 -2 16.5 -4t11.5 -4q0 10 15 -5q4 -4 0 -10h5q3 -3 3 -16q2 4 2 2v-9q3 -3 -2 -3v-20h2q4 -49 0 -75q6 -4 12 -7t11 -5h31q0 -2 0.5 -8t2.5 -15q3 -16 0 -23q7 3 7 -6h-7q0 -2 3.5 -2.5t3.5 -2.5q-2 -2 -7 -2q0 -5 5 -5q2 -10 2 -27v-42
q3 -3 3 -5h41q0 2 1.5 2.5t3.5 2.5q2 -2 2 -3v-2h57q0 7 7 7z" />
    <glyph glyph-name="bracketright" unicode="]" 
d="M539 -147l-3.5 3.5t-1.5 6.5q0 11 3 13h2v230q-2 2 -3.5 4t-1.5 4q0 3 5 3v240h-5q4 4 5 3v10h-2q-3 0 -3 5t3 8h2v33q-5 0 -5 5q0 4 1.5 5.5t3.5 -0.5h-2q-2 2 -2.5 5t-0.5 5q0 8 3 11h2v5h-2q-2 2 -2.5 5t-0.5 5q0 8 3 10h2v13h-2q-2 8 -2.5 32t-0.5 65h-5v18h5
q0 2 -4 2q-3 0 -1 6q2 2 5 2v356h-5v18h5v28h-5v10q-10 4 -10 3q-17 3 -44 0q-17 -2 -27.5 -2.5t-15.5 -0.5v3q-33 0 -53.5 -0.5t-28.5 -2.5v3q-42 0 -71.5 -0.5t-46.5 -2.5q-13 0 -13 3q-15 -2 -26 -2.5t-17 -0.5l-3 -25h-5v-67q6 0 10 -1.5t6 -3.5v-5q15 0 18 -3h28
q0 3 5 3q2 -3 0 -3q14 -2 23 -3.5t15 -1.5q21 0 30.5 0.5t5.5 2.5v-3q21 2 36.5 3.5t24.5 1.5q15 -7 26 -7q0 -2 2.5 -2.5t5 -2t5 -5.5t2.5 -13h5q0 -6 -1.5 -11t-3.5 -7q5 0 5 -3v-373h5q5 -8 0 -16h-5v-10q5 0 5 -2q-2 -3 -5 -3v-41h5q5 -20 0 -38h-5q0 2 1 2q2 0 4 -2
q5 -13 0 -26h-5v-8h5q5 -11 0 -23h-5v-12h5q4 -16 0 -31h-5v-41h5q5 -20 0 -36h-5q3 -2 5 -2q5 -12 0 -29h-5h1q2 0 4 -2q5 -27 0 -82h-5v-8h5v-38q2 2 4 0.5t2 -5.5q2 -2 -6 -5v-77q-12 0 -15 -2v-6q-25 -2 -42.5 -2.5t-28.5 -2.5q-6 0 -9.5 1.5t-1.5 3.5q-21 0 -35 -1.5
t-24 -3.5v5q-2 -2 -9 -3.5t-21 -1.5v5q-17 0 -29.5 -1.5t-21.5 -3.5q2 -2 -3 -2l-3 -23h-2l2 -3q2 -6 2.5 -21.5t0.5 -44.5q2 2 5 -1.5t5 -9.5q4 0 12 -1t17.5 -1.5t18.5 -1.5t16 -1q-3 5 5 5v-5q4 0 9.5 0.5t11.5 2.5h18q29 0 49.5 -1.5t32.5 -3.5l3.5 1.5t8.5 5.5
q3 -2 3 -5q29 0 44.5 0.5t19.5 2.5q13 0 13 -3q17 0 30 1.5t21 3.5v3q2 0 5.5 5t9.5 5z" />
    <glyph glyph-name="asciicircum" unicode="^" 
d="M595 741v7h-5q-3 23 0 49h5v15h-5v16q-8 2 -11.5 3.5l-3.5 1.5q-15 0 -15 -3q12 5 -26 5v62q-5 0 -5 7q0 3 5 3v10q-4 2 -5.5 2.5t0.5 2.5q-11 1 -23.5 2.5t-23 4t-16 6t-1.5 8.5q0 10 3 13h2v5h-2q0 13 -6 13l-51 2v21q-10 0 -7 2q3 5 7 0q0 10 -5 5q-2 2 -2 7v11h-108
q-8 -8 -8 -13v-10h3q13 -17 0 -20q-10 -4 -16 -5.5t-12 0.5v-3q-11 -4 -18 0v3h-8q-4 -12 -5.5 -21.5t-1.5 -14.5q-14 -8 -28.5 -10.5t-28.5 -0.5v-12h-5q3 -3 5 -3q4 -8 0 -15h-5v-36q5 5 5 -8q0 -2 -5 -2q0 -3 5 -3q5 -4 0 -7q-5 -2 -6.5 -5.5t-3.5 -5.5q-10 0 -10 -5v3
h-36q3 -3 -5 -3v-89q2 0 14 -8.5t22 -9.5q0 5 5 5v-5q17 2 29 3.5t22 1.5q5 -8 5 8q6 2 11.5 3.5t9.5 1.5v41h-3q-3 7 0 15h3v18q10 3 10 7q10 2 17.5 4t13.5 2v2q4 0 7.5 1.5t7.5 3.5q0 11 2 13h3q0 16 5 21t5 0q29 0 44.5 -0.5t19.5 -2.5q14 -2 24.5 -0.5t16.5 3.5v-8h5
v-13h3q2 -2 2 -8q8 -5 14 -10.5t12 -7.5l31 -2v-5h5v-62q2 2 3.5 0.5t1.5 -5.5h-5v-12q2 4 3.5 3.5t1.5 -6.5q14 0 16 -4t4 -6h62q7 18 20 10q0 9 10 13z" />
    <glyph glyph-name="underscore" unicode="_" 
d="M657 -160v85h-3q-2 2 -2 13q-47 0 -75.5 -2t-42.5 -4q-1 0 -5.5 1t-10.5 2l-12 2t-10 1v5h-8v-5h-18v5q-11 -2 -19.5 -5.5t-13.5 -5.5q-17 0 -27.5 2t-16.5 4q-23 3 -38 -6q-17 0 -29 2t-20 4v5h-10v-5h-92v5h-18v-5h-18v5q-10 -2 -15.5 -3.5t-9.5 -1.5h-82q0 3 -10 -8
v-10h2q5 -5 0 -13h-2v-18q2 2 3.5 0t1.5 -8h-5v-35q-2 -2 7.5 -6.5t17.5 -6.5q3 -3 0 -5q6 2 17 -1.5t16 -3.5q-2 2 0 3.5t8 1.5v-5q10 0 10 2h5q4 0 6 -2h22t13 2q13 13 13 -2h10t16 2h43q6 -2 11 -2h10q-2 2 -0.5 3.5t5.5 1.5v-5h56q-2 2 -0.5 3.5t5.5 1.5q0 -3 3 -5
q28 0 33 2q-14 -2 8 -2h82q-2 2 -1 3.5t3 1.5q3 -3 3 -5q2 0 5 2q12 9 15 -2q29 0 50.5 1.5t36.5 3.5q-2 2 -1.5 3.5t6.5 1.5l5 -5h57q0 3 10 12z" />
    <glyph glyph-name="grave" unicode="`" 
d="M560 743q-6 0 -6 5q-4 6 6 6v15q-31 6 -42.5 9.5t-19.5 5.5v36q-5 0 -10.5 0.5t-7.5 2.5v2q-36 0 -38 3q-6 8 -6.5 17.5t1.5 20.5q-20 6 -34.5 9t-24.5 1q-5 5 -5 39q-3 0 -3 2h-20q2 -2 -5 -2q-6 2 -10 3.5t-6 3.5q-7 25 -7 39q-11 10 -21 10q-5 2 -11 0.5t-12 -3.5
q-5 -5 -11 -5q-5 0 -7 8q-30 0 -33 -3q-13 0 -13 3h-36q-9 -4 -17 -6t-13 -4v-41h5q3 0 0 -8q11 -2 19 -4t14 -4q16 0 16 -15h2v-20q-2 -3 10 -8q14 -2 22 -4t14 -6v2q-2 -2 10 -2q3 -3 3 -8h5v-20q5 0 5 -6q14 -2 25 -3.5t21 -1.5q0 -2 3 -2q2 -5 2 -18h3q2 -3 2 -23
q-5 0 16 -13q7 11 7 5q9 4 14.5 1t9 -9t5 -14.5t0.5 -15.5q5 5 5 -5h15v-3q7 -8 10 -5q31 4 45 6t12 2q0 -8 5 -8h30q0 5 3 5q2 -2 2 -4v-1q6 0 18.5 2.5t17.5 2.5v3q-2 2 1.5 3.5t8.5 1.5q0 16 6 20z" />
    <glyph glyph-name="a" unicode="a" 
d="M652 12v87q-6 2 -6.5 2.5t1.5 2.5q-6 0 -11 1.5t-7 3.5v-5q-21 3 -34 8v10h-2q-2 10 -2.5 23t-0.5 30q-2 2 -3.5 3t-1.5 3q2 2 2.5 3.5t2.5 1.5v97h-5v18h5v15h-5v64h5v143q-7 0 -5 3q0 5 5 0v41h-5v38h5v5h-5v11q-4 0 -12 1.5t-17.5 3.5t-18 3.5t-13.5 1.5v36q-5 0 -5 5
q-20 2 -33 2.5t-18 2.5q0 3 -1.5 8t-3.5 11t-3 12t0 10q-23 2 -40.5 3.5t-28.5 1.5q0 -2 -1.5 -2.5t-3.5 -2.5q-3 2 -3 5h-36v5q-15 0 -15 -5h-141q0 -5 -10 -5l-3 -26h-5v-18q-4 2 -7.5 1t-7.5 -3v2q6 -2 -2 -2h-24q2 -2 1.5 -2.5t-6.5 -2.5q-8 0 -5 5h-25v-3q-8 -3 -16 0
v3h-20q2 -2 -5 -5v-16q5 0 5 -5h-5v-64h5v-13q14 0 17 1t3 -8h18v5q33 -4 44 0q5 2 10.5 3t9.5 -1q0 14 10 11v20q5 0 5 5q26 2 43.5 3.5t28.5 -0.5q-5 5 5 5q3 -3 3 -5h48q26 10 31 10q23 -6 41.5 -9t32.5 -1v-8h5v-18h5v-8q11 0 16 -12q2 0 31 -8v-23h5q3 -8 0 -15h-5v-5
h5q3 -13 0 -26q-5 0 -5 -5q-57 -2 -98.5 -3.5t-70.5 -1.5q-13 -8 -23 -8v5h-95l-3 -51q-5 2 -7.5 3.5t-4.5 -0.5q-18 0 -18 -3q-8 -5 -16 3q0 -2 -7 -2q-6 0 -8 -6q-2 -14 -2 -24v-14q-8 -2 -19 -4t-25 -2v-5q-13 0 -15 -2v-16h5q3 -11 0 -23h-5q0 -9 5 -12q0 -2 -2 -2
q-1 0 -3 2v-21q2 2 3.5 1.5t1.5 -6.5q0 -5 -5 -5v-8h5q3 -7 0 -18h-5v-92h5q3 -8 0 -15h-5v-15q2 4 3.5 2t1.5 -8q0 -5 -5 -5v-10h5v-13q2 2 2.5 1.5t2.5 -6.5q41 0 46 -5q0 -14 1.5 -23.5t3.5 -14.5h5v-8q2 0 19 -5t32 -5q2 -23 10 -35t16 -14q15 -2 26.5 -0.5t16.5 3.5v-3
q21 0 23 3q5 -2 7 -2.5t4 -0.5q19 -2 32.5 -0.5t23.5 3.5v5h15q0 8 11 8l2 23q2 2 2 4q0 3 6 3q10 4 17.5 5.5t12.5 -0.5q2 0 7.5 6.5t10.5 6.5q-2 6 -2 8q0 3 2 5q8 3 8 8l3 18q10 7 41 0q2 -20 3.5 -29.5l1.5 -9.5q2 2 5 -4t5 -6q24 0 43 -8q8 -16 8 -33q0 4 5.5 2
t14.5 -12v5l4 -1.5t12 -3.5v5q19 -4 25 -8q10 -2 17.5 -0.5t13.5 3.5v5q10 4 14.5 6t6.5 2q-2 5 -1.5 7.5t6.5 2.5zM475 242h-2v-23q-16 -2 -27.5 -4t-21.5 -4q-5 -11 -3 -12h3v-31q-3 0 -3 -3q-19 -4 -32.5 -6t-23.5 -4v-15q-7 0 -7 -5q3 -8 7 -8h-5q-2 -3 -2 -13
q-6 0 -11 -1.5t-7 -3.5q-3 3 -18 3q-6 0 -18.5 -4t-20.5 -4v5q-9 2 -20 0.5t-21 -5.5q-4 3 -14 3q-9 0 -19.5 1t-20.5 3.5t-15 10.5v143h5l3 26q0 2 5 5t5 5q16 3 24.5 6t12.5 6t4 5v3h3v26q5 6 9 8t4 0h58q0 5 21 5v-5q7 -4 18 0v5h7v-5q14 -2 25 -2.5t16 -0.5q3 -3 3 3
q17 2 29 0.5t22 -3.5q0 3 10 3q6 -5 8.5 -6.5l2.5 -1.5v-8h5v-43h2v-54z" />
    <glyph glyph-name="b" unicode="b" 
d="M660 109v164q-15 0 -18 2v3q0 3 13 7v13h5v62h-5q-3 7 0 15h5v15h-5q-3 8 0 16h5v61h-5q-3 10 0 21h5q-2 2 -5 2q-3 20 0 41h5v10h-5v26h-5q1 3 -0.5 3.5t-3.5 1.5t-3.5 2.5t-0.5 5.5h-7q3 -5 -5 -8q-11 3 -16 8q-5 2 -9 2h-6v10h-5q-4 9 0 16h5q0 13 -8 13q-17 2 -29 5
t-22 5q-5 5 -5 30h-3q-3 4 0 11q-19 2 -33 2h-23q-2 6 -2 17v27q-4 2 -5.5 2.5t0.5 2.5q-13 0 -13 -3q-17 0 -28.5 0.5t-15.5 2.5q-72 3 -112 -5q-2 -2 -2.5 -4t-2.5 -4v-20q5 5 5 -6q-17 -5 -29.5 -7.5t-21.5 -4.5v-3q-2 0 -5.5 -4t-5.5 -4v-25q-5 2 -9 -4t-6 -6
q-17 -2 -30 -0.5t-21 5.5v169h-5q-4 40 0 81h5v46q-4 -2 -6 -1t-2 7q4 7 8 5v10h-5q-2 25 -2.5 44t-0.5 33q0 -2 -4 1t-14 9q-11 0 -19 -0.5t-14 -2.5v3q-17 0 -28.5 -1.5t-17.5 -3.5q0 -2 -6.5 -3.5t-6.5 -6.5l-2 -52h-3v-41h3q3 -19 0 -43h-3l3 -3q3 -11 0 -38h-3
q-2 -2 -0.5 -2.5t3.5 -2.5q3 -15 0 -51h-3v-8h3q2 -6 2 -24v-47h3v-24h-3v-33q2 2 2.5 1.5t0.5 -6.5q0 -5 -3 -5v-36h3v-13h-3v-30h3v-16h-3v-76h3v-29h-3v-20q3 0 3 -3q0 -2 -3 -2v-18q3 0 3 -5h-3v-13h3v-15h-3q0 -8 3 -10h-3v-13q2 4 2.5 3.5t0.5 -6.5q2 -2 0.5 -3.5
t-3.5 -1.5q2 -6 2.5 -15.5t0.5 -25.5q4 6 7 -5q-2 -3 -7 -3v-40h-3q-2 -22 -0.5 -37.5t3.5 -26.5h-3v-16h3v-23q4 9 7 -2q0 -9 -7 -5v-52q7 4 7 -5h-7v-66h5q2 -6 3.5 -6.5t11.5 -6.5q0 -3 3 -5h15v-5q2 -2 5 -2.5t5 -0.5q17 2 28.5 3.5t15.5 -0.5v5h15q0 8 10 8v12h-2
q-5 12 0 23h2l3 41h2q-4 10 8 13q33 6 42 -0.5t9 -37.5h3q2 -6 5 -5.5t3 -7.5q19 -2 34 -2.5t24 -2.5v-33l8 -8h33v-5q11 3 11 -3q42 0 66.5 0.5t30.5 2.5q-4 2 -3.5 3.5t5.5 1.5q5 -8 8 -8q20 0 34.5 0.5t24.5 2.5v5h10q2 2 2.5 4t2.5 4l3 23h5q-4 9 0 12q29 8 43 8v3
q11 0 11 5v7h-3v16h3q-2 2 0 5t7 5q0 2 9 7t17 3v3q2 2 15 2q0 8 10 8zM550 229h-2v-18h-5q-5 -13 0 -25h5q-2 -16 -6.5 -20t-6.5 -6h-43q-3 -2 -3 -8h-3q-2 -13 -2 -23v-15q-6 -4 -10 -5.5t-8 0.5q0 3 -3 5q-8 -4 -13.5 -6t-9.5 -4q-14 6 -31 6.5t-38 -1.5
q-8 -2 -13.5 -2.5t-9.5 -2.5q-4 2 -14 3.5t-27 1.5q0 6 -1.5 6.5t-5.5 -1.5v13h-5q-2 14 -4 21l-2 7q-12 0 -25 8l-26 2q0 11 -5 3q0 36 -2 38q-11 11 -18 8q-20 3 -26 -3q-3 5 -15 5v23q5 0 5 8q0 6 -1.5 6.5t-3.5 -3.5v248q10 19 10 13l31 7q-5 5 0 5t5 3q10 0 15 10t5 18
q29 8 16 8v5h30q6 2 7.5 6.5t3.5 6.5v18l3.5 2t8.5 8q16 2 24 3.5t10 3.5q0 -5 5 -3.5t5 -3.5h28t13 2q11 -3 46 0q15 2 26.5 -2t16.5 -16v-20q8 0 8 -5h33q-2 -3 10 -8q-2 -2 -2 -4q0 -1 2 -1h3q0 -15 3 -18h2q-1 -5 0.5 -14t3 -19t3 -19.5t1.5 -13.5q-8 0 -8 -8q0 -6 8 -3
v-41h-5q-5 -12 0 -20h5v-5h-5l-3 -131q3 -2 8 -2v-5q-5 0 -8 -3q-2 -2 8 -2v-18q5 0 2 -3zM366 91h-7v8h2q-2 -2 1.5 -4t3.5 -4z" />
    <glyph glyph-name="c" unicode="c" 
d="M660 165q0 3 -5 3q-3 11 0 23h5v8h-5v20h-5q-3 11 0 23h5v10q-10 0 -12.5 4l-2.5 4l-31 2v3h-10v-3q-6 -2 -20 -2h-36q0 -13 -5 -8q2 -2 2 -41h-2q0 -31 5 -43q2 4 3.5 3.5t1.5 -6.5q-6 0 -7 -2.5t-3 -2.5l-3 3q4 -2 -3.5 -2.5t-24.5 -0.5q-2 -4 -2.5 -6t-2.5 -2
q-6 -2 -11.5 -5t-9.5 -5v-38q-10 0 -15 5v-5q-6 -4 -15 5v-5q-6 2 -17.5 3.5t-31.5 1.5q0 -10 -3 -10q-2 2 -2 3v2q-4 0 -9.5 1t-11 2.5t-10 3t-5.5 1.5q-27 -5 -41 -8v5q-6 0 -13.5 -1.5l-17.5 -3.5q-19 2 -34 4t-24 6v41h-3v56q-6 2 -8.5 3.5t-4.5 -0.5q-25 0 -28 -3
q-6 -2 -13.5 3t-9.5 5h8v31h-5q-4 10 0 18h5v10q-5 0 -8 2l3 233q7 0 7 5q3 -2 3 -5q2 0 6.5 5t6.5 5q12 0 7 -5h18v5q11 0 13 3v20h-5q-5 13 0 21q8 29 8 38q5 4 10.5 5.5t7.5 -0.5h5t5 -2q5 2 9 2h6h45t22 -2h26t17 2v-2q8 0 8 5v-5h20q-5 5 5 5v-5q14 4 39 4t61 -2
q0 -2 5 -2h10v-21h3q2 -10 2.5 -25t0.5 -36q4 -2 7.5 -4.5t7.5 -8.5h20q10 0 16 -2q17 2 29 3.5t22 3.5v5q2 0 6 5t9 3v15q-5 0 -5 8q0 3 5 3v53h-5q-2 4 0 11h-25q0 2 -4 3.5t-4 3.5q-8 2 -14 1t-12 -3q2 15 1 26.5t-3 19.5q-10 2 -17 2h-11q-7 0 -10 -0.5t-5 -0.5h-3
q-1 0 -5 1t-5.5 5t-2.5 8t-1.5 7t-3.5 3q0 5 7 5v11h-5q-2 5 -2 10q-21 0 -23 -3q-13 0 -13 3h-77v5q-15 0 -15 -5h-46q2 -2 0.5 -2.5t-3.5 -2.5q-2 2 -2 5q-44 0 -46 -3q-6 -5 -11 -4t-7 7q-21 0 -33 -1.5t-16 -3.5l-2 -44h-39q-15 0 -20 -2v-44q-12 -4 -18.5 -6.5
t-9.5 -4.5t-5.5 -3t-7.5 -1q-7 0 -10 5v3q-6 0 -8.5 -2t-4.5 -4v-61q4 6 8 -5q0 -8 -8 -8q3 -9 0 -13q-3 0 -3 -2h-23t-15 2q0 1 -3 0t-7 -3t-6.5 -6t-1.5 -8h3q3 -12 0 -23h-3v-8h3q2 -4 2 -16v-30h3q3 -5 0 -13h-3v-28t-2 -13h-3v-5h3q3 -12 0 -23h-3l5 -5v-131q2 2 5 -1
t5 -9h18q6 -5 12 -8t11 -5q12 -53 8 -64h-5v-12h5q3 -3 3 -8h5v-8q-2 0 0.5 -1.5t11.5 -3.5v3q10 -2 17.5 -4t13.5 -4q3 -2 3 -8h5v-20h2q3 -3 3 -10q2 4 5 2t5 -10q14 0 22 -1.5t14 -3.5q0 13 8 -8q7 -7 7 -33q12 -8 18 -10v5q16 3 28 0q0 -8 5 -8q13 0 16 3v5q10 3 20 0
v-5q21 0 23 -3q14 0 25 0.5t19 2.5q-2 2 -1.5 3.5t6.5 1.5q13 -13 13 -8q7 0 7 3q4 -2 6.5 -2.5t4.5 -0.5q9 -2 15.5 -0.5t12.5 3.5v5l3.5 -1.5t9.5 -3.5v5q7 3 17 0v-5q26 10 46 10q-11 8 3 8q0 17 2.5 20t2.5 5q0 -1 4.5 2t11.5 6.5t16.5 5.5t18.5 -1q0 11 8 8v43h-5
q2 14 3.5 25t1.5 19h3q0 5 2 7h36q3 5 10 5q-2 2 1.5 5.5t8.5 7.5z" />
    <glyph glyph-name="d" unicode="d" 
d="M659 127q3 2 -5 2v141h-2q-5 7 0 15h2v226h-2q-5 7 0 15h2v54q-5 0 -5 7q0 4 1.5 5.5t3.5 -0.5v16q-2 -2 -3.5 -0.5t-1.5 5.5q0 5 5 5v15h-2q-5 13 0 26h2v8h-2q-5 35 0 74h2v13h-5v130h-2q-5 7 0 15h2v16q-5 0 -5 5q3 2 5 0v13h-2q-5 3 0 12h2v8h-2q-4 11 0 23h2v10h-2
q-3 3 -3 21q-3 0 -3 5h-15q2 -2 0.5 -2.5t-5.5 -2.5q-2 2 -3.5 2.5t0.5 2.5q-6 0 -17 1t-22.5 1.5t-23 1.5t-18.5 1v-102q7 0 7 -3q-2 -2 -7 -2v-39h-3v-10q3 3 3 -5q3 -5 -3 -5q-3 -3 0 -3t3 -5t-3 -5q-2 -17 -0.5 -30.5t3.5 -23.5q4 6 7 -5q-2 -2 -7 -2q3 -8 -3 -8
q-2 -2 -2 -3h5v-128q7 8 7 -5q-10 -17 -10 -15q-5 -5 -33 -5v2q-10 -2 -17.5 -3t-15.5 1q0 10 -0.5 21t-2.5 25q-14 11 -26 8q-5 -2 -10.5 -3t-9.5 -3q0 -2 -2.5 1.5t-7.5 9.5v20h-5q-2 2 -2.5 7t-0.5 11h-49q0 -2 -1.5 -2.5t-3.5 -2.5v5h-36q-9 -6 -14.5 -8.5t-5.5 -4.5
q-2 -5 -2.5 -8t-0.5 -5h-20v13q-5 -3 -5 3q-8 4 -15.5 5.5t-12.5 -0.5v-21q2 2 2.5 1t2.5 -3q-8 0 -7.5 -5t-5.5 -5q4 -7 0 -11h-41q0 -2 -10 -2v-15q13 0 13 -13q0 -5 -3 -8h-10q0 -5 -3 -5q-31 -6 -46.5 -9.5t-17.5 -3.5l-2 -33q-6 0 -13 -1.5t-13 -3.5v-5q-13 -5 -18 0v5
q-5 0 -4.5 -4t-5.5 -4v-18h-5q0 2 1 2q2 0 4 -2q5 -12 0 -15h-5q-3 -4 -1.5 -11.5t4 -15.5t4 -15.5t-1.5 -11.5h-5v-38h5q4 -18 0 -36h-5l5 -5v-82q5 8 5 -8q0 -2 -5 -2v-13h3q3 -12 0 -23h-3v-10q2 2 2.5 1t2.5 -6q5 -5 -5 -5v-154q2 2 3.5 1t1.5 -3q13 0 16 -3v-3h33v-7
q2 -3 2 -23h6v-13q8 -4 13.5 -7.5t11.5 -5.5q-3 5 5 5q4 -2 5.5 -2.5t-0.5 -2.5h16v-8h5q2 -2 2 -7v-13h3v-10q2 2 8 -3q-2 0 10 -1.5t41 -5.5v-3h7v3q22 3 34 10q2 -4 5 -7.5t5 -5.5h8v3q5 2 9 3.5t6 1.5q25 2 45 0.5t34 -3.5q2 4 8 6t18 2q-6 4 2 13h-2q-5 9 0 12h2
q0 11 3 13h8q-5 5 7 5v-5q26 6 41 8t21 0q2 5 3.5 3.5t1.5 -11.5q33 0 36 -2v-18h5q2 -2 2 -7v-14h5q3 -2 3 -5q15 0 15 3q6 4 11 3.5t7 -6.5q17 2 32 2.5t24 2.5q3 -2 3 8q10 0 10 5v128h5zM258 677h-5v7h5v-7zM542 211q-5 -3 -5 -7q-17 -2 -32 -3.5t-25 -1.5q-3 0 0 -8h-5
v-39q-30 -3 -41.5 -8.5t-14.5 -13.5t-3 -17q0 -8 -7 -17h-26q0 2 -8 5q-10 0 -2 -5q-20 0 -33.5 -1.5t-22.5 -3.5q-14 4 -33 5.5t-42 -0.5q5 5 0 5q-12 0 -7 -5q0 16 -0.5 27t-2.5 17h-5v7h-43q0 5 -6 5q-2 -2 -4 -2q-1 0 -1 2q0 11 -2 13h-5v10q5 0 7 3q-3 10 -7 10
q5 0 7 3q0 2 -7 2v13h5q3 8 0 13h-5v13h5q3 7 0 15h-5v10h5q3 11 0 18q-5 0 -5 3h5q3 7 0 15h-5v10q7 0 7 5q-3 10 -7 6v20h5q3 7 0 15h-5v44h7q0 9 -7 5v38q-4 0 -5.5 1.5t0.5 3.5h5v21q-4 0 -5.5 1.5t0.5 3.5h5v31q7 0 7 2q-3 11 -7 5v8h5l3.5 24.5t1.5 16.5q17 2 29 3.5
t22 1.5v39q12 3 8 7h48h16v-5q10 -3 18 0v5h41q-2 -4 -1.5 -5.5t6.5 -1.5q9 3 5 7q30 0 33 3q0 -3 8 -3v-13h5q0 -25 5 -33q14 -2 25 -2.5t21 -2.5q0 -10 3 -13q0 -13 2 -15h5v-13q2 -2 7 -2h11v-6q2 -2 7 -2h11v-3q3 -2 15 -2q0 -6 3 -10.5t5 -10.5h3v-112h5v-10h-5v-16h5
v-10h-5v-51h5v-10h-5v-18h5v-39z" />
    <glyph glyph-name="e" unicode="e" 
d="M659 104v43h-5l1.5 3.5t3.5 9.5h-5q-3 10 0 21h5v7h-5v11h-112v-49q-20 -2 -33.5 -4t-23.5 -4l-2 -20h-3v-26q-9 0 -17.5 -2t-18.5 -8q0 5 -5 5q-2 0 -7 5q-4 1 -10 -1t-12.5 -4.5t-12 -3.5t-9.5 2q-25 7 -38 7q-31 0 -44 -5q-21 2 -38 3.5t-28 1.5q0 2 -6.5 7t-6.5 11
q0 2 1.5 3.5t3.5 -0.5v20q-10 4 -10 5q-14 2 -24.5 2.5t-16.5 2.5l-5 5.5t-5 15.5h-5v13h5v12q-5 0 -5 6h5v15h-5v20h5v23t2 11q0 15 4 18t4 5q11 2 19.5 3.5t13.5 1.5q10 0 16 -0.5t10 -2.5q0 8 13 8q0 -2 5 -2t7 -6h16q5 0 10.5 0.5t7.5 2.5q7 0 10 -3q31 2 54 2.5t38 0.5
q31 2 54 0.5t38 -3.5q0 5 5 5q2 -2 2.5 -3.5l0.5 -1.5q-13 5 15 5v-5q25 0 42.5 1.5t29.5 3.5q0 10 10 8v15q-6 0 -6.5 1.5t1.5 3.5h5v16h-5q-4 9 0 13h5l3 33q0 18 48 18h5v153l-28 3v5h-33v41q-20 2 -34.5 2.5t-24.5 2.5q-3 2 -3 33h-5q-2 14 -7 13.5t-13 1.5q2 -2 -5 -2
q-3 0 -3 2l-25 3v10h-3q-2 3 -2 23q-2 -2 -5.5 3t-5.5 5q-25 0 -34.5 1.5t-3.5 3.5q-12 -8 -18 -10v5q-2 0 -5.5 1.5t-7.5 3.5v-2q-13 0 -13 2q-10 0 -15 -5v5q-11 -7 -36 -2q-21 2 -56 2h-82q-4 -6 -7.5 -8.5t-5.5 -4.5l-2 -30q-17 -2 -29.5 -4t-21.5 -2l-5.5 -2.5
t-5.5 -4.5v-10q6 4 6 -8q2 -3 -6 -3l-2 -18l-3 -2q-11 -2 -20.5 -1t-14.5 3q-16 -7 -16 -10v-51h-5v-10h5v-51q5 3 5 -5h-5v-64h-5l1.5 -0.5t3.5 -2.5v-110q5 0 5 -5q-2 -3 -5 -3v-97q5 0 5 -2q-2 -3 -5 -3v-23q5 5 5 -5h-5v-26q5 5 5 -5h-5v-46q3 1 4 1q2 0 5 -1.5t9 -4
t18 -5.5v-3q21 0 18 -5q2 -14 4 -23t4 -15q13 0 23 -4.5t10 -8.5h25v-13q3 -2 3 -20h5v-8q6 -2 8 -3.5l2 -1.5q21 0 36.5 0.5t25.5 2.5q14 -2 23.5 -3.5t17.5 -1.5v-3q5 0 5 3q28 3 51 0v-3h10v3q12 3 28 0v-3h26v3q10 3 20 0v-3h8v3q16 3 28 0v-3h10v3q26 4 37.5 5.5
t13.5 1.5q-11 8 3 8l3 31h5q-4 9 0 12q17 0 20 -5q11 0 20.5 1.5t15.5 3.5q0 18 3 21l2 20q17 9 23 5v3q2 2 7 2.5t11 0.5q-3 2 5 10q10 0 10 5zM547 498h-5v-26q-8 5 -8 -5t8 -5v-31h-5l-3 -20q-14 -2 -23.5 -3.5t-14.5 -1.5q-2 2 -6 3.5t-10 1.5q-22 3 -30 -5v5
q-14 0 -25 -1.5t-16 -3.5q-20 2 -34.5 3.5t-24.5 1.5q-28 3 -41 -5q0 5 -15 5q0 5 -11 -5q4 8 -10 5q-3 -5 -31 -5q-58 8 -69 5v42t-2 27h-5v8h5q3 11 0 23h-5v5h5l2 30q6 4 3 8h46q5 5 5 13h5v25h5l3 13h28v-5q11 -3 23 0v5h8v-7q12 3 7 7h13v-5q23 -3 49 0v5h46v-5
q12 -4 25 0v5h16q-4 -7 0 -7q2 0 3 3.5t7 3.5q-2 -5 0 -9t8 -4v-11q0 -5 2 -9h5v-13q2 0 11 -2.5t15 -2.5h18q2 -4 7 -7.5t11 -5.5v-38h5v-5z" />
    <glyph glyph-name="f" unicode="f" 
d="M657 613v41q-3 0 -3 5q-2 2 -0.5 3.5t3.5 1.5v33q-8 2 -13.5 4t-7.5 4q-9 2 -16 2q-6 0 -12 -5q-2 -2 -7 -0.5t-11 3.5v5h-18v-2q-23 -5 -43 0v2h-36v-2q-11 -4 -20 0v2h-36v-2q2 2 -16 2l-10 32t0 29h3l-3 3q-3 16 0 36h3l-3 2q-3 27 0 54h3v23q-3 0 -3 5q-2 3 3 3
q0 10 5.5 12.5t7.5 7.5q5 -4 9 -7.5t6 -5.5h20q29 13 16 13v10q-6 2 -6.5 3t1.5 3h5l2 23q17 -5 30.5 -8t23.5 -5q2 -2 2 -5q0 -2 -2 -8q5 5 5 -8h-5v-5h5v-56q6 0 9 -1.5t1 -3.5h34q0 -8 5 -8q15 2 27 2.5t21 2.5q2 0 6 8t12 8v25h3v16q-3 0 -3 5q0 2 3 2v16h-3v20
q-5 0 -7 1.5t0 3.5q-5 2 -14.5 3.5t-26.5 1.5q0 5 -1.5 3.5t-4 0t-4 10t-1.5 32.5q-4 0 -5.5 1.5t0.5 3.5q-2 0 -3 -1.5t1 -3.5q-20 0 -31 1.5t-13 3.5q-10 -2 -22 -3.5t-29 -1.5v-5q-11 -3 -20 0v5h-18v5q-2 -2 -9.5 -3.5t-18.5 -1.5q4 -4 -6 -7v-36q-2 -3 -25 -3
q-16 5 -36 0v-30h-5q0 -13 -3 -13q-9 -4 -15.5 -5.5t-12.5 0.5v-5q-10 0 -15.5 -0.5t-9.5 -2.5l-3 -169h-2v-5q5 0 5 -5q-3 -3 -5 -3q0 -10 -6 -10q-48 0 -35 -5v-2q-17 -5 -28 0v2q0 -2 -9.5 -3t-11.5 -7q0 6 -4 7t-6 3h-46v-2q-27 -5 -54 0v2q-14 -4 -23.5 -6t-14.5 -4
l-3 -28h-2v-8h2q2 -10 2.5 -23.5t0.5 -32.5q-5 -5 10 -5l28 -3q-3 -10 3 -10h92q0 5 5 5q2 -3 2 -5h72h26q0 -8 3 -25t2 -26h2q3 -3 3 -39h2v-15q2 2 4 1.5t4 -6.5q0 -7 -10 -10l-3 -26h-2v-61h2q2 -4 2.5 -8.5t0.5 -9.5q0 -6 -0.5 -10t-2.5 -8h-2v-15h2v-70h-2v-33
q2 4 2.5 2.5l2.5 -7.5q5 -5 -5 -5v-8h2q2 -4 2.5 -14t0.5 -27q2 0 3 -1.5t-1 -3.5q0 -2 -2 -2l-3 -16h-2v-12h5v-133q2 4 2 3v-6q6 0 10 -1.5t6 -3.5v2q25 -2 45 -3.5t34 -3.5q0 2 13 10v19q0 9 2 14h5v8h-5q-3 7 0 18h5v15h-5q-3 20 0 41h5v36q-4 -5 -7 8q0 2 7 2v13
q-7 0 -7 2q3 5 7 0v36h-5q-3 12 0 23h5v46h-7q4 6 7 3v18h-5v171h5v16h-5v61h5q0 2 -3.5 4t-3.5 4h7v25q2 0 3 1.5t3 3.5q21 2 36 4t25 4q2 -2 5 -2.5t5 -2.5q12 4 21.5 5.5t19.5 -0.5v-5q6 0 18 2.5t18 2.5q-2 2 -1.5 4t6.5 4q3 -3 3 -8h46v5q8 2 15 7.5t13 5.5z" />
    <glyph glyph-name="g" unicode="g" 
d="M659 -29h-2q-2 6 -2.5 10.5t-0.5 9.5q0 6 0.5 10.5t2.5 10.5h2q0 2 -2 2v69h2v11q-2 2 -5 2v172q-2 2 -2 7t2 5v21h-2v13h2v10q-2 2 -2 8q0 2 2 2v38q-2 3 -2 6q0 5 2 5v10h-2v20h2v36h-2v49h2v7q-2 0 -2 6q-3 2 2 2v8h-2v18h2v10h-2v20h2v8h-2v11t2 7h-2v43h2q0 3 -2 3
v64q-6 0 -11 0.5t-7 2.5v2h-21v-2q0 -3 -12 -3l-16 -8v-2q-8 -2 -13.5 -4t-9.5 -4v13q-4 2 -5.5 2.5t0.5 2.5q-10 0 -14 -1.5t-6 -3.5v-39q-14 -4 -27 -5.5t-25 -1.5q0 7 -7 7q-10 14 -12.5 25t-0.5 19q-13 0 -15 3v2h-11q2 -2 1.5 -3.5t-6.5 -1.5v5q-7 0 -5 -2
q-11 -4 -20 0v2h-8v-2q-59 -5 -110 0v2q-10 -2 -14 -3.5l-4 -1.5h-38q0 -2 -8 -5v-18q8 0 8 -5q-3 -3 -8 -3q0 -7 -2 -10q-9 0 -22 -1.5t-26.5 -3.5t-25.5 -3.5t-19 -1.5v-3q-2 -2 -15 3q2 -2 0 -2.5t-8 -2.5v-39q-40 -10 -61 -10v-31h5q0 -5 1.5 -7.5t3.5 -4.5
q0 -4 -10 -13v-110h5q4 -7 0 -16h-5v-35q5 8 5 -5q-2 -3 -5 -3v-61h5q4 -8 0 -18h-5v-16q5 5 5 -5q2 -2 0 -2q-1 0 -5 2v-20h5v-8q6 -2 13 -5t13 -5q4 9 15 5q1 3 3 1t4.5 -5.5t4 -8t1.5 -7.5h2v-21h6q2 -2 2 -5q13 0 15 -3v-5h8q-3 8 5 8q8 -5 5 -8h18v-13h3q2 0 2 -15h3
q3 0 0 -8q11 -5 19.5 -7.5t13.5 -4.5q-5 2 -3 3.5t16 1.5q0 -3 3 -5q7 0 7 2q13 5 13 -2h47q21 0 35 2v-2q20 0 23 2q13 5 13 -2q10 0 10 2q41 0 70 -1.5t50 -3.5v-2h18q-2 2 -1.5 3.5t6.5 1.5q10 -8 15.5 -12t5.5 -6q0 -3 -3 0v-8h3q-2 -4 -0.5 -11t5.5 -17q3 -19 0 -31h-5
v-41q4 9 7 -2q-8 -2 -29 -6t-35 -4v-41h-68q-27 0 -44 2q-5 0 -10 -2h-11q3 -3 -5 -8q-7 0 -7 8q-33 2 -58 3t-42 -1q-2 14 -4 23.5t-4 15.5q-8 0 -5 2q-17 2 -30 4t-21 4v5h-3q-2 2 -2 23h-5v8q-11 -4 -11 -8v8q-5 2 -6 2.5t1 2.5h-28t-13 2h-30q-2 0 -6.5 -3.5t-14.5 -9.5
v-35q4 -2 7.5 -4t5.5 -4q14 -4 24 -6t19 -2v-15h6q2 -3 2 -20q2 2 4.5 1t8.5 -7l2 -2q12 -6 21.5 -8t17.5 -2q2 -6 2 -22v-42h3v-13q8 2 13 -2t5 -6h41v-5q2 0 2.5 1.5t2.5 3.5q13 5 25 0v-5q2 2 4 0.5t2 -5.5q5 0 13 2.5t10 2.5v5q7 4 17 0v-5h8q-3 5 5 5q3 0 3 -5
q2 0 2.5 1.5t2.5 3.5q13 5 26 0v-5q10 0 10 -5q8 2 25 3.5t46 1.5q6 4 13 5.5t13 -0.5q0 8 10 8l3 20h2v5q0 3 0.5 4.5t4 2.5t11.5 1h23v-2q2 0 2 2h16v-2q5 0 5 2q15 2 26.5 3.5t19.5 1.5l7 26h6q-10 8 2 13q23 8 41 5v5q10 0 10 2q0 8 1.5 13.5t3.5 7.5zM537 314
q-16 0 -16 -8q-25 0 -30 -5v-5h-11q-7 -7 -2 -16h2v-5h-2q-3 0 -3 -13h-10v-5q-25 -2 -43 -2h-29q-5 -1 -13 -1h-16t-17 0.5t-12 0.5q0 2 -3 0v2q-6 2 -9.5 -2.5t-5.5 -4.5q-2 2 -4.5 3.5t-6.5 1.5h-5q-20 3 -30 0q-14 4 -25 5.5t-19 1.5v39q-2 8 -13 5v2q-7 0 -7 -2h-31
q-11 3 -8 8v212h3q2 2 2 18h41q0 2 6.5 7t4.5 11h2v20h8q0 6 1.5 8.5t3.5 4.5q32 0 51.5 -1.5t27.5 -3.5q51 0 79 5q6 -4 8.5 -6l2.5 -2v-18h5v-18q7 -10 15 -2q-2 2 5 2q0 -5 12.5 -8.5t23.5 -3.5v-13h5q-2 -12 0 -17.5t5 -8t6.5 -3t4.5 -2.5l25 -2q4 -11 15 -11
q2 -13 4 -20.5l2 -7.5v-140z" />
    <glyph glyph-name="h" unicode="h" 
d="M659 55v10h-5q-3 9 0 16h5v13h-5q-3 18 0 33h5q0 6 -1.5 9t-3.5 1q3 3 5 3v20h-5q-3 8 0 13h5v46q-5 0 -6 1.5t1 3.5h5v18h-5q-2 3 0 5q2 4 3.5 6l1.5 2h-5q-3 27 0 46h5v7h-5q-3 8 0 18h5q0 6 -5 6v58h5v16q-5 0 -5 2v131q-8 0 -5 5q-10 0 -15 -5v5q-8 -2 -13.5 -0.5
t-7.5 5.5v-5q-11 -5 -15 0v5q-8 0 -10.5 2.5t-2.5 10.5q0 5 3 7h2v21q-17 2 -31.5 2.5t-24.5 2.5q0 8 -3 5v79q-11 4 -19 7t-15 5t-13.5 3t-15.5 1v2q-2 2 -4 -1.5t-4 -3.5q-6 0 -6.5 1.5t1.5 3.5h-97v-2q-14 -2 -23.5 -2.5t-15.5 -2.5q0 2 -5 2q-3 3 0 5q-6 -4 -10.5 -6
t-9.5 -4v-10q2 -2 3.5 -2.5t1.5 -2.5t-2 -2q-1 0 -3 2q0 -10 -2 -14.5t-4 -6.5q-9 -4 -15 -6t-10 -4v5q-8 4 -15 0q-5 -2 -7 -3.5t-4 -1.5q-2 -6 -2.5 -11t-2.5 -9q5 0 5 -6l-5 -7t-5 -13q-27 -5 -54 0q-2 6 -2 9v4h-5q-6 10 -6.5 19t1.5 19q-11 0 -8 3q2 2 8 2v18h2
q0 6 0.5 11t2.5 10h5q-3 0 -5 2q-4 7 0 16h5v79h-5q-4 7 0 18h5v20h-5q-4 7 0 16h5v5q-8 -5 -8 7q0 3 8 3v15q-8 -3 -8 8q0 2 8 2v8h-5q-3 3 -3 21q-2 0 -2 5t2 5v69q-2 2 -2 8h-16v-6q-7 -3 -18 0v6l-7 -8q-8 -5 -16 0q-2 2 -2 8h-31v5q-5 0 -18 -13v-31h3q3 -11 0 -18h-3
l-2 -30h-3v-23h3q3 -9 0 -16h-3v-5h3q3 -27 0 -54h-3v-7q2 2 2.5 0.5t2.5 -3.5v-148q3 -3 3 -39h-3v-79q5 0 3 -2l-3 -3v-197h3q3 -12 0 -28h-3v-10h3q3 -24 0 -46h-3q2 -10 2.5 -16.5t0.5 -11.5v-85h-3v-5h3q3 -11 0 -20h-3v-11h3q3 -8 0 -15h-3v-10h3q3 -11 0 -21h-3v-10
h3v-56q4 10 7 -3q29 -2 51.5 -3.5t38.5 -1.5q0 5 10 5q0 9 10 13v5q-2 3 -2 8q0 2 2 2v85q-2 2 -2 36q-8 -5 -8 2q3 3 8 3v335q19 5 32.5 9t23.5 4h21q8 -2 13.5 -2.5t11.5 -0.5q2 2 4.5 6t16.5 9v74h5v13h61v-5h10q-3 8 5 8q4 -4 0 -8h26v5q26 4 49 0v-5h18v-8h5l3.5 -45.5
t3.5 -33.5q-3 -3 11 -10h23q2 3 7 3v-3q10 0 13 -2t3 -16q2 6 3.5 4.5t1.5 -9.5q-3 -3 -5 0q5 0 5 -15q0 -5 -0.5 -8.5t-2.5 -7.5h-2v-10q10 0 5 -5h-5q0 -33 5 -46q5 5 5 -5q3 -5 -5 -5v-264h5v-15h-5v-5h5v-16h-5v-41h5q0 -5 -1.5 -9t-3.5 -8h5v-8q2 0 15 -8h54v3h38v13
h-5q0 9 2.5 24t2.5 29h5z" />
    <glyph glyph-name="i" unicode="i" 
d="M468 805v36q-3 2 -3 5l3 2v10q-6 2 -6.5 3t3.5 3l3 2v54h-3v20q-37 8 -51 8q-17 2 -30 0.5t-19 -3.5q-2 2 -9 2.5t-16 0.5v5q-21 -5 -23 -8l-3 3q-6 0 -11 -0.5t-9 -2.5v-35h-3v-13q2 4 2.5 3.5t0.5 -6.5q0 -7 -3 -7h3v-90q23 -4 39.5 -6t26.5 -2h21q10 4 17 0h18
q4 2 14 2.5t27 0.5q0 2 11 13zM534 -6v15h-3v49h3v117h-3v49h3q0 3 -3 5v39h3v20h-3v46q-7 -3 -7 5q0 9 7 5v16q-10 0 -7 2q2 3 7 3v20h-5q-3 7 0 16h5v35q-7 -3 -7 5q0 6 7 6v92q-13 0 -10 10q8 0 10 2v11h-5q-3 9 0 12h5q-2 3 -5 3q-3 13 0 26h5v7h-5q-3 8 0 16h5v58
q-11 0 -19 2t-14 4q0 2 -2.5 3.5t-2.5 3.5h-18v-2q-2 -3 -15 -3q0 -6 -1.5 -8t-3.5 0q0 6 -6 6q-5 0 -7 2h-90q-33 0 -43 -2l-14 3.5t-12 1.5v2h-25q2 -2 1 -3.5t-6 -1.5v5l-5 -5h-67q0 -5 -8 -5v-36q5 -3 5 -10q0 -8 -5 -13q2 -10 2.5 -18.5t0.5 -14.5q2 2 3.5 1.5
t1.5 -6.5q10 0 22 -0.5t29 -2.5v-5h21v5q4 -3 9 -1t10.5 5t11 5t10.5 -1q36 -8 63.5 -12t48.5 -6q6 -20 9.5 -33t3.5 -23h2q-2 -14 -3.5 -23.5t-1.5 -17.5h-2q2 -10 3.5 -19t1.5 -14q2 2 2.5 1t2.5 -7q2 -2 0.5 -3.5t-5.5 -1.5v-10q2 2 2.5 1.5t2.5 -6.5q-2 -2 -2.5 -3.5
t-2.5 0.5v-23q10 0 5 -5q0 -2 -5 -2v-166q2 2 2.5 0t2.5 -8q-3 -3 -5 -3v-192h2q3 -2 3 -7q0 -2 -0.5 -5t-2.5 -5h-2v-8q4 0 15 -8h46q-4 2 -3.5 2.5t6.5 0.5q10 0 8 -3q15 2 26 4t17 4z" />
    <glyph glyph-name="j" unicode="j" 
d="M621 805q0 2 -3 2q-3 15 0 34h3v23h-3q-3 7 0 17h3v8h-3q-2 10 -2 22v29q-4 2 -5.5 2.5t0.5 2.5q-10 0 -17 0.5t-9 2.5q-8 0 -8 -3l-2 3q-14 0 -22.5 -0.5t-10.5 -2.5q-16 -3 -18 3q-10 -2 -15.5 -3.5l-5.5 -1.5q-8 2 -14 2h-11v3q-12 -2 -21 -4t-15 -4v-30h5q4 -9 0 -16
h-5v-7h5v-13h5v-18q-4 -10 -5.5 -19t0.5 -17h-5v-15q5 5 5 -3q21 -13 31 -13h20q10 4 21 0h20q11 4 23 0h23q17 5 23 3zM626 -1v31l-3.5 3.5t-1.5 3.5t1.5 2.5t3.5 2.5v11q-10 0 -10 10q2 0 3 5t7 3v130h-5v23h5v8h-5v69h5l-5 5v15h5q-2 3 -5 3v71h5v6h-5v87q-5 -5 -5 5
q0 5 5 5v92q-5 -5 -5 5q0 8 5 8v33h-3q-3 11 0 18h3v30h-3q-2 3 -2 8q-13 0 -15 3v2q-5 -4 -11 -6t-10 -4l-5 5q-18 0 -21 -2l-7.5 3t-2.5 -1q-10 -2 -17.5 -3t-12.5 1v2q-20 0 -32.5 -2.5t-20.5 -5t-11 -4.5t-3 -1v-33q2 0 13 -8q36 0 41 -2v-8h2q0 -25 1.5 -42.5
t3.5 -28.5h-5v-31h5q4 -7 0 -18h-5v-23h5q2 -14 2.5 -33.5t0.5 -48.5h3q3 -12 0 -31h-3v-79h3q3 -11 0 -18h-3v-41h3q3 -8 0 -15h-3v-110q2 2 2.5 1.5t0.5 -6.5q3 -5 -3 -5v-5h3q3 -13 0 -26h-3v-13q3 3 3 -7q4 -6 -3 -6q-3 -2 0 -2t3 -5t-3 -5q0 -12 -0.5 -20t-2.5 -14h-7
q0 -2 -6 -2q-5 0 -7 -5h-21q-9 0 -15 2v-38q-3 1 -3.5 0.5t-1.5 -2t-3.5 -2.5t-9.5 -1v-5q-21 -5 -41 0v5q-2 0 -2 -4t-5 -4q-10 0 -5 8h-21v-5q-12 -5 -28 0v5h-18q3 -3 -5 -8q-3 3 -3 8h-7v-5q-12 -5 -23 0v5h-16v5h-2q-5 7 0 15h2v8q-7 0 -5 3q0 2 5 2v49l-10 10
q-36 0 -41 2q0 3 -2 0q-4 6 -6 14t-2 22h-5v59h-10v-2q-8 0 -14 -0.5t-12 -2.5q0 2 -4 2.5t-6 2.5h-16q2 -2 1 -2h-6q-7 0 -5 2h-36q2 -2 1 -2h-6v-13h5v-13q6 0 6 -3q0 -2 -2 -3t-4 1q-3 -5 0 -5q2 -2 4 -2.5t2 -2.5q0 -8 -6 -8v-44q17 -5 32 -7.5t25 -4.5v-11q7 8 7 -5h-7
v-15h5q3 -12 0 -23h-5q0 -3 5 -3q0 -2 -1.5 -5.5t-3.5 -11.5h5q2 -3 2 -13q12 0 20 -1.5t14 -3.5q0 -2 3 -3.5t6 -3.5t6 -5t3 -9h2q2 -6 2.5 -21t0.5 -40h2q5 0 0 -8q8 5 8 -5q6 2 11 0.5t7 -3.5q2 3 5 3q2 0 2 -3h16v-5h7q-3 5 8 5v-5h13v5q7 4 18 0v-5h10v5q6 2 11 2.5
t7 0.5q13 0 13 -3q18 0 20 3v-3h123q11 8 20 8q0 10 -5 5v21q5 1 7 3t4.5 4t7.5 3.5t17 1.5q-2 2 1.5 5l3.5 3h21v21q-5 3 -5 7h5l2 51q3 0 3 3q15 4 26.5 6t19.5 4q-2 2 3 7.5t7 5.5z" />
    <glyph glyph-name="k" unicode="k" 
d="M659 19v8h-5v8q-25 0 -36 7q-2 0 -5.5 2t-9.5 4q0 -2 -10 7q-4 7 0 16h5q-3 2 -5 2q-4 23 0 49h5v7h-5v8q-17 4 -29.5 6t-21.5 2q-8 3 -8 30h-3q-3 9 0 21h3l-3 3v38q-12 0 -7 5h-26v3l-25 2v8h-3q-2 5 -2 24v53h-3q-5 0 0 5h-24q-9 0 -14 2v5q-6 2 -8.5 2.5t-4.5 2.5v77
q10 4 14 6l4 2v2q8 2 13.5 2.5t9.5 0.5q14 6 16 9.5t-3 3.5l3.5 17.5t3.5 12.5q27 2 40.5 4t15.5 2q-3 10 3 10l3 28q5 0 7.5 2t17.5 8q12 4 21 0q0 8 10 8l1.5 3.5t3.5 9.5h-5q-5 3 0 12h5q-2 2 -0.5 4.5t3.5 8.5h17v5q10 2 17.5 4t13.5 4l3 26h2v12q-5 0 -8.5 2t-1.5 6
h-77v-3q-13 -4 -25 0v3h-21v-3q-11 -3 -23 0v3h-13q2 -2 1.5 -2.5t-6.5 -2.5v-28h-5q0 -13 -2 -13q-13 -5 -18 -5v5q-10 -2 -15.5 -3.5l-5.5 -1.5q-8 -8 -15 0q0 -14 -0.5 -23.5t-2.5 -15.5q-2 0 -2 -2q-14 -6 -23.5 -8.5t-17.5 -4.5v-10h2q5 -5 0 -13q5 -3 -15 -8v-12h-2
q0 -8 -3 -11q-8 -2 -13 -1t-7 7q-8 0 -17.5 -2t-18.5 -4v-10q4 6 7 -5q0 -9 -7 -5q0 -11 -0.5 -15t-2.5 -5.5t-5 -2t-8 -3.5v-2q3 2 -15 2q2 -2 2 -3l-5 -2q-4 10 -5.5 13t-1.5 -3h-18q0 -13 -0.5 -21.5t-2.5 -13.5h-5v-13q-21 -8 -30 -8l-3 3l-28 2v8h-5q-4 64 0 125h5v39
q-4 5 -6 12.5t-2 12.5q-5 0 -2 3q0 2 2 0v79h-2q-3 3 -3 8t3 7h2q0 3 -2 6q-5 0 0 5q0 2 2 2v39q-2 0 -2 5q-2 2 -1 3.5t3 1.5v207h-2v10q-7 -2 -11 0q-2 5 -2 26h-16q0 2 -2 2q-3 3 0 6h-15q3 -5 -6 -8q-8 0 -5 8q-17 -2 -30 -4t-21 -4h-5v-18q5 5 5 -5q-2 -3 -5 -3v-15
q5 8 5 -3q0 -5 -5 -5v-18h5v-18q2 0 5 -5t5 -5q-2 0 -5 -5t-5 -5v-5q3 2 5 -8q0 -7 -5 -2v-41q3 2 5 -8q0 -5 -5 -5v-18q5 0 5 -5q-2 -3 -5 -3v-23h3q-2 -14 -3.5 -23.5t0.5 -17.5h-5v-5q3 0 5 -2v-167h3q3 -12 0 -25h-3v-54h3q3 -11 0 -18h-3v-33q2 2 2.5 1.5t2.5 -6.5
q0 -5 -5 -5v-85h3q3 -9 0 -20h-3v-10h3q3 -21 0 -41h-3v-18q2 2 2.5 0.5t2.5 -3.5q0 -2 -5 -2v-10h3q3 -12 0 -23h-3v-29h3v-61h-3v-13h3q2 -17 2 -42v-60q4 3 8 -8q13 0 18 -5q17 2 30.5 2.5t23.5 2.5v3h17q0 10 16 10v31h-5q-5 7 0 15h5v10h-5q-4 10 0 21h5
q-6 10 -6.5 19.5t1.5 23.5h5v103h2q0 4 0.5 7.5t4 6.5t12 4.5t24.5 1.5v-5q6 2 11 2.5t7 2.5v28q8 5 8 10q11 2 20.5 3.5t17.5 -0.5v5h10q0 13 3 13h3q0 2 -2 2.5t-4 2.5q-2 0 0 2q0 6 6 6v18q2 5 8.5 6.5t16.5 -4.5q4 -2 12 -2h19v-13h5q2 -26 2.5 -44.5t0.5 -32.5
q13 -6 24 -8.5t19 -4.5q0 5 5 5q2 -2 4 -3.5t4 -1.5q2 -14 3.5 -22.5t1.5 -10.5h2q2 -6 2.5 -10.5t0.5 -10.5q0 -5 -0.5 -9.5t-2.5 -10.5h-2q2 0 3.5 -3t1.5 -12q2 2 2.5 1t0.5 -6q17 0 27 -2t16 -4q3 3 10 -7v-39h3q2 -8 2 -18v-23q2 -2 4 -2.5t2 -2.5q17 -2 28.5 -3.5
t17.5 -3.5v-11h5v-12h5v-18q2 4 2.5 3.5t2.5 -6.5q34 0 51 -5q6 2 14 3.5t22 1.5v3q3 0 15 5v25h5z" />
    <glyph glyph-name="l" unicode="l" 
d="M473 7v53q-5 5 -5 8t5 3v12q-8 0 -5 3q0 6 5 3v28h-5v20h5v26h-5v28h5q-3 2 -5 2v59h5v62q-4 2 -5.5 2.5t0.5 2.5q0 3 5 0v46h-5v18h5v18h-5v17h5v23h-5v98h-6q-3 7 0 15h6v202q-5 -3 -8 8q0 6 8 2v41q-6 2 -8 2.5t0 2.5q2 3 8 3v135q-8 -3 -8 3q0 8 8 8v15q2 0 -11 8
q-17 0 -20 5q2 -2 0.5 -2.5t-3.5 -2.5q-2 2 -2 5q-27 0 -51 -8q0 2 -6.5 1t-6.5 7h-54q-11 -4 -20.5 -6t-15.5 -4v-3q-11 -3 -18 0v3h-25v-11q7 8 7 -5q-3 -9 -7 -5v-23q4 2 7.5 -1t5.5 -9q17 0 28.5 -0.5t17.5 -2.5q12 -4 23 3q8 2 12 0.5t6 -3.5q7 -3 7 3q-2 -3 13 -3v-10
q3 3 5 0v-391q5 3 5 -5q0 -3 -5 -3q3 0 5 -2q4 -44 0 -123h-5v-31h5q6 -4 0 -13h-5v-12h5q5 -5 0 -13h-5q-2 -3 5 -3q4 -11 0 -18h-5q0 -21 1.5 -37.5t3.5 -26.5q5 8 5 -5q0 -8 -5 -5v-77h-5q3 -2 5 -2v-108h3q3 -7 0 -18h-3v-7h3q2 -3 2 -13q15 -7 23 -10q2 2 4 3.5t4 1.5
v-5q5 0 13.5 1.5t17.5 3.5t16.5 3.5t11.5 1.5v5q10 0 13 3z" />
    <glyph glyph-name="m" unicode="m" 
d="M659 4q-2 0 -5 3v25h5v10h-5v13h5v18q-2 2 -3.5 4t-1.5 4q3 2 5 2v16h-5v15h5q-2 3 -5 3v35h5v21h-5v87h5v28h-5v18h5v8h-5v18h5v7q-1 -1 -5 3v158q-2 -2 -3.5 -0.5t-1.5 5.5q0 3 5 3v5h-2q-5 20 0 38h2v75q-9 3 -13 12q-8 5 -18.5 6.5t-24.5 1.5q-5 13 -5 38
q-4 0 -5.5 2t0.5 4h-31v5h-20v-5q-18 -4 -36 0v5h-8q0 -5 -8 -5t-5 5h-12q0 -5 -8 -5q-10 0 -5 5h-11v-5q-9 -2 -15 -3t-10 -3l-3 -20h-2v-13q-18 -7 -31 -7v2q-2 2 -9 1t-16 -3v-131q-11 -3 -16 -8v-2q-5 -2 -11 -2.5t-12 -0.5t-10.5 0.5t-9.5 2.5v2q-8 0 -8 6q-4 7 0 17h3
q0 6 -3 3q-5 7 0 15h3v11h-3q-2 21 -2.5 53t-0.5 74h-20q-6 2 -11 4.5t-7 6.5v-5q-15 0 -15 -6q-39 9 -59 6v5q-5 0 -10 -5q-10 0 -5 5h-21q5 -5 -5 -5q-3 2 -3 5q-1 -1 -6.5 -5t-11.5 -8.5t-5 -4.5l-2 -31q-16 -2 -28 -2h-21v-6q-2 0 -5 -2.5t-5 -2.5v-5h5q4 -8 0 -15h-5
v-36q5 5 5 -8q0 -8 -5 -5v-82h5q4 -8 0 -15h-5v-28h5q4 -12 0 -23h-5v-8h5q4 -10 0 -20h-5v-13q5 5 5 -5h-5q2 -14 3.5 -23.5t1.5 -17.5v-84h-5v-6h5q4 -8 0 -15h-5v-10h5v-56h3q3 -14 -3 -18h3q2 -2 2.5 -4t2.5 -4q-2 -2 -2.5 -4t-2.5 -4h-3v-92q5 0 5 -2q0 -5 -5 0v-13h3
q2 -3 2 -18h8q3 0 3 -5h28q12 0 18 2q17 -7 30 -7q2 5 7.5 8.5t13.5 1.5q0 5 5 5v414q-5 5 -5 8l5 5v36q-8 0 -5 3q0 2 5 2v26h-5q0 12 5 15h-5q-4 10 0 21h5v21q0 9 2 14h3v11l51 -3v-8h5q2 -5 2.5 -17t0.5 -29q5 0 5 -2q0 -3 -5 -3v-66q-4 -4 7 -8q14 -2 22 -3.5t12 -1.5
v-5q12 0 15 -3v-13q3 0 3 -2v-161h5q3 -11 0 -18h-5v-72h5q3 -7 0 -18h-5q2 -2 5 -2q3 -11 0 -21h-5v-41q4 11 7 -2q-2 -3 -7 -3v-7h5q2 -10 2 -27v-40q5 5 5 -5q4 4 13 -5v-5l17.5 3.5t13.5 1.5q15 2 26.5 1t16.5 -6q2 2 7.5 8.5t13.5 6.5v13h2q2 0 1 2t-3 8v87h2q0 3 -2 3
q-2 9 -2.5 18.5t-0.5 19.5t0.5 18t2.5 18h2v1q0 2 -2 4q-7 18 2 18l-2 2v90h2v8h-2q-2 17 -2.5 32.5t-0.5 31.5q0 17 0.5 33t2.5 33h2v8q-2 0 -2 5q-3 2 2 2l3 18q20 17 46 13v3q10 2 10 5v13q-10 0 -7 2q2 3 5 3l2 61h5q-5 6 6.5 10.5t19.5 4.5q2 0 6 -2t9 -8q5 5 5 -13h5
q3 -2 3 -5h3v-107q4 4 7 -5q0 -8 -7 -8v-66h5q3 -10 0 -13h-5v-16h5v-61h-5v-41h5v-148h-5v-5h5q2 -14 2 -37v-53q2 4 2.5 2.5t0.5 -7.5l7.5 -2.5l22.5 -7.5q6 0 18 5q14 4 18 0v-5q8 0 19 2.5t17 2.5q0 14 10 10z" />
    <glyph glyph-name="n" unicode="n" 
d="M659 4v120h-5q0 2 1.5 3.5t3.5 -0.5v36h-5q-3 9 0 20h5v54q-8 0 -9 3.5t-3 9.5l5 5h2v15h5v18h-5q-3 7 0 15h5v72h-5q-2 2 -2 4q0 3 2 9h5q0 2 -3.5 3.5t-1.5 3.5q0 2 1 2q2 0 4 -2v13h-5q-3 7 0 18h5v44h-5q-4 12 0 25h5q-2 8 -3.5 17.5t-1.5 23.5q-5 0 -8.5 2t-1.5 6
q-32 7 -51 7v87q-2 -2 -3.5 -1t-1.5 7h-11q6 -6 -2 -6q-12 0 -8 6h-20q-17 3 -13 12q-3 0 -3 28q-13 0 -7 6h-16v5h-7q3 -5 -5 -5q-10 0 -5 5h-11q5 -5 -5 -5q-7 0 -7 5h-13v-5q-27 -4 -49 0v5h-18q5 -5 -5 -5q-2 2 -2 5h-13v-5q-16 -5 -28 0v5h-18q-18 -11 -28 -11v-28
q-3 -2 -3 -5q-15 -4 -26.5 -5.5t-16.5 -1.5v-6q-11 0 -16 -5v-76q-10 -2 -22 -4t-29 -2q0 -8 -10 3v36h-5q-2 17 -2.5 42t-0.5 58h-23q2 -2 0.5 -4t-5.5 -2q-3 3 -3 6q-13 0 -17 -6q-2 0 -5 2t-8 4q-8 3 -13 0q0 3 -10 -8q-13 3 -13 8h-13v-108h-5q5 13 5 -8q0 -8 -5 -5v-12
h5q0 -13 -5 -13v-16h5v-17h-5v-34h5v-43q5 8 5 -5q-2 -3 -5 -3v-13h3q3 -9 0 -12h-3v-69h3q3 -19 0 -34h-3v-18q2 2 2.5 1t2.5 -3q0 -3 -5 -3v-143h3q3 -8 0 -15h-3v-28h3q3 -9 0 -16h-3v-15h3q3 -16 0 -36h-3l2.5 -4t2.5 -19q6 -2 10 -4t6 -6h48q2 2 4 3.5t4 1.5v-5h15
q2 0 10 7.5t16 7.5v51q-8 -3 -8 3q0 5 8 5v281h-5q0 29 1.5 51.5t3.5 38.5h15q0 5 3 5q2 0 3 -1.5t-1 -3.5h16v5h15q0 2 10 13v25h5q-3 5 3 11q14 4 18 -3q8 0 14 1.5t11 3.5q2 -2 11 13v31q7 0 10 2l2 -2q4 -4 16 0q5 2 10 2h8q0 14 10 10v21q10 0 10 2v11h44t30 2
q14 -2 23.5 -3.5t15.5 -1.5q2 -3 2 -23h5v-13q2 0 18 -5t33 -5v-8h3q2 -9 2.5 -22.5t0.5 -30.5h5q3 -27 0 -54h-5v-64q5 0 5 -3q0 -5 -5 0q-4 -7 0 -7q5 0 5 -5q0 -4 -1.5 -5.5t-3.5 0.5v-8h5q3 -11 0 -18h-5v-26q2 2 3.5 1.5t1.5 -6.5q0 -5 -5 -5v-10h5q3 -8 0 -15h-5v-11
q2 2 3.5 1.5t1.5 -6.5q0 -5 -5 -5v-10h5q3 -51 0 -102h-5h5v-75h5q3 -12 0 -28h-5v-10q5 -6 10.5 -8t9.5 -2q11 2 20.5 3.5t15.5 1.5q12 7 15 -5q10 2 17.5 2.5t13.5 2.5q0 10 15 10z" />
    <glyph glyph-name="o" unicode="o" 
d="M657 158q0 2 -5 2q-3 0 0 3q2 2 2.5 3t2.5 -1v72h-3q-3 12 3 18q-3 -3 -5 0v258h-5q0 2 1.5 4.5t3.5 8.5q-5 0 -5 5q-6 2 -11.5 2.5t-9.5 2.5q-10 0 -8 -2q-5 -2 -9 -1t-6 3q-8 -3 -8 8q-8 21 -5 33q-7 0 -10 1l-4.5 1.5t-2 1.5t-3.5 1q-2 0 -2 1q0 2 2 4q-3 -2 -3 -5
q-11 -3 -18 0v5h-14q-4 0 -6 3.5t-2.5 13t-0.5 27.5q-5 -1 -12 0t-15 2.5t-15 3t-11 1.5q-6 12 -6.5 21.5t1.5 17.5q-14 0 -11 5h-71q3 -5 -5 -5q-5 0 0 5h-11v-5h-18v5h-12q3 -5 -5 -5q-3 2 -3 5h-13q5 -5 -5 -5q-11 0 -8 5h-71q-6 -14 -8 -25t-2 -19q-17 -5 -29.5 -7
t-22.5 0q0 -6 -1.5 -8.5t-3.5 -4.5h5q5 -8 0 -13h-5q0 -15 -2 -18q9 -3 -51 -10l-3 -20h-5v-18q-16 -2 -27 -2.5t-19 -0.5q0 -2 -5 -3t-5 -7v-31q2 2 3.5 0.5t1.5 -5.5q0 -2 -1.5 -3t-3.5 1v-151l5 -5q0 -2 -2 -2q-1 0 -3 2q0 -4 10 -13q-2 0 -3.5 -4t-6.5 -4v-13
q2 2 3.5 1.5t1.5 -6.5q2 -2 0.5 -3.5t-5.5 -1.5v-33h5v-13h-5v-84h5v-8h5v-10q2 2 7.5 -4.5t7.5 -8.5q8 -2 13.5 -0.5t7.5 5.5q5 0 7 -6.5t8 -6.5q2 -5 2.5 -8t2.5 -5q0 -2 -2 -2q-3 0 0 -3q5 0 6 -3.5t1 -8.5q5 3 13 0q4 -2 7.5 -4t5.5 -2v-2q2 0 5.5 -1.5t9.5 -3.5
q9 -14 5 -21h5v-10q27 -15 46 -15q6 2 9.5 -10t3.5 -26h3q3 0 0 -8l105 -3.5t76 -1.5q0 5 5 5v-5q17 0 29.5 1.5t22.5 3.5q0 5 2 8l3 25q2 0 5.5 6.5t9.5 6.5q5 -2 10 -2q6 0 14.5 3.5t16.5 3.5v26h5q0 7 0.5 10.5t3.5 5t10.5 2t21.5 0.5v2q6 2 11 4t9 2v30q11 4 11 8
q9 2 17 3.5t13 1.5q0 8 16 8q0 15 2 18h3zM544 408h-2q-2 -25 -4 -42.5t-4 -28.5h5v-26h-5v-28h5v-133q-4 2 -9.5 -1.5t-10.5 -8.5q-21 0 -26 2q-4 7 -6.5 2.5t-5 -13.5t-5 -19.5t-6.5 -15.5q-7 4 -10 0v-2q6 -2 -27 -4t-106 -7q0 -2 -3 -2v2q-4 0 -11.5 2t-18.5 4
q-18 3 -34 0q0 12 -5 7q-2 0 -5 -2h-8q-9 8 -9.5 12t-2.5 6h-5v15q2 10 -8 13.5t-18 1.5l-31 3v36q0 14 -2 20q0 48 -5.5 60t-7.5 7q8 0 10 2l3 44q5 5 5 10q0 4 -1.5 7.5t-3.5 5.5v28q2 5 3.5 11t1.5 12q0 5 -1.5 10t-3.5 10v8q2 4 3.5 9.5t1.5 10.5q0 6 -1.5 10.5
l-3.5 10.5v41q2 0 2 13h5v12q5 0 8 3q16 0 25 1t12.5 1.5t4.5 1.5t2 1v31q7 -4 7 7h36v5h23v-5q7 -3 18 0v5q17 2 31.5 2.5t24.5 0.5l44 -3q0 -5 2 -5q4 0 5.5 1.5t-0.5 3.5h34q5 -5 11 -7.5t12 -4.5v-11h2v-5h-2v-12q2 -3 15 -3v-3q14 -2 23.5 -3.5t14.5 -1.5
q0 -5 0.5 -10.5t2.5 -7.5h5v-12h5v-11h-5v-15h5v-10q-2 -2 -3.5 -2.5t-1.5 -2.5t1.5 -4t3.5 -4v-10h-5v-16q4 2 6 1t4 -3v-8z" />
    <glyph glyph-name="p" unicode="p" 
d="M657 145v15q-5 0 -5 3q-4 7 5 7v36q-5 5 -5 8q-3 2 5 2q0 5 -2 5q-1 0 -3 -2q-5 16 0 28h5v33q-5 0 -5 3q-5 8 5 8v74h-5q-5 27 0 53h5v36q-6 0 -6.5 0.5t1.5 2.5t5 2v26h-5v46h-31q-8 4 -15 5.5t-13 -0.5q-4 6 -4.5 16.5t1.5 24.5q-14 2 -24.5 2.5t-16.5 2.5v5
q-26 0 -23 44h-31q-13 0 -22 2v13h-5q-6 6 0 10q2 2 3.5 4t1.5 4h-5q-2 6 -5 6.5t-3 6.5q-80 -4 -118 0q2 -2 1 -3.5t-3 -1.5q-3 2 -3 5h-26v5q-30 -6 -49 -8t-27 -2v-16h-5v-10q2 2 3.5 1t1.5 -3t-2 -2q-1 0 -3 2v-11h-67q-3 11 3 11v25q-3 3 -11 3q-5 0 -10 5h-82v5
q13 -5 -12 -5v-287q2 0 5 -2q0 -2 -2 -2q-1 0 -3 2v-10h2q5 -12 0 -29h-2v-122h2q5 -8 0 -16h-2q2 0 2 -2q4 -7 0 -34h-2v-5h2q4 -8 0 -15h-2v-5h2q4 -8 0 -15h-2v-11h2q5 -8 0 -20h-2l2 -3q5 -15 0 -43h-2l1 -1t2.5 -13t1.5 -40q2 2 2.5 1.5t2.5 -6.5q-3 -3 -5 -3
q0 -12 -3 -15h-2v-13h2q4 -9 0 -20h-2v-10h2q2 -6 2.5 -23t0.5 -44q2 2 2.5 1.5t2.5 -6.5q-2 -2 -2.5 -3.5t-2.5 -1.5v-15q-3 0 10 -8h82q11 8 18 8v22q0 8 2 13h5v57h-5q-3 10 0 18h5q-3 7 -7 7q0 5 7 5v64q-7 0 -7 3q2 2 7 2v31q5 0 5 3q21 11 41 7q0 -2 5.5 -3t5.5 -7
q8 -20 5 -31q14 -4 19.5 -5.5l5.5 -1.5q8 0 11 2l2 -2q3 2 28 2v-2q6 2 11 2h10l2 -2q21 2 37 2h27q16 0 18 -2h38t29 2v26h2q-3 7 2 12t14 8t20 4t20 1q0 14 8 11v30q-3 -2 2.5 0t16 4.5t24.5 5t29 1.5q2 -2 2.5 -4t2.5 -4q11 6 20.5 8t15.5 2q-8 8 5 8zM542 201
q-11 0 -11 -10q-7 3 -7 0q-3 -3 -5 -3q0 3 -3 3q-2 0 -2 -3q-28 0 -31 -5l-3 -31l-3.5 -3.5t-1.5 -3.5q-8 -5 -28 -5v2q-6 2 -17 1.5t-26 -6.5h-23h-59h-16l-1.5 0.5t-3.5 2.5q-10 0 -10 -3q-13 5 -26 0h-5q-5 0 -14 4t-11 4v7h-5q0 28 -8 36q-3 0 -3 3q-8 0 -23 2.5
t-23 2.5v8h-5v75t-2 53h-3v12h3q3 7 0 18h-3v13q5 -5 5 3q0 7 -5 7q-2 0 -2 1q0 2 2 4h3l2 110h5v18q12 12 21 8q11 2 20.5 3.5t15.5 1.5q0 25 5.5 30.5t4.5 7.5h56l5 5v-5q13 -3 26 0q3 5 5 5v-5q20 -3 43 0v5h13v-5q19 -3 39 0q0 5 2 5v-5h36q-2 -2 0 -3.5t8 -1.5v-15h2
q0 -16 6.5 -21l6.5 -5h36q4 -5 5.5 -7.5l1.5 -2.5q0 -8 0.5 -13t2.5 -7h5v-131q0 -2 3 0v-13q-6 0 -3 -5q0 -2 3 -5v-7h-3v-18h3v-34h-3v-12h3v-21h-3v-23h3v-8h-3v-12q5 0 3 -3z" />
    <glyph glyph-name="q" unicode="q" 
d="M654 -121v15h-2q-4 7 0 18h2q0 3 -2 3q-5 7 0 15h2v5q-2 3 -5 3v347q-2 3 -2 26h2v6q0 1 -2 -1q-4 10 0 21h2v156q-2 0 -2 2q-2 2 -1 3.5t3 1.5v36h-2q-5 7 0 15h2v11h-2v66h-6q-3 13 -7 13q-5 5 5 5v11t2 10h6v20q-10 2 -17 2.5t-9 2.5q-38 0 -41 -2q-13 -11 -18 2
l-6 -2t-17 -8q-2 -2 -4 -5t-4 -5q6 -4 10 -6.5t8 -4.5q-3 -10 -7 -10q-14 -2 -21.5 -3.5t-9.5 -1.5v3q-3 -3 -31 -3q-8 5 -15 5q-2 14 -2.5 22t-2.5 14q-11 0 -16 8q-25 0 -25 -3h-133q-14 -2 -25 -3.5t-21 -1.5l-8 -8v-30q-4 0 -11 -1.5t-15.5 -3t-16 -2.5t-11.5 -1l-2 -43
q-10 0 -10 -3q-49 0 -51 3q-15 3 -25 0.5t-17.5 -6t-12 -6.5t-7.5 -1v-59q4 3 8 -3q0 -7 -8 -7v-36h5q4 -26 0 -51h-5v-26h5q5 -3 0 -15h-5v-13h5v-64h-5v-13h5q5 -16 0 -28h-5v-64h5q5 -8 0 -13h-5v-38h5q3 -3 3 -8q11 -10 20 -10h82v-2q8 2 11.5 -7t3.5 -24h3q4 -4 0 -8
q-4 -3 41 -10q0 3 10 -8v-18h5q2 -2 6 -9.5t12 -15.5q21 0 37 1.5t27 3.5v2q11 4 18 0v-2q10 0 16 -1.5t10 -3.5q33 0 46 5v-5q23 8 46 5v2q2 0 5.5 5.5t9.5 5.5l3 18h2v15q26 11 39 8q4 -6 12 -11v-23h5v-51h6q3 -10 0 -20h-6v-33q8 0 8 -6q-2 -2 -8 -2v-18h6q3 -8 0 -15
h-6v-16h6q3 -11 0 -23h-6v-10q5 5 8 -5q-2 -3 -8 -3v-5q33 -16 36 -13v-5q10 0 10 5q3 0 3 -5h13q0 5 5 5q3 0 3 -5q28 5 38 5q0 8 10 8l3 31h2zM531 211q-4 0 -19 -4t-42 -14q0 -5 5 -5v-25q-10 0 -10 -8q-16 0 -27 -1.5t-17 -3.5q-6 10 -17 5q-13 -5 -21 -5v5
q-8 2 -15.5 0.5t-15.5 -5.5q-4 2 -17 3.5t-34 1.5q0 2 -2 1.5t-8 -6.5q-4 2 -15 3.5t-31 1.5q-2 0 -4.5 5t-8.5 3v24q0 10 -2 14h-26q5 5 -8 5q-12 0 -7 -5v5h-18v218q-3 2 -5 2v21h5l2 69q-5 0 2.5 7t15.5 5q0 -2 3 -5q10 10 14 10.5t6 2.5q6 4 11 7.5t7 5.5v18h5q2 8 4 13
t19 5v-3q20 0 34.5 0.5t24.5 2.5q18 0 39 -8q8 0 20 4t18 4q7 0 16.5 -1.5t19.5 -4t19 -4t14 -1.5q0 -25 8 -38q2 0 2 -5q14 0 24.5 -1.5t16.5 -3.5q0 2 5 2q0 -5 3 -5h2v-12h5v-31h-5q-3 -5 0 -13h5v-10q-2 2 -3.5 1.5t-1.5 -4.5q0 -5 1.5 -7t3.5 0v-123h-5q-2 -2 -2 -5
q0 -2 2 -8h5v-100z" />
    <glyph glyph-name="r" unicode="r" 
d="M657 416v28q-8 0 -5 3q0 2 5 2v18h-3q-2 11 -2 28v41q-19 0 -16 13q-5 0 -5 -5q-5 -2 -10.5 -4t-7.5 -4q0 8 -7 8q-5 0 0 5h-16q-3 3 0 15h5v10q-5 2 -7 3t0 3t7 2v8q-10 0 -7 2v-2q-4 -2 -8.5 -1t-9.5 3v-2q-6 2 -15.5 3.5t-20.5 1.5v41q-5 0 -5 5q-17 2 -30 2.5
t-21 2.5q-12 22 -8 36h-2q-4 3 0 10h-36q-13 0 -21 -2q-15 -2 -27 -1t-21 3q1 -1 -3 -5q0 -36 -2 -38q-20 -2 -29 -3.5t-7 -1.5q-2 2 -9 0.5t-17 -3.5q-2 -2 -2 -5v-5l-3 -28q2 0 -0.5 -2t-12.5 -6q-10 0 -15.5 0.5t-9.5 2.5q-11 -8 -18 -8v-41h-51q-6 4 -10 7.5t-6 5.5v53
q-7 -3 -7 6q0 5 7 5v35q-7 15 -7 26q-6 2 -11 2.5t-7 2.5q-2 -2 -12 -2h-24v2q-10 0 -10 -2q-13 0 -13 2h-23q-2 0 -6 -5l-4 -5v-10q2 2 2 1v-6q0 -6 -2 -6v-286h2v-26h-2v-30q2 2 2 -8q0 -3 -2 -3v-25h2v-18h-2v-8q2 0 2 -2v-253q8 8 8 -6q3 4 31 -7v-5h33v5q2 0 9 2.5
t9 2.5v-5q17 0 25 5q-8 8 5 8v20q-5 0 -5 5q-3 5 5 5v54h-5v13h5v59q-8 0 -5 5h5v46h-5v23h5v59h-5v17h5v59q-2 2 -3.5 4t-1.5 4h5v54q10 5 19 8.5t17 1.5q0 -2 16 5q10 19 10 31q39 16 46 13v5q7 0 10 2l3 28q2 0 2 3q10 2 19 3.5t17 1.5v5q14 0 17.5 0.5t-2.5 2.5
q2 4 2.5 6t2.5 4q0 10 0.5 15.5t3 7.5t8.5 3.5t17 4.5q14 3 25 0q2 -2 9.5 -1t21.5 3q11 2 19 1.5t14 -6.5q3 0 3 -13h5v-15h2q3 -3 3 -13q6 -4 11 -6t9 -4h18q0 5 8 5l1.5 -3.5t3.5 -9.5h3q2 -2 2 -18q2 0 5 -5h-5v-46q10 -6 14.5 -10t6.5 -8h35q2 -14 3 -23t3 -15
q13 0 22.5 -1.5t17.5 -3.5q0 13 11 13q0 12 2 15h3z" />
    <glyph glyph-name="s" unicode="s" 
d="M659 112h-5q-3 10 0 17h5v8h-5v154q-8 0 -5 5q-11 2 -19 2h-14q-14 -7 -23 -7q-3 2 -3 5q-7 0 -7 -5v5h-29t-20 2v10q-3 0 -3 3q-3 8 3 8v15h-3q-3 0 0 8q-11 2 -19 2.5t-14 2.5q-8 3 -13 -5q-2 2 -2 5l-3 -3q-21 0 -37.5 1.5t-26.5 3.5q-2 10 -3.5 12.5t-1.5 0.5h-2
q-3 3 -3 8t3 5h2v18q-5 0 -5 5h-18v-5q-32 6 -57.5 8t-42.5 2v33q-2 0 -7.5 4t-7.5 4q-32 2 -57.5 2.5t-42.5 2.5v5h-10l3 120q6 0 43 8q14 2 24 3.5t20 -0.5q9 -2 15.5 -4t12.5 -4q7 11 7 3q43 -2 75 -3.5t53 0.5q-3 5 5 5q3 -2 3 -5q33 2 56.5 2.5t40.5 0.5q0 10 10 -6
v-10h3q2 -10 2.5 -27t0.5 -42h2q1 0 0.5 -1t0 -3.5t3 -5t9.5 -5.5h74q2 6 5.5 8.5t7.5 4.5h10q0 2 1.5 3.5l3.5 3.5v90q-8 2 -11.5 3t-3.5 -1q-4 2 -6 1t-4 -3l-3 2q-11 0 -20.5 0.5t-15.5 2.5v41q-2 0 -2 5q-20 2 -33 2.5t-21 2.5q-2 4 -2.5 13t-0.5 23q-12 0 -7 5
q-16 2 -27 2.5t-17 2.5q-20 0 -20 -2q-13 0 -13 2h-49q0 -1 -7 -5v5q-10 0 -8 -2h-30t-18 2q-10 2 -21 2t-20 -4q-11 -11 -16 2h-30t-21 -2v2q-12 0 -15 -5v5q-21 0 -21 -2q-13 0 -13 2q-7 -3 -7 -10v-23h2q6 -4 4.5 -7.5t-6.5 -5.5q-22 -7 -44 -2h-12l-8 -8v-38
q-17 -5 -30.5 -6.5t-23.5 -1.5q2 -2 0.5 -2.5t-5.5 -2.5v-11h3q2 -2 2 -7t-2 -5h-3v-23q3 0 5 -3q0 -3 -5 0v-23h3q2 -2 2 -6v-7q0 -10 -2 -15h-3v-84h3q2 -3 2 -13q3 2 3 0l33 -3v-5h23q-5 8 8 8v-8q19 0 28.5 -1.5t13.5 -3t4 -3.5v-2h5v-21h2q3 -2 3 -12q14 0 22 -1.5
t14 -3.5q-3 2 2 2q3 0 3 -2q10 0 10 2q17 -2 32 -3.5t24 -1.5q2 -6 3.5 -8l1.5 -2h6v-23h5q3 0 0 -8q9 -6 18 -8t15 0q13 -3 13 3q15 3 15 -3q7 -3 18 0q6 2 11 2.5t7 0.5v2q11 4 20 0v-2q23 0 26 -3q13 0 13 3q3 3 13 -3q3 -3 0 -10h5q2 -2 2 -7v-13q3 2 3 0q2 -6 6.5 -10
t8.5 -8h21v2q10 4 17 0v-5h3q3 -2 3 -13h2q2 -2 2.5 -5t0.5 -5t-0.5 -5t-2.5 -5h-2v-15h2q3 -3 3 -8q0 -3 -3 -5h-2v-8h2q2 -6 2.5 -11.5t0.5 -11.5t-0.5 -10.5t-2.5 -9.5h-2q0 -11 -3 -13q-6 0 -11 -1.5t-7 -3.5v-3q-7 -3 -18 0v3h-56q3 -5 -3 -5q-12 0 -7 5h-31v-3
q-11 -3 -20 0v3h-34v-3q-75 6 -118.5 8t-57.5 2q-4 4 0 13h-5q-5 12 0 23h5q-3 0 -5 3q-4 37 0 79h5q-4 2 -8.5 9.5t-14.5 13.5h-59q-24 -8 -36 -8q2 -17 3.5 -28.5t-0.5 -17.5h-3v-18q2 2 2.5 1.5t0.5 -6.5q2 -2 -3 -2v-72q16 -4 27.5 -7.5t21.5 -5.5q2 0 2 -10h3v-20h5
q3 -3 3 -8q-7 -3 10 -10h36q0 2 10 -8q0 -13 5 -13q3 -3 -5 0l2.5 -5t2.5 -15q10 -2 16 -3.5t12 -1.5q-2 2 0 3.5t8 1.5q5 -4 9 -6t6 -4h21v5q17 3 35 0v-5h31v5q20 3 44 0v-5h28v5q10 3 15 0v-5h61v5h23q10 0 16 2q2 4 3.5 2.5t1.5 -9.5h15v5q8 0 10 7.5t8 12.5
q0 17 6.5 21.5t37.5 4.5q2 -4 3.5 -2.5t1.5 9.5q4 0 6 2l4 4v23h3q-2 2 0 5t7 5q2 2 10 3.5t23 1.5q0 10 13 10q0 6 1.5 10t3.5 6z" />
    <glyph glyph-name="t" unicode="t" 
d="M657 91v13h-3q-3 7 0 18h3v10q-5 -5 -5 5t5 5v16q-10 0 -5 5h5v12q-6 0 -6.5 0.5t1.5 2.5q-6 0 -19.5 1.5t-34.5 3.5q-33 4 -51 0v-20q5 0 2 -3q0 -2 -2 -2q0 -16 -3 -16q-32 -8 -46 -5v-2q-8 -2 -11.5 -4l-3.5 -2q-2 -13 -2.5 -21.5t-0.5 -13.5q-14 -4 -23 -6.5
t-15 -4.5q-23 2 -40.5 3.5t-28.5 -0.5q-8 8 -13 8v10h-8v350q-5 0 -5 3q0 5 5 5l3 87h5v13q17 2 30.5 3.5t23.5 3.5q0 5 5 5q2 0 3 -1.5t-1 -3.5h6q5 0 5 -5q40 0 64 7.5t38 5.5v41h-5v49q-8 -5 -8 2q-17 2 -29 5t-22 5q-4 0 -8 -7q-4 2 -9.5 3.5t-15.5 1.5h-3h-14
q-5 0 -9 2q-10 0 -10 -2q-17 -2 -29 -1t-20 3v110h-5q0 8 1.5 11.5t3.5 1.5v31h-5v89h-12v5q-9 0 -6 -5q-23 -3 -43 0v5h-18q-8 -4 -15 -6t-13 -4q0 -15 -10 -15v-31h5q3 -11 0 -30h-5v-72q3 3 7 -3q0 -2 -7 -2v-77q-11 4 -11 -8q-2 -2 -33 -2v2l-63 -3.5t-47 -1.5
q-2 -2 -2.5 -3.5t-2.5 -3.5h-15l-3 -49h-2q2 -15 3.5 -24.5t1.5 -11.5q10 -6 17.5 -11t12.5 -7q7 6 36 3v-3q6 0 15.5 1.5t23.5 3.5v5q2 0 7 0.5t10 2.5l16 -8q11 -2 19 -3.5t14 -3.5v-5h3v-77q4 4 7 -5q0 -9 -7 -5v-26q3 5 7 0v-176h3q2 -6 2 -11v-10v-8t-2 -10h-3v-87h3
q2 -2 2 -7q0 -3 -2 -6h-3v-30h3q2 -2 2 -5v-5v-6q0 -3 -2 -5h-3v-38l8 -8l26 -2v-3q21 0 22 -5.5t1 -14.5h2v-23q13 0 10 -3q37 -2 92.5 -3.5t130.5 -1.5q0 8 10 8v25h5q-3 4 3 13q17 2 26.5 3.5t11.5 1.5v3q3 2 10 2q0 10 3 13h3v20q2 2 3.5 2.5l1.5 0.5q9 6 18 9t17 1v3
q2 2 5 2h6q0 13 5 8z" />
    <glyph glyph-name="u" unicode="u" 
d="M658 -16v212q-3 3 -3 36h3v10q-5 -5 -5 5q0 3 5 3q-3 0 -3 2q-3 12 0 23h3v49h-3q-2 6 -2 8q0 3 2 5h3v10h-3q-3 7 0 15h3v36h-3q-3 7 0 15h3l-3.5 1.5t-1.5 3.5q0 8 5 8v41h-3q-2 21 -2 52v73h-3q-3 9 0 16h3v33h-3q-3 7 0 15h3v11q-5 0 -5 2h-34q3 -2 -7 -2
q0 -2 -1.5 0t-3.5 7q-10 0 -25.5 -1.5t-36.5 -3.5v-28h-5q0 -5 5 -10v-82h-5v-26h5v-79q4 7 8 -3q0 -5 -8 -5v-7q3 2 8 -3q0 -2 -8 -2v-231q-5 0 -5 -5q-8 0 -24.5 -3.5t-26.5 -3.5l-3 -23h-2v-16q-5 0 -13 -1t-16.5 -1.5t-16 -1.5t-11.5 -1q0 -10 -2 -13h-3v-23t-2 -15
q-31 0 -33 -3q-48 5 -84.5 6.5t-59.5 1.5q-7 0 -7 28h-3q-2 4 -2 7v6q-13 0 -16 3v2h-31q0 8 -7 8q-2 10 -2.5 36t-0.5 71q-5 0 -5 5q2 2 2.5 3.5t2.5 1.5v118h-5q-3 11 0 23h5v92h-5q-3 11 0 18h5v10h-5q-3 19 0 39h5v5h-5q-3 11 0 23h5v25h-5q-3 10 0 13h5q-2 4 -3.5 13.5
t-1.5 25.5h-15v2q-12 4 -21 5.5t-15 -0.5v-2q-14 -5 -18 2q-13 0 -13 -2q-12 0 -12 2q-15 0 -18 -5v-156q2 2 3.5 1.5t1.5 -6.5q0 -3 -5 -3v-48q5 5 5 -3q3 -3 -5 0v-36q2 5 3.5 4.5t1.5 -6.5q0 -5 -5 -5q-5 -9 2 -21q8 -11 0 -23h-2v-30h2q2 -2 2 -5q0 -2 -2 -8h-2v-67h2
q4 -9 8 -12q0 -3 -5 -3q3 -5 5 -5q0 -3 -5 -3q0 -12 -3 -15h-2q-2 -2 1.5 -3.5t3.5 -6.5q0 -3 -5 -3v-43q5 0 5 -3q-3 -2 -5 -2v-21q-2 0 1 -1.5t9 -6.5q38 0 46 -5q0 -5 3.5 -18t1.5 -23q2 2 4 1.5t4 -6.5q13 0 18 -5v5q9 -2 17 -3.5t13 -3.5q3 -3 3 -13h2v-23q5 3 5 -3
q13 0 16 -2v-3h25q0 3 11 -8v-17h5q2 -3 2 -13q2 5 2.5 4t0.5 -9h36q43 -12 69 -8v-5h7v5h36q13 8 23 8q4 12 5 18.5t2 9.5t2.5 4t6.5 3q13 2 24 4t19 4q0 10 3 13h5v8q-8 -5 -8 5q10 14 10.5 16t2.5 4q38 0 51 -5q4 -11 5.5 -19.5t-0.5 -13.5q3 6 8 -5q0 -6 -8 -3v-43
q3 2 8 -3q14 -2 38 -3.5t56 -1.5q0 8 16 8z" />
    <glyph glyph-name="v" unicode="v" 
d="M652 511v191q-5 0 -5 6h-46q2 -2 1.5 -3t-4.5 -3q-12 0 -8 6h-41q2 -2 2 -3t-4 -3q-2 2 -3.5 3t0.5 3q-5 2 -4.5 -2t-5.5 -4v-7q6 3 10 -3q4 -11 0 -20q-5 2 -10 -3v-13h5v-12h-5q2 -2 2.5 -4t2.5 -4q0 -3 -5 -3v-112q-5 0 -5 -5q-13 -5 -46 -5q0 -3 -5 -3
q-2 -8 -2.5 -13.5t-2.5 -9.5h5v-56h-5v-28h5v-80h-5q0 -4 -1.5 -6t-3.5 -4q-12 -4 -16 0v5q-10 0 -5 -5q-14 0 -23.5 -6.5t-7.5 -8.5l-2 -126h-3v-10q-13 -7 -33 -2v2q-6 2 -22.5 0.5t-41.5 -5.5q-4 -2 -8 -0.5t-10 3.5v35h5v8h-5q2 -2 3.5 0.5t1.5 12.5h-5v89q-8 0 -5 3
h-23q0 -3 -5 -3q-3 0 -3 3q-10 0 -15 2v8q-4 0 -6 1.5t-4 3.5v164h-5v13h5q0 5 -5 8t-5 5q-16 2 -27.5 2.5t-19.5 2.5v7h-5q-3 18 0 36h5q-2 3 -5 3v71h-5v28h5v36q-12 0 -15 3v8h-49v2q-17 2 -28.5 1t-19.5 -3l-3 -52h-2v-20h2q5 -16 0 -31h-2v-13h2q5 -18 0 -38h-2
q0 -6 2.5 -21t2.5 -25q15 -2 33 -6t18 -17h5v-46h3q3 -12 0 -31h-3v-15h3q3 -11 0 -18h-3v-33h3q3 -8 0 -13h-3q0 -8 5 -8q-2 -2 -5 -2v-8h3q2 -6 3.5 -8.5t3.5 -4.5q15 0 24 -1.5t14 -4t7.5 -4.5t5.5 -3v-51h6q2 -9 2 -26v-40q5 -8 3 -10q14 -10 26 -14.5t20 -6.5
q8 -20 5 -31h5q4 0 0 -7q6 0 9 -1.5t1 -3.5h41q6 -10 8 -19t0 -15q2 0 3 -1.5t-1 -3.5q0 -2 -2 -2v-18h2v-16h-2v-15h2q4 0 0 -8q31 -2 54.5 -3.5t40.5 -1.5v13h10v23h3q0 3 -3 0q-3 7 0 15h3q0 3 -3 3q-3 11 0 20h3l2 21q8 8 46 8q-3 3 8 12l3 26q1 0 4.5 2t8.5 4.5
t9.5 4.5t7.5 2v2q0 4 11 8v3q4 4 7.5 6t7.5 4v18h5v82h-5v12q2 0 2 5q0 6 8 6q31 4 42.5 5.5t3.5 1.5q0 5 5 5v39h5v41q-8 0 -5 5h5v7h-5v59h5q0 16 0.5 25.5t2.5 13.5q28 8 38 5v5q3 2 11 2q0 2 1.5 3t3.5 3z" />
    <glyph glyph-name="w" unicode="w" 
d="M659 347v8h-2q-4 7 0 17h2v11q-2 2 -3.5 2.5t-1.5 2.5q0 5 5 5v15q-2 0 -5 3v207h-2q-5 5 0 13h2v41q-10 0 -10 10q5 8 8 5v21h-11v-3q-11 -5 -28 0v3h-43v-3q-4 -2 -9.5 -2.5t-13.5 -0.5v-12h-3l-2 -82h-5v-28h5v-64h-5v-8h5q2 -4 2 -8v-5h3v-23h-3l-2 -31h-5q2 0 5 -2
q3 -13 0 -26h-5v-7h5q2 -2 2 -8v-13q3 3 3 -5q0 -5 -3 -2v-16h3v-30h-3q0 -13 -2 -16h-8v-5q-15 -8 -15 -3h-26q0 2 -3.5 1.5t-9.5 -6.5v-120q5 0 5 -2q0 -3 -5 -3v-8h5q2 -2 1.5 -5t-6.5 -7l-1.5 -0.5t-5.5 -2.5q0 3 -3 5q-15 0 -15 -2q-19 7 -36 2v36h-5q-4 45 0 95h5
q-3 0 -5 2v90q-5 3 -5 5q-2 2 -0.5 3.5t5.5 1.5v66h-108l-2 -1.5t-8 -5.5v-28h3q3 -24 0 -46h-3v-16q8 0 5 -2q0 -3 -5 -3v-64h3q3 -11 0 -20h-3v-34h3q3 -10 0 -17h-3v-8q2 4 2.5 2t2.5 -7q5 -5 -5 -5v-18q2 4 2.5 3.5t2.5 -6.5q2 -2 0.5 -3.5t-5.5 -1.5l-2 -18
q-18 0 -18 -2q-4 2 -16 2h-28v79h-5q-3 9 0 16h5v18h-5q-3 7 0 18h5v5h-5v10q-8 0 -5 2h-36l-3.5 1t-1.5 7q-8 -3 -8 3q-2 14 -2 36v53q-4 0 -5.5 1.5t0.5 3.5h5q-11 7 -3 34h3v30q-5 0 -5 5q-3 3 5 3v133h-3q-2 3 -2 13t2 13h3v7h-3q-2 4 -2 15v31h-5v11h-30q-12 0 -22 2
q3 -2 -2 -2q-3 0 -3 2q-5 -2 -15 -2h-23v-3q-3 -3 -13 -3q5 -12 5 -35q-7 -16 -5 -26h-5v-18h5q5 -16 0 -28h-5v-15h5q4 -11 0 -21h-5q0 -6 2.5 -5t2.5 -5q0 -3 -5 -3q4 -9 5.5 -19t-0.5 -24h-5q0 -5 5 -5q5 -35 0 -77h-5q0 -3 5 -3v-102h5v-13q14 -5 25.5 -7.5t20.5 -4.5
q2 -2 2.5 -5.5t0.5 -5.5h2v-7h6q2 -17 2 -46v-69q4 -2 7.5 -5t7.5 -8q8 -1 16.5 -2t15 -3.5t9.5 -7t0 -13.5h3v-110h5q2 -10 8.5 -11t12.5 -7q0 6 17 3q0 -2 6 -8q21 2 38 4t28 6q-3 3 3 3v20h-3q2 16 3.5 27t1.5 19h3q0 8 -5 8q0 2 0.5 6t3.5 8t9 6.5t17 0.5q4 -4 8 0
q5 3 5 -3q17 2 27.5 3.5t16.5 -0.5q5 -4 11 -5.5t12 0.5q0 -2 7.5 -4t7.5 -4q0 -5 1 -15t2.5 -22l3 -24t1.5 -21q2 4 2 3v-6q20 0 23 -5q10 2 16.5 2.5t11.5 0.5q12 3 16 -3q9 2 17 2.5t13 2.5v3q11 0 11 5v23h5v38h-5q-5 13 0 26h5q-3 0 -5 3q-5 16 0 35h5q-6 6 3 11t38 5
q0 10 18 10v130q2 0 2 6q28 11 38 7v5h11q0 5 2 8q0 8 -2 8q0 2 2 2l3 26h2z" />
    <glyph glyph-name="x" unicode="x" 
d="M657 -1v97l-10 10h-16v3q-22 5 -30 5v8h-3q-2 14 -2.5 31.5t-0.5 42.5h-5v8q-16 0 -25.5 1.5t-15 3.5t-8.5 4t-7 3v87q-8 0 -5 3q-14 2 -24.5 2.5t-16.5 2.5v5q-5 3 -8 3.5t-4.5 2.5t-2 9t-0.5 24q-8 0 -5 2q-16 2 -27.5 4t-19.5 6v21q6 2 10 2.5t6 2.5v2q10 2 17.5 4
t13.5 2v12h5q2 10 3.5 16t3.5 10q10 6 19 8t15 0v5q5 2 10.5 3.5t9.5 1.5v79q-2 2 1.5 4t8.5 6q16 2 27 2.5t19 0.5v18h5v13h-5v20h5l3 44l3 2h17t13 -2q19 10 23 10v69h-5q-3 7 0 15h5v8h-5q-2 2 -2 13q-20 0 -31 -0.5t-15 -2.5q-11 0 -11 3h-43q-4 -11 -8 -11v-25h-5v-5h5
q4 -24 0 -46h-5q-11 -11 -3 -11q-11 -2 -17 -3.5t-8 -1.5v-2q-26 -4 -26 -8q-2 -6 -3 -11t1 -7h-5v-18h5q3 -18 0 -38h-5v-10q-17 -2 -29.5 -2.5t-22.5 -0.5q2 -2 0.5 -3.5t-5.5 -1.5v-72q8 0 5 -2q0 -3 -5 -3q-2 -5 -4 -10.5t-6 -7.5q-53 -3 -110 0q0 8 -2 6v12h-6
q-2 12 -2 29v43q-13 0 -15 10h-26q-6 6 -10 8.5t-8 4.5q-2 6 -2 27v57q-8 0 -6 3q-17 2 -28.5 2.5t-19.5 2.5q-6 0 -3 8h-5v87q-17 0 -28.5 -0.5t-17.5 -2.5v3q-21 -2 -38 -3.5t-28 -1.5q0 -29 5 -46q2 4 3.5 3.5t1.5 -6.5q3 -8 -5 -8q0 -10 -3 -13h-2v-28q-2 0 1 -1.5
t9 -5.5q12 -1 21 0t14.5 1.5t8 -1t2.5 -8.5t1 -18.5t2.5 -24.5t2 -25t-0.5 -19q3 3 15 -5v-3h34v-5q12 5 12 -7q4 -12 0 -31h-2v-21h2v-23q2 2 3.5 1t1.5 -3q12 -2 20 -2.5t14 -2.5v-5h15v-8h3v-21h5q2 -2 2 -7h3q2 -4 0 -10h23q-3 -3 0 -3q2 -3 2 -5q8 0 13.5 -0.5
t9.5 -2.5v-5h6q8 -17 0 -20q-20 -6 -33.5 -8t-23.5 0v-21q0 -9 -2 -15h-5q0 -7 -3 -10q-14 -4 -24.5 -5.5t-16.5 0.5q0 -6 -5.5 -4.5t-7.5 -0.5v-87l-22.5 -5t-30.5 -5q0 -3 -8 -3v-8h5q-4 -21 -5.5 -41.5t0.5 -37.5q-15 -2 -26.5 -3.5t-19.5 -1.5q3 -3 -5 -3v-12h-5
q-4 -4 0 -8q5 0 5 -5q0 -4 -1.5 -5.5t-3.5 0.5v-77q5 -2 9 -4t6 -4q10 2 19.5 2.5t18.5 0.5q10 0 19.5 -0.5t19.5 -2.5q-3 3 0 5q2 2 8.5 7.5t11.5 5.5l3 44h2v33q18 11 31 8v2q10 2 16 5l10 5v75q15 7 15 5v5q14 4 24.5 6t16.5 4q0 12 8 15q-8 -3 -8 6q0 5 8 5v51h2
q0 10 3 13q48 2 75 2t37 -2q4 0 0 -11h3q2 -14 2 -33v-46q2 0 6.5 -4l4.5 -4h20h13q6 0 8 -2q-5 -5 5 -5q7 -18 7 -31q3 3 3 -8q0 -2 -3 -2v-33q5 -6 3 -8q6 3 10 -10q15 0 15 -3q11 -3 11 3q2 2 15 -3q2 -17 3.5 -26.5l1.5 -9.5h5q5 -21 0 -41h-5v-5h5q3 -2 3 -13h5
q5 0 5 -5h74q14 9 23 5q-2 3 3 3z" />
    <glyph glyph-name="y" unicode="y" 
d="M653 600v31q-7 0 -5 2q0 2 1.5 3.5t3.5 -0.5q0 36 -5 54h-25q-10 0 -16 2v3h-36v-3q-8 -3 -15 0v3q-6 0 -6 -3q0 -2 -9 -2q0 -11 -3 -8v-33h3q2 -6 2 -11v-10v-10t-2 -10h-3q0 -10 -2 -13h-46q-11 0 -11 -13v-23h-5q-2 -2 -0.5 -3.5t5.5 -1.5q5 -35 0 -77h-5v-25h-20v-5
h-21q-7 -8 -15 -8v-54h2q-2 -23 -3 -44t1 -38q-10 0 -5 -5q-14 0 -22 -1.5t-14 -3.5v3q-11 0 -19 -0.5t-12 -2.5q-17 0 -28.5 1.5t-17.5 3.5q0 3 -1 4.5t-2.5 3.5t-2.5 5t-1 10q-6 6 -6 8q0 6 6 0v18h-6v94q-15 2 -26.5 3t-19.5 3v5q-10 0 -12 2q-5 17 0 28h2v8h-2
q-2 8 -2.5 34t-0.5 71q-15 0 -26.5 -0.5t-19.5 -2.5q0 5 -13 8q-2 10 -2 23v33q-8 0 -5 3q0 2 1.5 3t3.5 -1v29l-46 2v3h-11v-3q-8 -3 -15 0v3q-6 0 -18 -3.5t-18 -1.5q0 -13 -5 -8q-2 -3 0 -3q5 -3 5 -7q-2 -3 -5 -3v-56q5 8 5 -3q-2 -2 -2.5 -3.5t-2.5 -1.5v-7q5 3 5 -6
q-10 -2 -2.5 -3.5t28.5 -1.5v-2q17 0 19.5 -2.5t0.5 -8.5h5v-25h6v-79h5v-23l3.5 -2.5t11.5 -8.5l33 -2q0 -14 0.5 -22t2.5 -14h5q3 -20 0 -38h-5h5q2 -10 2 -37v-71h3q4 -3 0 -10q5 5 5 -3q-8 -2 -1.5 -3.5t27.5 -1.5v-5q8 6 13 -1t5 -9h2v-18h5q0 -6 4 -6.5t4 -8.5
q27 3 43 -5q-1 -7 1.5 -17t5.5 -20.5t5 -20.5t1 -17q-29 0 -15 -12h-49v-77q4 3 8 -3q0 -7 -8 -7v-21q4 7 8 -2q-3 -3 -8 -3v-25h-5q0 -8 -2 -11q-16 0 -35 -1.5t-45 -3.5q-31 -2 -49.5 -2.5t-26.5 -2.5v3q-7 3 -16 -3v-41q5 5 5 -5q-2 -3 -5 -3v-46q2 0 5.5 -6t5.5 -6
q25 -2 42.5 -2.5t28.5 -0.5v-5h10v5q16 4 21 0h56q6 2 10 2.5t8 0.5q2 15 12 18.5t31 -6.5v26h6l2 28h5v13q-7 -4 -7 2t7 6v17q14 2 25 2.5t19 0.5q0 10 10 10l3 115h2q0 6 0.5 10t2.5 8q9 0 17 0.5t13 2.5v2q2 2 5.5 2.5t5.5 0.5q11 13 15 13v71q2 0 2 3q16 6 27.5 9.5
t21.5 3.5q0 4 1.5 6t3.5 4v23h5q-2 2 -1 4t6 4q0 2 11 2v5q14 0 26.5 5.5t14.5 7.5v69h-6q-3 7 0 18h6l2 79h3v18h10v3q5 0 18 5q10 3 18 0q0 8 10 8v12h-5q-5 12 0 23h5q-3 3 -5 3q-5 8 0 13h5v10q-6 0 -6.5 0.5t1.5 2.5q0 3 5 0l-5 5q-5 3 0 12h5v46q18 11 20 11v2h21
q29 13 15 13zM633 641h-3v5h3v-5z" />
    <glyph glyph-name="z" unicode="z" 
d="M659 60q0 3 -5 3q-2 0 0 2q0 2 1.5 3.5t3.5 -0.5q-2 3 -5 3v18q-5 2 -9 3.5l-4 1.5h-33q2 -2 0.5 -2.5t-5.5 -2.5q-2 2 -2 5q-26 0 -29 -3q-10 0 -12 3q-20 0 -31.5 -0.5t-17.5 -2.5q-29 -2 -51.5 -1.5t-38.5 4.5v2q-5 0 -13 -1.5t-20 -3.5q-20 -3 -33 0v3q-10 0 -15 -5
v5q-11 0 -8 -3q-20 4 -54 0q-17 -2 -30 -1.5t-21 4.5v2h-33q-13 8 -23 8q0 15 2 18q14 5 25 7.5t16 2.5v3q3 2 13 2q0 5 3 8l2 25h5q-3 4 3 13q10 4 19.5 4.5t21.5 -1.5q-4 7 7 7v29q32 3 26 7v5q2 0 7.5 2.5t7.5 2.5q3 -2 3 -5h13q0 13 5 8v31h5q-4 3 5 12q12 4 15 0v-5
q2 2 4 2.5t2 2.5h15q0 5 15 8v15q-2 2 -3.5 4t-1.5 4t1.5 2.5t3.5 2.5l3 46h2v21h46q0 14 11 10l2 31q3 -3 5 0q0 5 3 5q24 8 38 5q0 8 10 8v23h3v7t3 5t11 2.5t24 0.5v5q13 5 18 5q8 21 8 33q6 6 36 6q0 7 15 7v18h5q-3 8 -5 8q0 5 5 0v38h-5q-3 15 0 31h5q0 36 -5 54
q-6 2 -9 2.5t-1 2.5h-26q5 -5 -5 -5v5h-10v-3q-21 -3 -41 0v3q-15 2 -27 2h-16q-2 2 -11 1t-23 -3v-3q-7 -3 -18 0v3q-44 0 -72.5 -0.5t-39.5 -2.5v3h-51v2q-3 -2 -41 -2q2 -2 1 -2.5t-6 -2.5q-5 0 0 5h-41v-3q-17 -2 -29 -2.5t-20 -2.5q0 -3 -15 5v3h-49v-3q-12 -3 -28 0v3
h-8v-3q-2 -2 -10 -2v-26h-5v-64h5v-13h31v-2h20l-4 2h7q10 0 8 -2h48q3 2 8 2v-2h133v2h15v-2h136q-3 2 2 2q3 0 3 -2h28v2h28v-2l3.5 -2.5t11.5 -8.5v-7q6 4 6 -5h-6q0 -8 -5 -8q-32 -8 -46 -8q-11 -29 -7 -43q-5 3 -5 -5q-14 -4 -21.5 -6l-7.5 -2l-2 3q-10 0 -13 -3v-5
q13 -5 -10 -5l-3 -28q-1 1 -0.5 -0.5t-1 -3t-8 -3t-20.5 -1.5q-3 3 -23 3q0 -15 -8 -18q4 -2 6 -2.5t2 -2.5q-3 -3 -8 -3v-20q6 -2 1.5 -4t-19.5 -2v-2q-3 -3 -13 -3t-13 3v2h-7q2 -2 1 -2.5t-6 -2.5q-3 -2 5 -2v-13h-5v-15h5v-26h-5v-38q-20 -2 -33.5 -3.5t-23.5 -1.5
q0 -14 -5 -11l-2 -28q-4 -2 -9.5 -3.5t-13.5 -1.5v-5l-17.5 -3.5t-13.5 0.5l-3 -30q0 -2 -1 -5t-6 -3q-26 -4 -35.5 -6t-5.5 -4v-5h-10l-3 -28h-3v-11q6 0 6 -2q-2 -2 -3 -3.5t-3 0.5q-17 -2 -30 -0.5t-21 3.5q0 -5 -5 -5v-154q2 4 2.5 3.5t2.5 -5.5q89 -6 155 -8.5
t111 -2.5q-4 6 0 6q5 0 5 2q59 5 72 -2q4 2 6 2.5t4 2.5q2 -2 2.5 -3.5l0.5 -1.5q60 2 103 2h73q18 0 18 -2q18 0 31 5v2q4 0 6 1.5t4 3.5q2 23 3.5 40.5t1.5 28.5h5z" />
    <glyph glyph-name="braceleft" unicode="{" 
d="M537 -165v16h-6q-3 25 0 51h6h-6q-3 7 0 15h6v13h-7t1 2q-25 2 -39 4t-19 2q0 5 -3 5q-3 10 0 20h3v13h-3q-3 0 0 8h-41q-6 4 -10 7t-8 5v256q-2 2 -3.5 4t-1.5 4t5 2v29h-2q-2 2 -2.5 5t-0.5 5t0.5 5t2.5 5h2v5h-2q-2 10 -2.5 36.5t-0.5 71.5q-6 0 -22 3.5t-24 1.5v5
q-10 0 -13 2q-4 5 0 18h5v34h-5q-4 3 5 12q4 11 34 11v2q17 5 20 5q0 3 -2 3q-5 7 0 15h2l3 307q2 3 2 5q27 6 40 9.5t11 3.5q12 28 8 43h3q14 2 23 5.5t15 7.5q2 0 6 5t9 3q-2 0 -5 2v16h5v56h-5q-3 4 0 10q-21 0 -28 0.5t3 2.5v5q-5 0 -5 -5q-20 -5 -44 0v5q-15 2 -24 -5
t-14 -15l-3 -26q-17 -2 -30 -3.5t-18 -1.5q0 -2 -2 -2.5t-4 -2.5v-34q-21 -10 -56 -10q3 -2 -8 -2v-77h-2v-15q2 0 2 -3v-210h6q-9 -42 -6 -82q-5 -2 -16 -2h-24v-3q-3 -2 -8 -2t-8 2v3h-46v-3q0 -2 -15 -2v-97q12 -10 23 -13h54q0 5 5 5q2 -3 2 -5q12 0 19 -0.5t10 -4.5
t3.5 -12.5t0.5 -23.5h6q3 -27 0 -54h-6v-18q5 5 8 -7h-8v-6h6q3 -9 0 -20h-6q0 -3 6 -3q3 -10 0 -17h-6q3 -3 6 -3v-67h-6h2t4 -2q3 -11 0 -36h-6q5 5 8 -5v-161q3 2 5 -8q-2 -2 -2.5 -3.5t-2.5 -1.5v-20h5v-8q2 2 5 0t5 -10h16q-7 7 2 7q3 -2 3 -7q4 4 9.5 2t10.5 -7v-21h3
q3 -2 3 -13q2 3 10 -5q11 -2 20 -2h16v-5q5 2 9 1t6 -7q0 -12 -5 -12h5v-16q6 -2 13 -3.5t12 -1.5v-2h77v2q13 5 16 5z" />
    <glyph glyph-name="bar" unicode="|" 
d="M415 554v10q-6 0 -6.5 1.5t1.5 3.5h5v26h-5q-4 7 0 18h5v8h-5v56h5v15h-5q-5 13 0 26h5l-5 5q-6 4 0 13h5q0 2 -1.5 2.5t-3.5 2.5q-3 0 0 2q0 5 5 5v13h-5v13q-8 0 -8 3q3 2 8 2v15q-4 -2 -6 -1t-2 7q4 3 8 0v140q-11 0 -8 3q4 3 8 0v10q-8 -5 -8 5q0 5 8 5v16
q-13 0 -8 5h8q0 4 -2 4q-1 0 -3 -2q-2 4 -2.5 9.5t-0.5 13.5q-10 4 -10 3q-27 0 -47.5 -0.5t-34.5 -2.5v3q-13 0 -18 -8v-33q3 0 3 -3q0 -2 -3 -2v-77q2 2 2.5 1.5t0.5 -6.5q3 -5 -3 -5q-3 -3 3 -3q3 -7 0 -18h-3v-7h3q3 -8 0 -13h-3v-13h3q3 -7 0 -18h-3v-7h3q3 -16 0 -31
h-3v-21q2 2 2.5 1.5t0.5 -6.5q2 -2 1.5 -3.5t-4.5 -1.5v-36q2 2 2.5 1.5t0.5 -6.5q0 -5 -3 -5v-115h3q0 -8 -0.5 -13.5t-2.5 -9.5q3 3 3 -5q3 -5 -3 -5v-16q6 -5 11 -10t9 -7q12 0 19.5 -2t11.5 -4q4 2 16 4t33 2l18 17v26h5zM417 -154v5h-2v11q0 5 2 7h-2q-5 18 0 38h2
q0 8 -2 5q-5 20 0 38h2q0 6 -2 6q-5 7 0 15h2q0 -3 -2 0v330h-5v20h-11q2 -2 0.5 -3.5t-5.5 -1.5q-2 3 -2 5l-26 3v2q-23 -2 -40.5 -2.5t-30.5 -2.5v-105h5q3 -20 0 -41h-5v-15h5q3 -21 0 -41h-5v-10h5q3 -8 0 -15h-5v-36h5q3 -16 0 -28h-5v-16q7 4 7 -5h-7v-51h5
q3 -8 0 -15h-5v-77h5q3 -8 0 -15h-5v-5h5q2 -2 2 -5v-6q16 -11 26 -15q13 5 13 3q12 0 12 -3q-5 0 9.5 2t47.5 6q-2 2 -0.5 3.5t5.5 1.5v13h2z" />
    <glyph glyph-name="braceright" unicode="}" 
d="M537 421v44q-8 -4 -8 7q3 7 8 3v15q-8 -3 -8 8h8v5q-6 2 -8 2.5t0 2.5q-3 0 -3 -3q-35 0 -59.5 2t-39.5 4v2q-2 0 -6 5t-10 5v251h-5v13h5v71h-5v29h5q-8 10 -15 15q-14 4 -25 6t-21 4v41l-46 3q0 4 -2.5 2t-5.5 -1t-5.5 8.5t-2.5 31.5q-7 0 -5 2q-36 -2 -63 -2h-44v-31
h-5v-16q2 2 3.5 0t1.5 -7h-5v-13h5l-1.5 -3.5t-3.5 -9.5h5v-13q10 -4 15.5 -6t10.5 -4q-5 5 5 5q0 -4 3 -4t7 -1.5t7 -8.5t3 -24h5q2 -2 2.5 -5t0.5 -5q10 3 10 -3l28 -2q0 -4 2 -4q3 0 5.5 -2t5 -8t2.5 -22q8 3 8 -8q-2 -2 -8 -2v-13h8v-205h3q0 -13 -3 -15h3q3 -21 0 -41
h-3v-8h3q2 0 2 -7q16 -8 27.5 -12t21.5 -6q2 0 2 -8h3v-64q-6 0 -8 -1.5t0 -3.5q-5 -2 -9 -0.5t-9 5.5q0 -5 -15 -5v-5h-13q0 -11 -5 -8v-20h3v-67h-3q-2 -6 -0.5 -8.5t5.5 -4.5h-5v-48h3q2 -3 2 -13h3q-4 -10 -5.5 -17.5t0.5 -15.5h-3v-18h3q3 -7 0 -16h-3v-15h3v-176
q-5 0 -3 -3q-15 -6 -27 -8t-21 -2l-4.5 -3t-6.5 -5l5 -5q5 -13 0 -26h-5v-12h-51q3 -3 -5 -3v-94q15 -9 26 -6q0 -7 5 -7h61q0 5 10 5q0 2 11 13l2 23h3q-6 9 4.5 10.5t25.5 1.5q10 0 16 0.5t10 2.5v13h5l3 23q1 0 1 2t3 4.5t10.5 4.5t23.5 2q2 0 7 7.5t11 7.5v97h-5
q-3 3 -3 15h-5q8 21 8 34h5v10h-5q-5 7 0 15h5v57h-5q-4 9 0 20h5v5h-5q-4 7 0 16h5v7h-5q-4 46 0 95h5q-3 2 -5 2q-5 40 0 75h5v12t1 3.5t4 1t10 3.5q-3 10 3 10q17 0 27.5 -1.5t15.5 -3.5q16 0 27 1.5t19 3.5l2.5 3.5t8.5 9.5z" />
    <glyph glyph-name="asciitilde" unicode="~" 
d="M657 912v72h-5v7q-11 0 -5 6l-108 -3v-33h-5q0 -8 -3 -8h-38q0 -2 -5 -5v5q-5 5 -5 0q-2 -2 -2.5 -3.5t-2.5 -1.5q0 -11 -0.5 -19.5t-2.5 -13.5q-2 2 -2 -5q-8 -2 -14 -4t-12 -2q3 -2 -5 -2q-2 0 -10 5t-18 5q0 14 -1.5 24.5t-3.5 16.5q-17 1 -30 2.5t-21.5 6t-11.5 12.5
t1 23q-18 0 -20 2h-47q-19 0 -30 -2q-13 0 -10 2q-5 0 -8 -2h-54q2 -2 0.5 -4t-5.5 -2v-22t-2 -11q-20 -2 -34.5 -5t-24.5 -5v-38q-5 3 -15 -8q-3 2 0 2h-11q-15 -8 -15 -5q-2 -2 -15 3q2 -2 -5 -5v-85q-2 -2 1 -3.5t9 -3.5q11 -2 20.5 -2.5t15.5 -2.5q14 -2 27 -1.5t29 6.5
q0 7 15 7v18h3q0 13 2 18q8 0 8 3q10 0 8 -3h18v3q8 2 13.5 3.5t9.5 1.5v25h2q-3 11 8 11q13 3 41 0q0 -3 5 -3q2 -8 3.5 -15.5t1.5 -17.5q8 8 8 -5h25v-3q9 0 13 -1t6 -2.5t3 -3.5t4 -3q-2 -6 -2 -9q0 -2 2 -4h2q3 -2 3 -20q2 2 2.5 1t0.5 -6h51v-3h46v3q5 0 18 5v12h2
l3 21q40 4 61 6l21 2v-3q8 0 13 1.5t10 3.5v3h10v10q0 6 2 8h6v18q12 0 15 2v3q2 0 12.5 3.5t18.5 3.5q0 3 10 13z" />
    <glyph glyph-name="FL00C9h" unicode="&#xc9;" 
d="M659 2v97q-7 3 -5 5q-22 0 -25 5q-8 -4 -15.5 -5.5t-12.5 0.5q-33 2 -56.5 3.5t-38.5 1.5q-8 0 -24 -2.5t-22 -2.5v5q-21 -2 -36.5 -3.5t-25.5 -1.5q2 -2 0.5 -2.5t-5.5 -2.5q-1 3 -1 4q0 2 -3 3.5t-10 2t-21 0.5q0 -2 -7 -3.5t-9 -6.5q-5 4 -8.5 6t-1.5 4
q-17 0 -30 -1.5t-21 -3.5v5q-8 -5 -33 -5v5q-6 0 -8 -1.5t0 -3.5q-17 4 -32 5.5t-24 -0.5q-8 -4 -8 13h-3q-3 7 0 18h3v10h-3q-2 14 -2 32v45h-5v43q0 27 2 62t3.5 60t1.5 42h3v23q10 2 21 3t25 -1q3 3 5 3v-3q13 8 33 3v-3q8 2 13.5 2.5t9.5 0.5q4 -2 6.5 -2.5t4.5 -0.5h64
q0 3 2 3l3 -3q10 9 10 3q2 -2 5 -2.5t5 -0.5q17 2 29 2.5t22 0.5q2 -2 5 -2.5t5 -0.5q6 2 11.5 2.5t9.5 0.5q23 0 36.5 -0.5t17.5 -2.5q4 2 18.5 2.5t39.5 0.5q-2 4 -1 6t7 2q16 19 12 35h3v8h-3q-2 6 -2 20v39q-13 0 -16 2v6h-15v-6q-21 -3 -41 0v6h-10q5 -5 -3 -8
q-11 0 -7 8h-31v-6q-3 -3 -15 0v6h-11v-6h-61v6h-92v-6q-14 -2 -23.5 -2.5t-14.5 -2.5q-6 0 -18 1.5t-33 3.5q2 3 -3 3t-3 3l-25 2v79q-5 5 -5 31q-5 -3 -5 5q0 5 5 5v52h5q-3 2 -5 2v18h5l-5 5v72h5l-5 5v13h5v7h-5v13h5q0 13 5 18q21 8 31 8l2 -3q11 0 16 -5q5 2 9 2.5
t8 0.5q29 0 44.5 -0.5t19.5 -2.5q25 11 41 8q2 0 5.5 -0.5t5.5 -2.5h56q-3 3 2 3q5 -8 8 -8q25 4 38 6l13 2q2 -2 5 -2.5t5 -0.5q26 2 44.5 2.5t32.5 0.5q16 2 35 1.5t44 -4.5q-2 3 3 3q-5 12 10 12v13h-2q-2 14 -2.5 33t-0.5 44q-11 0 -8 8q-13 2 -24 4t-16 6
q-27 -6 -39 -8t-10 -2v-3q2 3 -15 3q2 -3 -3 -5q-3 2 -3 5q-29 4 -48 5.5t-33 1.5v3q-10 -4 -15.5 -6l-5.5 -2q-6 -2 -15 3v-3q-16 -3 -16 3q-20 0 -20 -3q-43 0 -46 3q-20 3 -26 -3q-54 0 -93.5 0.5t-64.5 2.5q0 -5 -13 -5v-3q-3 -2 -8 -2t-6 5t-6 5q-37 3 -62 -5v-44h-5
v-74h5q5 -8 0 -13h-5v-64h5q4 -11 0 -18h-5v-41h5q4 -10 0 -17h-5v-18h5q4 -16 0 -31h-5v-59h5v-46q10 0 5 -5q0 -3 -5 -3v-35h3v-59h-3v-49q5 0 5 -2q0 -5 -5 0v-154q2 2 2.5 1.5t2.5 -6.5q5 -5 -5 -5v-102h3q2 -10 3.5 -21.5t1.5 -24.5q0 -14 -1.5 -26t-3.5 -23h-3
q-2 -2 2 -3.5t6 -9.5q-2 -2 -2.5 -4t-2.5 -4h-3v-28h3q2 -14 3 -24.5t-1 -18.5q1 -3 5.5 -3.5t10 -1t10 -2t5.5 -6.5q11 2 20.5 4t15.5 4v-3q11 2 19 3.5t14 -0.5q11 -2 21 -4l20 -4q10 6 36 3v-3q14 2 23 3.5t15 1.5q-6 -2 3.5 -3.5t34.5 -1.5q4 0 11 1.5t15 3t15.5 3
t12.5 0.5q-2 2 0 3.5t8 1.5l8 -8t2 0q11 2 19 3.5t12 -0.5q14 -2 23.5 -4t17.5 -4l25.5 6t10.5 2q15 0 17 -3q22 2 37.5 2.5t26.5 0.5q-2 2 -1 3.5t6 1.5q2 0 2 -1q0 -2 -2 -4q10 0 17 -0.5t9 -2.5q16 -2 27 -0.5t19 3.5q0 9 10 13z" />
    <glyph glyph-name="FL00E9h" unicode="&#xe9;" 
d="M659 104v43h-5l1.5 3.5t3.5 9.5h-5q-3 10 0 21h5v7h-5v11h-112v-49q-20 -2 -33.5 -4t-23.5 -4l-2 -20h-3v-26q-9 0 -17.5 -2t-18.5 -8q0 5 -5 5q-2 0 -7 5q-4 1 -10 -1t-12.5 -4.5t-12 -3.5t-9.5 2q-25 7 -38 7q-31 0 -44 -5q-21 2 -38 3.5t-28 1.5q0 2 -6.5 7t-6.5 11
q0 2 1.5 3.5t3.5 -0.5v20q-10 4 -10 5q-14 2 -24.5 2.5t-16.5 2.5l-5 5.5t-5 15.5h-5v13h5v12q-5 0 -5 6h5v15h-5v20h5v23t2 11q0 15 4 18t4 5q11 2 19.5 3.5t13.5 1.5q10 0 16 -0.5t10 -2.5q0 8 13 8q0 -2 5 -2t7 -6h16q5 0 10.5 0.5t7.5 2.5q7 0 10 -3q31 2 54 2.5t38 0.5
q31 2 54 0.5t38 -3.5q0 5 5 5q2 -2 2.5 -3.5l0.5 -1.5q-13 5 15 5v-5q25 0 42.5 1.5t29.5 3.5q0 10 10 8v15q-6 0 -6.5 1.5t1.5 3.5h5v16h-5q-4 9 0 13h5l3 33q0 18 48 18h5v153l-28 3v5h-33v41q-20 2 -34.5 2.5t-24.5 2.5q-3 2 -3 33h-5q-2 14 -7 13.5t-13 1.5q2 -2 -5 -2
q-3 0 -3 2l-25 3v10h-3q-2 3 -2 23q-2 -2 -5.5 3t-5.5 5q-25 0 -34.5 1.5t-3.5 3.5q-12 -8 -18 -10v5q-2 0 -5.5 1.5t-7.5 3.5v-2q-13 0 -13 2q-10 0 -15 -5v5q-11 -7 -36 -2q-21 2 -56 2h-82q-4 -6 -7.5 -8.5t-5.5 -4.5l-2 -30q-17 -2 -29.5 -4t-21.5 -2l-5.5 -2.5
t-5.5 -4.5v-10q6 4 6 -8q2 -3 -6 -3l-2 -18l-3 -2q-11 -2 -20.5 -1t-14.5 3q-16 -7 -16 -10v-51h-5v-10h5v-51q5 3 5 -5h-5v-64h-5l1.5 -0.5t3.5 -2.5v-110q5 0 5 -5q-2 -3 -5 -3v-97q5 0 5 -2q-2 -3 -5 -3v-23q5 5 5 -5h-5v-26q5 5 5 -5h-5v-46q3 1 4 1q2 0 5 -1.5t9 -4
t18 -5.5v-3q21 0 18 -5q2 -14 4 -23t4 -15q13 0 23 -4.5t10 -8.5h25v-13q3 -2 3 -20h5v-8q6 -2 8 -3.5l2 -1.5q21 0 36.5 0.5t25.5 2.5q14 -2 23.5 -3.5t17.5 -1.5v-3q5 0 5 3q28 3 51 0v-3h10v3q12 3 28 0v-3h26v3q10 3 20 0v-3h8v3q16 3 28 0v-3h10v3q26 4 37.5 5.5
t13.5 1.5q-11 8 3 8l3 31h5q-4 9 0 12q17 0 20 -5q11 0 20.5 1.5t15.5 3.5q0 18 3 21l2 20q17 9 23 5v3q2 2 7 2.5t11 0.5q-3 2 5 10q10 0 10 5zM547 498h-5v-26q-8 5 -8 -5t8 -5v-31h-5l-3 -20q-14 -2 -23.5 -3.5t-14.5 -1.5q-2 2 -6 3.5t-10 1.5q-22 3 -30 -5v5
q-14 0 -25 -1.5t-16 -3.5q-20 2 -34.5 3.5t-24.5 1.5q-28 3 -41 -5q0 5 -15 5q0 5 -11 -5q4 8 -10 5q-3 -5 -31 -5q-58 8 -69 5v42t-2 27h-5v8h5q3 11 0 23h-5v5h5l2 30q6 4 3 8h46q5 5 5 13h5v25h5l3 13h28v-5q11 -3 23 0v5h8v-7q12 3 7 7h13v-5q23 -3 49 0v5h46v-5
q12 -4 25 0v5h16q-4 -7 0 -7q2 0 3 3.5t7 3.5q-2 -5 0 -9t8 -4v-11q0 -5 2 -9h5v-13q2 0 11 -2.5t15 -2.5h18q2 -4 7 -7.5t11 -5.5v-38h5v-5z" />
    <glyph glyph-name="FL2013h" unicode="&#x2013;" 
d="M657 413v44q-5 0 -5 2q2 2 2.5 4t2.5 2v12q-4 0 -5.5 1.5t0.5 3.5q0 5 5 0v21q-6 0 -8 4l-2 4l-3 -3q-52 0 -90 1.5t-63 3.5v3q-3 0 -3 -3q-38 -3 -79 0v3q-4 0 -6.5 -1.5t-4.5 -3.5l-199 2v3q-27 -4 -47.5 -6t-34.5 -2q-21 0 -36 0.5t-25 2.5q0 -8 -5 -8v-15h2
q3 -3 3 -8t-3 -8h-2v-7h2q8 -10 -2 -13h2q2 -2 2.5 -13t0.5 -28q20 -5 20 -10q33 0 36 -3q0 3 3 3q2 0 2 -3q6 2 25.5 2.5t56.5 0.5v5h33t3 2q2 4 3.5 2.5t1.5 -9.5q15 0 18 -3q21 0 36.5 0.5t27.5 2.5v5q2 -2 9.5 -4t18.5 -4q4 -2 11.5 -0.5t19.5 3.5q28 8 46 -3
q5 2 21 2.5t43 0.5q-2 2 0 3.5t7 1.5v-5q21 0 21 -3q11 0 14.5 1t4 2.5t0.5 2.5q0 2 4 2q2 0 3 -1.5t-1 -3.5h97v5h11q2 2 2.5 3.5t2.5 3.5z" />
    <glyph glyph-name="FL2014h" unicode="&#x2014;" 
d="M657 413v44q-5 0 -5 2q2 2 2.5 4t2.5 2v12q-4 0 -5.5 1.5t0.5 3.5q0 5 5 0v21q-6 0 -8 4l-2 4l-3 -3q-52 0 -90 1.5t-63 3.5v3q-3 0 -3 -3q-38 -3 -79 0v3q-4 0 -6.5 -1.5t-4.5 -3.5l-199 2v3q-27 -4 -47.5 -6t-34.5 -2q-21 0 -36 0.5t-25 2.5q0 -8 -5 -8v-15h2
q3 -3 3 -8t-3 -8h-2v-7h2q8 -10 -2 -13h2q2 -2 2.5 -13t0.5 -28q20 -5 20 -10q33 0 36 -3q0 3 3 3q2 0 2 -3q6 2 25.5 2.5t56.5 0.5v5h33t3 2q2 4 3.5 2.5t1.5 -9.5q15 0 18 -3q21 0 36.5 0.5t27.5 2.5v5q2 -2 9.5 -4t18.5 -4q4 -2 11.5 -0.5t19.5 3.5q28 8 46 -3
q5 2 21 2.5t43 0.5q-2 2 0 3.5t7 1.5v-5q21 0 21 -3q11 0 14.5 1t4 2.5t0.5 2.5q0 2 4 2q2 0 3 -1.5t-1 -3.5h97v5h11q2 2 2.5 3.5t2.5 3.5z" />
    <glyph glyph-name="FL2018h" unicode="&#x2018;" 
d="M232 756v13h5q3 7 0 18h-5v15q7 -3 7 5q0 9 -7 5v16q10 0 7 2q-2 3 -7 3v33q7 -3 7 5q0 9 -7 5v34h5q3 18 0 38h-5v15h5q3 11 0 18h-5q0 8 3 8q4 0 4 10q20 0 33.5 0.5t23.5 2.5q8 29 5 41h15q6 2 10 2h6v3q69 0 71 -3q3 -2 10 -2v-26h6q-2 -8 6.5 -12.5t8.5 -10.5
q2 10 3.5 11.5t1.5 -3.5h20l16 -8v-31h-3q-2 -2 -3 -5.5t1 -9.5h-23q-2 4 -2.5 1.5t-0.5 -11.5q-12 0 -18 -0.5t-9 -4.5t-3.5 -11.5t-0.5 -22.5q-8 -4 -13.5 -7t-11.5 -5v5q-7 3 -18 0v-5q0 4 -13 -6q-2 -2 -2 -5v-5h-3q-5 -8 0 -15h3v-13h-3q-4 -41 0 -82q8 -5 17 -6t19 1
v3q10 -6 16.5 -10t8.5 -6v-7h-5q-3 -11 0 -18h5l-3.5 -5.5t-3.5 -7.5h-3q-3 -4 0 -10q-7 7 -7 -3q-10 2 -19 2.5t-15 0.5q-17 0 -30 -0.5t-21 -2.5q0 8 -15 8l-3 31q-26 14 -48 7q0 6 -3 9t-5 9h-5z" />
    <glyph glyph-name="FL2019h" unicode="&#x2019;" 
d="M475 756v13h-5q-3 7 0 18h5v15q-7 -3 -7 5q0 9 7 5v16q-10 0 -7 2q2 3 7 3v33q-7 -3 -7 5q0 9 7 5v34h-5q-3 18 0 38h5v15h-5q-3 11 0 18h5q0 8 -4 8q-3 0 -3 10q-20 0 -33.5 0.5t-23.5 2.5q-8 29 -5 41h-15q-6 2 -10 2h-6v3q-69 0 -71 -3q-3 -2 -10 -2v-26h-6
q2 -8 -6.5 -12.5t-8.5 -10.5q-2 10 -3.5 11.5t-1.5 -3.5h-20l-16 -8v-31h3q2 -2 3 -5.5t-1 -9.5h23q2 4 2.5 1.5t0.5 -11.5q12 0 18 -0.5t9 -4.5t3.5 -11.5t0.5 -22.5q8 -4 13.5 -7t11.5 -5v5q7 3 18 0v-5q0 4 13 -6q2 -2 2 -5v-5h3q4 -8 0 -15h-3v-13h3q4 -41 0 -82
q-8 -5 -17 -6t-19 1v3q-10 -6 -16.5 -10t-8.5 -6v-7h5q3 -11 0 -18h-5l3.5 -5.5t3.5 -7.5h3q2 -4 0 -10q7 7 7 -3q10 2 19 2.5t15 0.5q17 0 30 -0.5t21 -2.5q0 8 15 8l3 31q26 14 48 7q0 6 3 9t5 9h5z" />
    <glyph glyph-name="FL201Ch" unicode="&#x201c;" 
d="M79 751q0 5 5 5v21h-5v38h5v18h-5v15q6 2 6.5 2.5t-1.5 2.5q-2 3 -5 3v13h5v56h3q2 2 2.5 7t0.5 11h5q3 10 0 20h-5h5q3 10 0 13h-11v13q16 2 27.5 2.5t19.5 2.5q0 3 1.5 3.5t3.5 1t3.5 2t1.5 6.5v13h5v15h5q2 2 2.5 5t0.5 5q9 -2 22 -2h31h51q0 -11 3 -13h3v-31h10v-5
q15 -2 26.5 -2.5t19.5 -2.5v-41q-2 2 -4 -1.5t-6 -8.5q-21 0 -21 -5l-25 -3v-23h-3q-2 -6 -5 -8.5t-3 -4.5l-25 -2v-5q-8 7 -21 -6q-2 -9 -3.5 -17t-1.5 -13h-5v-28h5q3 -3 -5 -3v-64q37 -8 48 -12.5t13 -10.5v-15h-2q-3 -3 -3 -18q-2 2 -5 -3t-5 -5q-21 0 -30.5 0.5
t-5.5 2.5q0 -3 -5 -8h-25v-5h-8v5q-17 5 -23 5q0 2 -2.5 10.5t-2.5 10.5h-5v23h-22q-9 0 -14 2v5h-16q-2 2 -2.5 4t-2.5 4zM384 777v7q5 0 5 3v197q34 15 56 10q5 13 5 38h5v11h26v2q8 -2 11.5 -3t3.5 1h44v-6q8 4 28 -7v-41h56v-26h5v-13h-5v-5q-17 -5 -29 -9t-22 -6v-10
h-5v-23q-10 -8 -19 -11.5t-17 -1.5q3 3 -15 3q-6 0 -9.5 -2t-1.5 -4v-79h-5q-3 -11 0 -20h5q0 -5 -5 -5q-3 -8 0 -18q11 -4 13 -11q14 -2 23.5 -3t15.5 1l10 -10v-41q-6 -4 -12 -7.5t-11 -5.5h-13v5h-54v-5h-13v5q-8 0 -9 9.5t-3 11.5h-3v23q-23 11 -31 7v5h-15q0 8 -10 8
l-3 26h-2zM246 925h2v5h-2v-5z" />
    <glyph glyph-name="FL201Dh" unicode="&#x201d;" 
d="M629 751q0 5 -5 5v21h5v38h-5v18h5v15q-6 2 -6.5 2.5t1.5 2.5q2 3 5 3v13h-5v56h-3q-2 2 -2.5 7t-0.5 11h-5q-3 10 0 20h5h-5q-3 10 0 13h11v13q-16 2 -27.5 2.5t-19.5 2.5q0 3 -1.5 3.5t-3.5 1t-3.5 2t-1.5 6.5v13h-5v15h-5q-2 2 -2.5 5t-0.5 5q-9 -2 -23 -2h-30h-51
q0 -11 -3 -13h-3v-31h-10v-5q-15 -2 -26.5 -2.5t-19.5 -2.5v-41q2 2 4 -1.5t6 -8.5q21 0 21 -5l25 -3v-23h3q2 -6 5 -8.5t3 -4.5l25 -2v-5q7 7 21 -6q2 -9 3.5 -17t1.5 -13h5v-28h-5q-3 -3 5 -3v-64q-37 -8 -48 -12.5t-13 -10.5v-15h2q3 -3 3 -18q2 2 5 -3t5 -5
q21 0 30.5 0.5t5.5 2.5q0 -3 5 -8h25v-5h8v5q17 5 23 5q0 2 2.5 10.5t2.5 10.5h5v23h21q10 0 15 2v5h16q2 2 2.5 4t2.5 4zM324 777v7q-5 0 -5 3v197q-34 15 -56 10q-5 13 -5 38h-5v11h-26v2q-8 -2 -11.5 -3t-3.5 1h-44v-6q-8 4 -28 -7v-41h-56v-26h-5v-13h5v-5q17 -5 29 -9
t22 -6v-10h5v-23q10 -8 19 -11.5t17 -1.5q-3 3 15 3q6 0 9.5 -2t1.5 -4v-79h5q3 -11 0 -20h-5q0 -5 5 -5q3 -8 0 -18q-11 -4 -13 -11q-14 -2 -23.5 -3t-15.5 1l-10 -10v-41q6 -4 12 -7.5t11 -5.5h13v5h54v-5h13v5q8 0 9 9.5t3 11.5h3v23q23 11 31 7v5h15q0 8 10 8l3 26h2z
M462 925h-2v5h2v-5z" />
  </font>
</defs>
</svg>
